SplineFontDB: 3.2
FontName: D-DIN-PRO-Exp-Regular-Italic
FullName: D-DIN-PRO-Exp-Regular-Italic
FamilyName: D-DIN-PRO-Exp
Weight: Regular
Copyright: Copyright (c) CyberFei. All rights reserved
Version: 1.1.0
ItalicAngle: -13
UnderlinePosition: -150
UnderlineWidth: 50
Ascent: 831
Descent: 169
InvalidEm: 0
sfntRevision: 0x00010000
LayerCount: 2
Layer: 0 0 "Back" 1
Layer: 1 0 "Fore" 0
XUID: [1021 868 -1451673819 12618]
StyleMap: 0x0040
FSType: 4
OS2Version: 4
OS2_WeightWidthSlopeOnly: 1
OS2_UseTypoMetrics: 0
CreationTime: 1462909513
ModificationTime: 1778060080
PfmFamily: 17
TTFWeight: 400
TTFWidth: 7
LineGap: 0
VLineGap: 0
Panose: 2 11 5 4 2 2 2 3 2 4
OS2TypoAscent: 831
OS2TypoAOffset: 0
OS2TypoDescent: -169
OS2TypoDOffset: 0
OS2TypoLinegap: 86
OS2WinAscent: 902
OS2WinAOffset: 0
OS2WinDescent: 184
OS2WinDOffset: 0
HheadAscent: 902
HheadAOffset: 0
HheadDescent: -184
HheadDOffset: 0
OS2SubXSize: 650
OS2SubYSize: 600
OS2SubXOff: 0
OS2SubYOff: 75
OS2SupXSize: 650
OS2SupYSize: 600
OS2SupXOff: 0
OS2SupYOff: 350
OS2StrikeYSize: 50
OS2StrikeYPos: 307
OS2CapHeight: 690
OS2XHeight: 512
OS2Vendor: 'MONO'
OS2CodePages: 00000001.00000000
OS2UnicodeRanges: 8000006f.4000000a.00000000.00000000
Lookup: 1 0 0 "'rtla' Right to Left Alternates lookup 0" { "'rtla' Right to Left Alternates lookup 0 subtable"  } ['rtla' ('DFLT' <'dflt' > ) ]
Lookup: 1 0 0 "'sups' Superscript lookup 1" { "'sups' Superscript lookup 1 subtable" ("superior") } ['sups' ('DFLT' <'dflt' > ) ]
Lookup: 4 0 0 "'frac' Diagonal Fractions lookup 2" { "'frac' Diagonal Fractions lookup 2 subtable"  } ['frac' ('DFLT' <'dflt' > ) ]
Lookup: 258 0 0 "'kern' Horizontal Kerning in Latin lookup 0" { "'kern' Horizontal Kerning in Latin lookup 0 subtable"  } ['kern' ('DFLT' <'dflt' > 'latn' <'dflt' > ) ]
Lookup: 258 0 0 "Pairwise Positioning (kerning) lookup 1" { "Pairwise Positioning (kerning) lookup 1 subtable"  } []

StartChar: .notdef
Encoding: 65536 -1 0
Width: 600
GlyphClass: 1
Flags: MW
HStem: 0 34<59.3906 388.391 59.3906 414.541> 656 34<202.99 531.99 202.99 202.99>
LayerCount: 2
Fore
SplineSet
176.83984375 690 m 1
 573.83984375 690 l 1
 414.541015625 0 l 1
 17.541015625 0 l 1
 176.83984375 690 l 1
388.390625 34 m 1
 531.990234375 656 l 1
 202.990234375 656 l 1
 59.390625 34 l 1
 388.390625 34 l 1
EndSplineSet
EndChar

StartChar: exclam
Encoding: 33 33 4
Width: 239
GlyphClass: 2
Flags: MW
HStem: 0 104<9.55176 86.541 -14.459 110.552> 670 20G<144.84 245.84 245.84 245.84>
VStem: -14.459 260.299
LayerCount: 2
Fore
SplineSet
144.83984375 690 m 1
 245.83984375 690 l 1
 117.099609375 206 l 1
 51.099609375 206 l 1
 144.83984375 690 l 1
9.5517578125 104 m 1
 110.551757812 104 l 1
 86.541015625 0 l 1
 -14.458984375 0 l 1
 9.5517578125 104 l 1
EndSplineSet
EndChar

StartChar: quotedbl
Encoding: 34 34 5
Width: 337
GlyphClass: 2
Flags: MW
HStem: 439 251<123.84 146.893 65.8926 204.84 123.84 225.893 283.84 307.893>
VStem: 65.8926 299.947<439 690>
LayerCount: 2
Fore
SplineSet
123.83984375 690 m 1
 204.83984375 690 l 1
 146.892578125 439 l 1
 65.892578125 439 l 1
 123.83984375 690 l 1
283.83984375 690 m 1
 365.83984375 690 l 1
 307.892578125 439 l 1
 225.892578125 439 l 1
 283.83984375 690 l 1
EndSplineSet
EndChar

StartChar: numbersign
Encoding: 35 35 6
Width: 584
GlyphClass: 2
Flags: MW
HStem: 0 21G<24.541 97.541 24.541 24.541 225.541 298.541 225.541 225.541> 216 67<4.87695 102.408 -10.5918 126.877 199.877 303.408 4.87695 175.408 399.877 503.408> 423 66<76.4355 177.198 61.1982 201.436 76.4355 250.198 273.436 378.198 473.436 576.198> 670 20G<273.84 345.84 345.84 345.84 473.84 545.84 545.84 545.84>
LayerCount: 2
Fore
SplineSet
450.198242188 423 m 1
 399.876953125 283 l 1
 518.876953125 283 l 1
 503.408203125 216 l 1
 376.408203125 216 l 1
 298.541015625 0 l 1
 225.541015625 0 l 1
 303.408203125 216 l 1
 175.408203125 216 l 1
 97.541015625 0 l 1
 24.541015625 0 l 1
 102.408203125 216 l 1
 -10.591796875 216 l 1
 4.876953125 283 l 1
 126.876953125 283 l 1
 177.198242188 423 l 1
 61.1982421875 423 l 1
 76.435546875 489 l 1
 201.435546875 489 l 1
 273.83984375 690 l 1
 345.83984375 690 l 1
 273.435546875 489 l 1
 401.435546875 489 l 1
 473.83984375 690 l 1
 545.83984375 690 l 1
 473.435546875 489 l 1
 591.435546875 489 l 1
 576.198242188 423 l 1
 450.198242188 423 l 1
378.198242188 423 m 1
 250.198242188 423 l 1
 199.876953125 283 l 1
 327.876953125 283 l 1
 378.198242188 423 l 1
EndSplineSet
EndChar

StartChar: dollar
Encoding: 36 36 7
Width: 519
GlyphClass: 2
Flags: MW
HStem: 28 77<144.005 161.782> 584.999 75.001<272.599 289.914 289.914 339.599>
VStem: -3.05273 83<214 214> 412.512 83<484.999 484.999>
LayerCount: 2
Fore
SplineSet
363.93359375 84 m 0
 323.3671875 52.6669921875 272.467773438 34.3330078125 211.236328125 29 c 1
 190.919921875 -59 l 1
 123.919921875 -59 l 1
 144.004882812 28 l 1
 85.75 32.6669921875 44.23828125 50.6669921875 19.47265625 82 c 0
 -5.2939453125 113.333007812 -12.802734375 157.333007812 -3.052734375 214 c 1
 79.947265625 214 l 1
 75.583984375 180.666015625 79.90234375 155.333007812 92.900390625 138 c 0
 105.899414062 120.666992188 128.859375 109.666992188 161.782226562 105 c 1
 210.495117188 316 l 1
 200.95703125 318 l 2
 147.932617188 328 110.459960938 346.166992188 88.5390625 372.5 c 0
 66.619140625 398.833007812 61.19921875 436 72.28125 484 c 0
 83.82421875 534 108.674804688 574.5 146.83203125 605.5 c 0
 184.98828125 636.5 232.682617188 654.666992188 289.9140625 660 c 1
 308.614257812 741 l 1
 375.614257812 741 l 1
 357.14453125 661 l 1
 410.067382812 656.333007812 448.604492188 639.166015625 472.754882812 609.499023438 c 0
 496.90625 579.83203125 504.4921875 538.33203125 495.51171875 484.999023438 c 1
 412.51171875 484.999023438 l 1
 416.76953125 514.999023438 412.951171875 538.166015625 401.057617188 554.499023438 c 0
 389.161132812 570.83203125 368.674804688 580.999023438 339.598632812 584.999023438 c 1
 293.88671875 386.999023438 l 1
 316.962890625 382.999023438 l 2
 369.321289062 372.999023438 406.306640625 354.166015625 427.918945312 326.499023438 c 0
 449.532226562 298.83203125 454.643554688 260.33203125 443.25390625 210.999023438 c 0
 430.94140625 157.666015625 404.500976562 115.333007812 363.93359375 84 c 0
167.9296875 430.499023438 m 0
 179.287109375 416.166015625 199.86328125 405.666015625 229.657226562 398.999023438 c 1
 272.598632812 584.999023438 l 1
 210.084960938 576.999023438 172.517578125 545.666015625 159.897460938 490.999023438 c 0
 153.89453125 464.999023438 156.571289062 444.83203125 167.9296875 430.499023438 c 0
355.869140625 204.999023438 m 0
 362.640625 234.33203125 359.719726562 256.331054688 347.10546875 270.998046875 c 0
 334.4921875 285.665039062 310.364257812 296.665039062 274.724609375 303.998046875 c 1
 228.55078125 103.998046875 l 1
 299.422851562 110.665039062 341.862304688 144.33203125 355.869140625 204.999023438 c 0
EndSplineSet
EndChar

StartChar: percent
Encoding: 37 37 8
Width: 917
GlyphClass: 2
Flags: MW
HStem: -6 66.999<650.958 674.291 650.958 694.156> 266 67<166.753 185.952> 356.999 67.001<722.762 742.628> 630 67<239.123 258.655>
LayerCount: 2
Fore
SplineSet
65.033203125 307.5 m 0
 47.75390625 335.166992188 45.34765625 376 57.814453125 430 c 2
 82.748046875 538 l 2
 94.7529296875 590 116.040039062 629.5 146.606445312 656.5 c 0
 177.172851562 683.5 215.7890625 697 262.456054688 697 c 0
 357.7890625 697 393.219726562 644 368.748046875 538 c 2
 343.814453125 430 l 2
 331.34765625 376 309.920898438 335.166992188 279.533203125 307.5 c 0
 249.145507812 279.833007812 209.952148438 266 161.952148438 266 c 0
 114.619140625 266 82.3125 279.833007812 65.033203125 307.5 c 0
685.301757812 692 m 1
 759.301757812 692 l 1
 218.541015625 0 l 1
 145.541015625 0 l 1
 685.301757812 692 l 1
233.9609375 357 m 0
 247.655273438 373 258.657226562 399 266.96875 435 c 2
 288.901367188 530 l 2
 296.904296875 564.666992188 297.752929688 590 291.447265625 606 c 0
 285.140625 622 270.321289062 630 246.98828125 630 c 0
 223.655273438 630 204.974609375 622 190.948242188 606 c 0
 176.920898438 590 165.905273438 564.666992188 157.90234375 530 c 2
 135.969726562 435 l 2
 127.658203125 399 126.823242188 373 133.461914062 357 c 0
 140.100585938 341 155.086914062 333 178.419921875 333 c 0
 201.752929688 333 220.266601562 341 233.9609375 357 c 0
542.018554688 158 m 2
 566.720703125 264.999023438 l 2
 578.879882812 317.666015625 600.038085938 357.333007812 630.194335938 384 c 0
 660.350585938 410.666992188 699.095703125 424 746.428710938 424 c 0
 841.76171875 424 877.193359375 371 852.720703125 265 c 2
 828.018554688 158 l 2
 802.776367188 48.6669921875 742.15625 -6 646.15625 -6 c 0
 551.489257812 -6 516.776367188 48.6669921875 542.018554688 158 c 2
718.165039062 84.9990234375 m 0
 731.858398438 100.999023438 742.78515625 126.666015625 750.942382812 161.999023438 c 2
 772.875 256.999023438 l 2
 781.032226562 292.33203125 781.918945312 317.83203125 775.536132812 333.499023438 c 0
 769.153320312 349.166015625 754.294921875 356.999023438 730.961914062 356.999023438 c 0
 707.625976562 356.999023438 688.984375 349.166015625 675.036132812 333.499023438 c 0
 661.0859375 317.83203125 650.032226562 292.33203125 641.875 256.999023438 c 2
 619.942382812 161.999023438 l 2
 611.78515625 126.666015625 611.026367188 100.999023438 617.666015625 84.9990234375 c 0
 624.3046875 68.9990234375 639.291015625 60.9990234375 662.624023438 60.9990234375 c 0
 685.95703125 60.9990234375 704.470703125 68.9990234375 718.165039062 84.9990234375 c 0
EndSplineSet
EndChar

StartChar: ampersand
Encoding: 38 38 9
Width: 663
GlyphClass: 2
Flags: MW
HStem: -10.999 77<170.444 184.334> 0.000976562 77.999<481.207 545.549 525.549 527.54> 630.001 71<342.379 354.321>
LayerCount: 2
Fore
SplineSet
545.548828125 78 m 1x60
 527.540039062 0.0009765625 l 1
 493.540039062 0.0009765625 l 2x60
 468.873046875 0.0009765625 449.463867188 4.0009765625 435.310546875 12.0009765625 c 0
 421.157226562 20.0009765625 407.2109375 34.66796875 393.46875 56.0009765625 c 2
 379.779296875 79.0009765625 l 1
 342.390625 47.0009765625 306.581054688 24.0009765625 272.348632812 10.0009765625 c 0
 238.1171875 -3.9990234375 202.66796875 -10.9990234375 166.000976562 -10.9990234375 c 0xa0
 124.000976562 -10.9990234375 89.88671875 -2.83203125 63.6572265625 13.5009765625 c 0
 37.427734375 29.833984375 19.712890625 52.0009765625 10.509765625 80.0009765625 c 0
 1.306640625 108.000976562 0.78515625 139.66796875 8.9423828125 175.000976562 c 0
 18.1767578125 215.000976562 38.1806640625 251.833984375 68.953125 285.500976562 c 0
 99.7255859375 319.16796875 143.0625 351.66796875 198.962890625 383.000976562 c 1
 178.453125 418.333984375 164.91796875 448.500976562 158.356445312 473.500976562 c 0
 151.794921875 498.501953125 151.361328125 523.334960938 157.055664062 548.000976562 c 0
 163.828125 577.333984375 176.869140625 603.500976562 196.1796875 626.500976562 c 0
 215.489257812 649.500976562 239.350585938 667.66796875 267.76171875 681.000976562 c 0
 296.172851562 694.333984375 326.37890625 701.000976562 358.37890625 701.000976562 c 0
 407.045898438 701.000976562 443.404296875 686.66796875 467.452148438 658.000976562 c 0
 491.500976562 629.333984375 498.291992188 592.333984375 487.826171875 547.000976562 c 0
 479.822265625 512.333984375 462.7421875 481.666992188 436.5859375 455 c 0
 410.4296875 428.333007812 371.221679688 400 318.961914062 370 c 2
 313.26953125 367 l 1
 413.71484375 200 l 1
 527.956054688 305 l 1
 573.412109375 255 l 1
 449.09375 141 l 1
 466.3984375 112 l 2
 474.806640625 99.3330078125 483.267578125 90.5 491.780273438 85.5 c 0
 500.29296875 80.5 511.548828125 78 525.548828125 78 c 2
 545.548828125 78 l 1x60
277.29296875 607.500976562 m 0
 258.830078125 592.500976562 246.828125 573.000976562 241.287109375 549.000976562 c 0
 237.439453125 532.333984375 237.923828125 515.666992188 242.743164062 499 c 0
 247.5625 482.333007812 258.251953125 459.333007812 274.813476562 430 c 2
 278.427734375 424 l 1
 285.3515625 428 l 2
 324.430664062 450 352.842773438 469.833007812 370.587890625 487.5 c 0
 388.333984375 505.166992188 399.823242188 525.333984375 405.055664062 548.000976562 c 0
 410.750976562 572.66796875 407.830078125 592.500976562 396.29296875 607.500976562 c 0
 384.755859375 622.500976562 366.654296875 630.000976562 341.987304688 630.000976562 c 0
 317.3203125 630.000976562 295.755859375 622.500976562 277.29296875 607.500976562 c 0
264.086914062 82.5009765625 m 0
 288.29296875 93.5009765625 315.319335938 111.66796875 345.16796875 137.000976562 c 1
 232.571289062 325.000976562 l 1
 191.8515625 301.66796875 160.092773438 278.16796875 137.295898438 254.500976562 c 0
 114.499023438 230.833984375 99.9453125 205.333984375 93.634765625 178.000976562 c 0
 86.0927734375 145.333984375 90.5654296875 118.500976562 107.049804688 97.5009765625 c 0
 123.53515625 76.5009765625 151.110351562 66.0009765625 189.77734375 66.0009765625 c 0xa0
 215.110351562 66.0009765625 239.879882812 71.5009765625 264.086914062 82.5009765625 c 0
EndSplineSet
EndChar

StartChar: quotesingle
Encoding: 39 39 10
Width: 177
GlyphClass: 2
Flags: MW
HStem: 439 251<123.84 146.893 65.8926 204.84>
VStem: 65.8926 138.947
LayerCount: 2
Fore
SplineSet
123.83984375 690 m 1
 204.83984375 690 l 1
 146.892578125 439 l 1
 65.892578125 439 l 1
 123.83984375 690 l 1
EndSplineSet
EndChar

StartChar: parenleft
Encoding: 40 40 11
Width: 313
GlyphClass: 2
Flags: MW
VStem: 28.8984 319.485
LayerCount: 2
Fore
SplineSet
28.8984375 112 m 0
 21.9052734375 181.333007812 27.029296875 253.334960938 44.267578125 328.001953125 c 0
 61.6591796875 403.334960938 90.064453125 475.834960938 129.481445312 545.501953125 c 0
 168.8984375 615.168945312 218.19921875 680.001953125 277.383789062 740.001953125 c 1
 348.383789062 740.001953125 l 1
 295.506835938 681.334960938 249.961914062 616.16796875 211.749023438 544.500976562 c 0
 173.536132812 472.833984375 146.041992188 400.666992188 129.265625 328.000976562 c 0
 112.3359375 254.66796875 106.430664062 182.16796875 111.551757812 110.500976562 c 0
 116.673828125 38.833984375 132.206054688 -25.9990234375 158.1484375 -83.9990234375 c 1
 86.1484375 -83.9990234375 l 1
 54.9755859375 -22.666015625 35.8916015625 42.6669921875 28.8984375 112 c 0
EndSplineSet
Substitution2: "'rtla' Right to Left Alternates lookup 0 subtable" parenright
EndChar

StartChar: parenright
Encoding: 41 41 12
Width: 313
GlyphClass: 2
Flags: MW
VStem: -50.8516 319.331
LayerCount: 2
Fore
SplineSet
85.5517578125 110.5 m 0
 123.764648438 182.166992188 151.3359375 254.665039062 168.266601562 327.998046875 c 0
 185.04296875 400.665039062 190.87109375 472.83203125 185.75 544.499023438 c 0
 180.627929688 616.166015625 165.172851562 681.333007812 139.383789062 739.999023438 c 1
 210.383789062 739.999023438 l 1
 241.865234375 679.999023438 261.23046875 615.166015625 268.479492188 545.499023438 c 0
 275.728515625 475.83203125 270.657226562 403.33203125 253.265625 327.999023438 c 0
 236.02734375 253.33203125 207.905273438 181.33203125 168.8984375 111.999023438 c 0
 129.891601562 42.666015625 80.640625 -22.6669921875 21.1484375 -84 c 1
 -50.8515625 -84 l 1
 1.87109375 -26 47.3388671875 38.8330078125 85.5517578125 110.5 c 0
EndSplineSet
Substitution2: "'rtla' Right to Left Alternates lookup 0 subtable" parenleft
EndChar

StartChar: asterisk
Encoding: 42 42 13
Width: 411
GlyphClass: 2
Flags: MW
HStem: 407 283<189.504 307.84 189.504 307.84>
VStem: 84.4365 328.625<502 600>
LayerCount: 2
Fore
SplineSet
213.284179688 510 m 1
 97.0478515625 457 l 1
 84.4365234375 502 l 1
 197.749023438 551 l 1
 107.061523438 600 l 1
 140.451171875 645 l 1
 232.446289062 593 l 1
 254.83984375 690 l 1
 307.83984375 690 l 1
 285.21484375 592 l 1
 401.451171875 645 l 1
 413.061523438 600 l 1
 300.98046875 552 l 1
 391.436523438 502 l 1
 358.047851562 457 l 1
 266.284179688 510 l 1
 242.50390625 407 l 1
 189.50390625 407 l 1
 213.284179688 510 l 1
EndSplineSet
EndChar

StartChar: plus
Encoding: 43 43 14
Width: 509
GlyphClass: 2
Flags: MW
HStem: 236 80<42.4951 185.026 24.0264 203.495 42.4951 266.026 284.495 427.026>
LayerCount: 2
Fore
SplineSet
185.026367188 236 m 1
 24.0263671875 236 l 1
 42.4951171875 316 l 1
 203.495117188 316 l 1
 240.896484375 478 l 1
 321.896484375 478 l 1
 284.495117188 316 l 1
 445.495117188 316 l 1
 427.026367188 236 l 1
 266.026367188 236 l 1
 228.625 74 l 1
 147.625 74 l 1
 185.026367188 236 l 1
EndSplineSet
EndChar

StartChar: comma
Encoding: 44 44 15
Width: 177
GlyphClass: 2
Flags: MW
HStem: -145 252<-68.9346 70.2441>
VStem: -68.9346 139.179
LayerCount: 2
Fore
SplineSet
-10.755859375 107 m 1
 70.244140625 107 l 1
 28.9189453125 -72 l 1
 -68.9345703125 -145 l 1
 -10.755859375 107 l 1
EndSplineSet
EndChar

StartChar: hyphen
Encoding: 45 45 16
Width: 422
GlyphClass: 2
Flags: MW
HStem: 306 81<57.8867 357.187 39.1865 375.887>
LayerCount: 2
Fore
SplineSet
57.88671875 387 m 1
 375.88671875 387 l 1
 357.186523438 306 l 1
 39.1865234375 306 l 1
 57.88671875 387 l 1
EndSplineSet
EndChar

StartChar: period
Encoding: 46 46 17
Width: 198
GlyphClass: 2
Flags: MW
HStem: 0 107<-10.7559 66.541 -35.459 91.2441>
VStem: -35.459 126.703<0 107>
LayerCount: 2
Fore
SplineSet
-10.755859375 107 m 1
 91.244140625 107 l 1
 66.541015625 0 l 1
 -35.458984375 0 l 1
 -10.755859375 107 l 1
EndSplineSet
EndChar

StartChar: slash
Encoding: 47 47 18
Width: 428
GlyphClass: 2
Flags: MW
HStem: -10 21G<-33.7676 39.2324 -33.7676 -33.7676> 672 20G<379.302 452.302 452.302 452.302>
LayerCount: 2
Fore
SplineSet
379.301757812 692 m 1
 452.301757812 692 l 1
 39.232421875 -10 l 1
 -33.767578125 -10 l 1
 379.301757812 692 l 1
EndSplineSet
EndChar

StartChar: zero
Encoding: 48 48 19
Width: 549
GlyphClass: 2
Flags: MW
HStem: -10 81<186.599 224.566> 619 80.999<317.815 356.115>
LayerCount: 2
Fore
SplineSet
43.892578125 53.5 m 0
 17.666015625 95.8330078125 14.171875 158.666015625 33.4111328125 241.999023438 c 2
 82.1240234375 452.999023438 l 2
 100.901367188 534.33203125 133.099609375 595.83203125 178.719726562 637.499023438 c 0
 224.338867188 679.166015625 282.481445312 699.999023438 353.1484375 699.999023438 c 0
 423.815429688 699.999023438 472.505859375 679.166015625 499.219726562 637.499023438 c 0
 525.932617188 595.83203125 529.901367188 534.33203125 511.124023438 452.999023438 c 2
 462.411132812 241.999023438 l 2
 443.171875 158.666015625 410.499023438 95.8330078125 364.392578125 53.5 c 0
 318.286132812 11.1669921875 259.899414062 -10 189.232421875 -10 c 0
 118.565429688 -10 70.119140625 11.1669921875 43.892578125 53.5 c 0
312.744140625 113.5 m 0
 338.619140625 141.833007812 358.713867188 187 373.02734375 249 c 2
 417.353515625 441 l 2
 431.66796875 503 432.262695312 548.166992188 419.13671875 576.5 c 0
 406.010742188 604.833007812 377.78125 619 334.448242188 619 c 0
 291.78125 619 257.34375 604.833007812 231.135742188 576.5 c 0
 204.927734375 548.166992188 184.666992188 503 170.352539062 441 c 2
 126.026367188 249 l 2
 111.712890625 187 111.118164062 141.833007812 124.243164062 113.5 c 0
 137.369140625 85.1669921875 165.265625 71 207.932617188 71 c 0
 251.932617188 71 286.870117188 85.1669921875 312.744140625 113.5 c 0
EndSplineSet
EndChar

StartChar: one
Encoding: 49 49 20
Width: 362
GlyphClass: 2
Flags: MW
HStem: 0 21G<108.541 199.541 108.541 108.541> 670 20G<267.84 358.84 358.84 358.84>
VStem: 76.7441 282.096<499 690>
LayerCount: 2
Fore
SplineSet
244.984375 591 m 1
 76.744140625 499 l 1
 99.138671875 596 l 1
 267.83984375 690 l 1
 358.83984375 690 l 1
 199.541015625 0 l 1
 108.541015625 0 l 1
 244.984375 591 l 1
EndSplineSet
Substitution2: "'sups' Superscript lookup 1 subtable" uni00B9
EndChar

StartChar: two
Encoding: 50 50 21
Width: 530
GlyphClass: 2
Flags: MW
HStem: 0 80<111.011 394.541> 621 79<308.481 338.909>
LayerCount: 2
Fore
SplineSet
-10.60546875 73 m 1
 311.114257812 362 l 2
 343.579101562 390 367.40234375 414.5 382.583007812 435.5 c 0
 397.764648438 456.5 408.125976562 479 413.666992188 503 c 2
 416.4375 515 l 2
 424.1328125 548.333007812 419.46875 574.333007812 402.4453125 593 c 0
 385.421875 611.666992188 357.909179688 621 319.909179688 621 c 0
 282.576171875 621 251.588867188 611.666992188 226.946289062 593 c 0
 202.303710938 574.333007812 185.826171875 547 177.514648438 511 c 2
 174.975585938 500 l 1
 86.9755859375 500 l 1
 91.130859375 518 l 2
 104.059570312 574 132.961914062 618.333007812 177.8359375 651 c 0
 222.7109375 683.666992188 276.814453125 700 340.147460938 700 c 0
 382.814453125 700 418.211914062 692.333007812 446.338867188 677 c 0
 474.465820312 661.666992188 493.834960938 640.166992188 504.448242188 612.5 c 0
 515.060546875 584.833007812 516.2109375 553 507.899414062 517 c 2
 504.436523438 502 l 2
 496.586914062 468 482.353515625 436.666992188 461.735351562 408 c 0
 441.1171875 379.333007812 410.47265625 347.666015625 369.802734375 313 c 2
 111.010742188 80 l 1
 413.010742188 80 l 1
 394.541015625 0 l 1
 -27.458984375 0 l 1
 -10.60546875 73 l 1
EndSplineSet
Substitution2: "'sups' Superscript lookup 1 subtable" uni00B2
EndChar

StartChar: three
Encoding: 51 51 22
Width: 549
GlyphClass: 2
Flags: MW
HStem: -10 79.001<182.805 218.232> 317 80<230.196 252.728 211.728 270.196> 621 79<316.482 347.245>
LayerCount: 2
Fore
SplineSet
37.4677734375 36.5 m 0
 6.9580078125 67.5 -1.8310546875 111.000976562 11.09765625 167.000976562 c 2
 13.40625 177.000976562 l 1
 101.40625 177.000976562 l 1
 99.328125 168.000976562 l 2
 91.9404296875 136.000976562 97.1171875 111.500976562 114.859375 94.5009765625 c 0
 132.6015625 77.5009765625 162.138671875 69.0009765625 203.471679688 69.0009765625 c 0
 244.8046875 69.0009765625 278.78125 79.0009765625 305.3984375 99.0009765625 c 0
 332.015625 119.000976562 349.556640625 147.333984375 358.022460938 184.000976562 c 2
 362.408203125 203.000976562 l 2
 371.02734375 240.333984375 366.068359375 268.666992188 347.532226562 288 c 0
 328.995117188 307.333007812 297.39453125 317 252.727539062 317 c 2
 211.727539062 317 l 1
 230.196289062 397 l 1
 270.196289062 397 l 2
 310.86328125 397 344.018554688 406.333007812 369.661132812 425 c 0
 395.303710938 443.666992188 412.049804688 470 419.899414062 504 c 2
 423.131835938 518 l 2
 430.827148438 551.333007812 426.547851562 576.833007812 410.29296875 594.5 c 0
 394.0390625 612.166992188 366.578125 621 327.911132812 621 c 0
 289.244140625 621 257.91015625 612.333007812 233.908203125 595 c 0
 209.907226562 577.666992188 194.134765625 552.666992188 186.59375 520 c 2
 184.28515625 510 l 1
 98.28515625 510 l 1
 100.82421875 521 l 2
 113.752929688 577 142.040039062 620.833007812 185.68359375 652.5 c 0
 229.327148438 684.166992188 283.815429688 700 349.1484375 700 c 0
 413.815429688 700 460.737304688 684.5 489.913085938 653.5 c 0
 519.08984375 622.5 527.291015625 579.333007812 514.515625 524 c 2
 511.052734375 509 l 2
 503.049804688 474.333007812 487.40625 444.833007812 464.12109375 420.5 c 0
 440.8359375 396.166992188 412.3984375 377.666992188 378.807617188 365 c 1
 412.704101562 353 435.919921875 333 448.456054688 305 c 0
 460.991210938 277 462.565429688 242.666992188 453.176757812 202 c 2
 449.020507812 184 l 2
 435.168945312 124 404.57421875 76.6669921875 357.237304688 42 c 0
 309.901367188 7.3330078125 252.232421875 -10 184.232421875 -10 c 0
 116.899414062 -10 67.9775390625 5.5 37.4677734375 36.5 c 0
EndSplineSet
Substitution2: "'sups' Superscript lookup 1 subtable" uni00B3
EndChar

StartChar: four
Encoding: 52 52 23
Width: 564
GlyphClass: 2
Flags: MW
HStem: 0 21G<264.541 355.541 264.541 264.541> 128 81<7.79297 7.79297 100.793 294.092 -10.9082 7.79297 403.793 468.092> 670 20G<353.84 446.84 446.84 446.84>
LayerCount: 2
Fore
SplineSet
468.091796875 128 m 1
 385.091796875 128 l 1
 355.541015625 0 l 1
 264.541015625 0 l 1
 294.091796875 128 l 1
 -10.908203125 128 l 1
 7.79296875 209 l 1
 353.83984375 690 l 1
 446.83984375 690 l 1
 100.79296875 209 l 1
 312.79296875 209 l 1
 354.118164062 388 l 1
 445.118164062 388 l 1
 403.79296875 209 l 1
 486.79296875 209 l 1
 468.091796875 128 l 1
EndSplineSet
EndChar

StartChar: five
Encoding: 53 53 24
Width: 536
GlyphClass: 2
Flags: MW
HStem: -10 80<179.368 211.899> 376 79<259.347 336.917> 609 81<210.139 515.139 210.139 210.139>
LayerCount: 2
Fore
SplineSet
39.544921875 39 m 0
 11.75390625 71.6669921875 3.7822265625 113.666992188 15.6337890625 165 c 2
 17.48046875 173 l 1
 104.48046875 173 l 1
 103.326171875 168 l 2
 96.861328125 140 101.474609375 116.666992188 117.165039062 98 c 0
 132.85546875 79.3330078125 160.034179688 70 198.701171875 70 c 0
 279.368164062 70 330.08984375 115 350.868164062 205 c 2
 358.948242188 240 l 2
 369.260742188 284.666992188 367.071289062 318.5 352.381835938 341.5 c 0
 337.69140625 364.5 311.013671875 376 272.346679688 376 c 0
 246.346679688 376 222.666992188 370.166992188 201.306640625 358.5 c 0
 179.9453125 346.833007812 162.059570312 330 147.647460938 308 c 1
 59.6474609375 308 l 1
 147.838867188 690 l 1
 533.838867188 690 l 1
 515.138671875 609 l 1
 210.138671875 609 l 1
 163.041992188 405 l 1
 181.915039062 420.333007812 204.056640625 432.5 229.467773438 441.5 c 0
 254.877929688 450.5 280.583984375 455 306.583984375 455 c 0
 367.250976562 455 410.185546875 436.666992188 435.387695312 400 c 0
 460.588867188 363.333007812 465.416992188 311.333007812 449.872070312 244 c 2
 439.944335938 201 l 2
 424.553710938 134.333007812 393.919921875 82.5 348.044921875 45.5 c 0
 302.168945312 8.5 245.565429688 -10 178.232421875 -10 c 0
 113.565429688 -10 67.3359375 6.3330078125 39.544921875 39 c 0
EndSplineSet
EndChar

StartChar: six
Encoding: 54 54 25
Width: 552
GlyphClass: 2
Flags: MW
HStem: -10 79<189.469 224.899> 338.001 79.999<250.24 333.043> 670 20G<367.839 466.839 466.839 466.839>
LayerCount: 2
Fore
SplineSet
41.9296875 45 m 0
 10.3955078125 81.6669921875 1.70703125 130.666992188 15.8671875 192 c 2
 20.9462890625 214 l 2
 28.4873046875 246.666992188 40.8115234375 277.666992188 57.9169921875 307 c 0
 75.021484375 336.333007812 100.293945312 370 133.734375 408 c 2
 367.838867188 690 l 1
 466.838867188 690 l 1
 223.887695312 400 l 1
 234.452148438 405.336914062 247.620117188 409.669921875 263.388671875 413 c 0
 279.158203125 416.333007812 296.04296875 418 314.04296875 418 c 0
 352.04296875 418 384.081054688 409.5 410.15625 392.5 c 0
 436.231445312 375.5 454.305664062 352 464.379882812 322 c 0
 474.453125 292 475.104492188 258 466.331054688 220 c 2
 460.790039062 196 l 2
 446.168945312 132.666992188 414.419921875 82.5 365.544921875 45.5 c 0
 316.668945312 8.5 258.565429688 -10 191.232421875 -10 c 0
 123.232421875 -10 73.46484375 8.3330078125 41.9296875 45 c 0
313.704101562 102.5 m 0
 342.52734375 124.833007812 361.32421875 155.000976562 370.096679688 193.000976562 c 2
 375.407226562 216.000976562 l 2
 384.025390625 253.333984375 379.041992188 283.000976562 360.454101562 305.000976562 c 0
 341.866210938 327.000976562 311.90625 338.000976562 270.573242188 338.000976562 c 0
 229.90625 338.000976562 195.571289062 327.16796875 167.569335938 305.500976562 c 0
 139.567382812 283.833984375 121.102539062 253.666992188 112.17578125 215 c 2
 106.866210938 192 l 2
 98.0927734375 154 103 124 121.587890625 102 c 0
 140.17578125 80 169.46875 69 209.46875 69 c 0
 250.135742188 69 284.880859375 80.1669921875 313.704101562 102.5 c 0
EndSplineSet
EndChar

StartChar: seven
Encoding: 55 55 26
Width: 489
GlyphClass: 2
Flags: MW
HStem: 0 21G<16.541 108.541 16.541 16.541> 609 81<112.84 420.14 94.1396 529.84 511.14 511.14>
LayerCount: 2
Fore
SplineSet
529.83984375 690 m 1
 511.139648438 609 l 1
 108.541015625 0 l 1
 16.541015625 0 l 1
 420.139648438 609 l 1
 94.1396484375 609 l 1
 112.83984375 690 l 1
 529.83984375 690 l 1
EndSplineSet
EndChar

StartChar: eight
Encoding: 56 56 27
Width: 568
GlyphClass: 2
Flags: MW
HStem: -10 78.999<196.471 232.899> 321.999 79<275.454 296.88> 620.999 79<342.148 363.578>
LayerCount: 2
Fore
SplineSet
48.46875 43 m 0
 15.958984375 78.3330078125 6.630859375 125.999023438 20.4833984375 185.999023438 c 2
 23.9462890625 200.999023438 l 2
 32.7197265625 238.999023438 49.2998046875 271.83203125 73.6865234375 299.499023438 c 0
 98.07421875 327.166015625 129.293945312 348.333007812 167.346679688 363 c 1
 141.604492188 375.666992188 123.658203125 394.666992188 113.506835938 420 c 0
 103.35546875 445.333007812 102.05078125 474.333007812 109.591796875 507 c 2
 112.59375 520 l 2
 120.750976562 555.333007812 136.651367188 586.666015625 160.294921875 613.999023438 c 0
 183.938476562 641.33203125 213.158203125 662.499023438 247.954101562 677.499023438 c 0
 282.75 692.499023438 321.1484375 699.999023438 363.1484375 699.999023438 c 0
 405.1484375 699.999023438 440.25 692.499023438 468.454101562 677.499023438 c 0
 496.658203125 662.499023438 516.271484375 641.33203125 527.293945312 613.999023438 c 0
 538.31640625 586.665039062 539.75 555.33203125 531.592773438 520 c 2
 528.590820312 507 l 2
 521.049804688 474.333007812 506.1875 445.333007812 484.005859375 420 c 0
 461.82421875 394.666992188 435.270507812 375.666992188 404.345703125 363 c 1
 434.959960938 348.333007812 456.03515625 327 467.5703125 299 c 0
 479.106445312 271 480.641601562 238.666992188 472.176757812 202 c 2
 468.713867188 187 l 2
 454.861328125 127 423.318359375 79.1669921875 374.083984375 43.5 c 0
 324.849609375 7.8330078125 266.565429688 -10 199.232421875 -10 c 0
 131.232421875 -10 80.978515625 7.6669921875 48.46875 43 c 0
389.083984375 428.999023438 m 0
 414.393554688 447.666015625 430.741210938 472.999023438 438.12890625 504.999023438 c 2
 441.591796875 519.999023438 l 2
 448.826171875 551.33203125 443.853515625 575.999023438 426.676757812 593.999023438 c 0
 409.499023438 611.999023438 382.244140625 620.999023438 344.911132812 620.999023438 c 0
 308.244140625 620.999023438 277.166015625 611.999023438 251.677734375 593.999023438 c 0
 226.188476562 575.999023438 209.827148438 551.33203125 202.592773438 519.999023438 c 2
 199.129882812 504.999023438 l 2
 191.7421875 472.999023438 196.393554688 447.666015625 213.083984375 428.999023438 c 0
 229.774414062 410.33203125 256.787109375 400.999023438 294.120117188 400.999023438 c 0
 332.120117188 400.999023438 363.774414062 410.33203125 389.083984375 428.999023438 c 0
323.243164062 100.499023438 m 0
 351.7578125 121.499023438 370.325195312 150.666015625 378.944335938 187.999023438 c 2
 382.637695312 203.999023438 l 2
 391.103515625 240.666015625 385.926757812 269.499023438 367.108398438 290.499023438 c 0
 348.2890625 311.499023438 317.879882812 321.999023438 275.879882812 321.999023438 c 0
 233.879882812 321.999023438 198.623046875 311.499023438 170.108398438 290.499023438 c 0
 141.592773438 269.499023438 123.103515625 240.666015625 114.637695312 203.999023438 c 2
 110.944335938 187.999023438 l 2
 102.325195312 150.666015625 107.423828125 121.499023438 126.243164062 100.499023438 c 0
 145.061523438 79.4990234375 175.470703125 68.9990234375 217.470703125 68.9990234375 c 0
 259.470703125 68.9990234375 294.727539062 79.4990234375 323.243164062 100.499023438 c 0
EndSplineSet
EndChar

StartChar: nine
Encoding: 57 57 28
Width: 552
GlyphClass: 2
Flags: MW
HStem: 0 21G<80.541 178.541 80.541 80.541> 272 80<213.338 296.141> 621 79<321.482 357.245>
LayerCount: 2
Fore
SplineSet
323.493164062 290 m 1
 299.389648438 278 269.004882812 272 232.337890625 272 c 0
 194.337890625 272 162.30078125 280.5 136.225585938 297.5 c 0
 110.150390625 314.5 92.0751953125 338 82.001953125 368 c 0
 71.927734375 398 71.27734375 432 80.0498046875 470 c 2
 85.5908203125 494 l 2
 100.212890625 557.333007812 131.961914062 607.5 180.836914062 644.5 c 0
 229.711914062 681.5 287.815429688 700 355.1484375 700 c 0
 423.1484375 700 472.916015625 681.666992188 504.451171875 645 c 0
 535.985351562 608.333007812 544.672851562 559.333007812 530.513671875 498 c 2
 525.434570312 476 l 2
 517.892578125 443.333007812 505.568359375 412.333007812 488.463867188 383 c 0
 471.358398438 353.666992188 446.418945312 320 413.645507812 282 c 2
 178.541015625 0 l 1
 80.541015625 0 l 1
 323.493164062 290 l 1
379.310546875 384.5 m 0
 407.646484375 406.166992188 426.278320312 436.333007812 435.205078125 475 c 2
 440.515625 498 l 2
 449.288085938 536 444.381835938 566 425.793945312 588 c 0
 407.206054688 610 377.578125 621 336.912109375 621 c 0
 296.245117188 621 261.5 609.833007812 232.676757812 587.5 c 0
 203.854492188 565.166992188 185.056640625 535 176.283203125 497 c 2
 170.973632812 474 l 2
 162.354492188 436.666992188 167.504882812 407 186.42578125 385 c 0
 205.346679688 363 235.140625 352 275.807617188 352 c 0
 316.474609375 352 350.975585938 362.833007812 379.310546875 384.5 c 0
EndSplineSet
EndChar

StartChar: colon
Encoding: 58 58 29
Width: 198
GlyphClass: 2
Flags: MW
HStem: 49 107<0.556641 77.8535 -24.1465 102.557> 289 107<55.9648 133.262 31.2617 157.965>
VStem: -24.1465 182.111
LayerCount: 2
Fore
SplineSet
55.96484375 396 m 1
 157.96484375 396 l 1
 133.26171875 289 l 1
 31.26171875 289 l 1
 55.96484375 396 l 1
0.556640625 156 m 1
 102.556640625 156 l 1
 77.853515625 49 l 1
 -24.146484375 49 l 1
 0.556640625 156 l 1
EndSplineSet
EndChar

StartChar: semicolon
Encoding: 59 59 30
Width: 198
GlyphClass: 2
Flags: MW
HStem: 338 107<67.2773 144.574 42.5742 169.277>
VStem: -48.9346 218.212
LayerCount: 2
Fore
SplineSet
67.27734375 445 m 1
 169.27734375 445 l 1
 144.57421875 338 l 1
 42.57421875 338 l 1
 67.27734375 445 l 1
9.244140625 107 m 1
 91.244140625 107 l 1
 49.9189453125 -72 l 1
 -48.9345703125 -145 l 1
 9.244140625 107 l 1
EndSplineSet
EndChar

StartChar: less
Encoding: 60 60 31
Width: 509
GlyphClass: 2
Flags: W
LayerCount: 2
Fore
SplineSet
24.94921875 240 m 1
 41.572265625 312 l 1
 480.97265625 474 l 1
 461.580078125 390 l 1
 143.260742188 276 l 1
 408.7109375 161 l 1
 389.318359375 77 l 1
 24.94921875 240 l 1
EndSplineSet
Substitution2: "'rtla' Right to Left Alternates lookup 0 subtable" greater
EndChar

StartChar: equal
Encoding: 61 61 32
Width: 509
GlyphClass: 2
Flags: MW
HStem: 152 80<23.1025 406.633 4.63281 425.103> 319 81<61.8887 445.188 43.1885 463.889>
LayerCount: 2
Fore
SplineSet
61.888671875 400 m 1
 463.888671875 400 l 1
 445.188476562 319 l 1
 43.1884765625 319 l 1
 61.888671875 400 l 1
23.1025390625 232 m 1
 425.102539062 232 l 1
 406.6328125 152 l 1
 4.6328125 152 l 1
 23.1025390625 232 l 1
EndSplineSet
EndChar

StartChar: greater
Encoding: 62 62 33
Width: 509
GlyphClass: 2
Flags: W
LayerCount: 2
Fore
SplineSet
6.7109375 161 m 1
 325.260742188 276 l 1
 59.580078125 390 l 1
 78.97265625 474 l 1
 443.572265625 312 l 1
 426.94921875 240 l 1
 -12.681640625 77 l 1
 6.7109375 161 l 1
EndSplineSet
Substitution2: "'rtla' Right to Left Alternates lookup 0 subtable" less
EndChar

StartChar: question
Encoding: 63 63 34
Width: 485
GlyphClass: 2
Flags: MW
HStem: -0.000976562 103<125.32 202.541 101.541 226.32> 514 21G<69.207 156.207 69.207 69.207> 620 80<283.815 315.68>
VStem: 69.207 87<514 514>
LayerCount: 2
Fore
SplineSet
163.487304688 238 m 2
 170.567382812 268.666992188 179.646484375 292.833007812 190.725585938 310.5 c 0
 201.8046875 328.166992188 219.985351562 347 245.26953125 367 c 2
 316.428710938 424 l 2
 339.918945312 442 357.061523438 458.5 367.857421875 473.5 c 0
 378.653320312 488.5 386.4375 506.333007812 391.208984375 527 c 0
 398.134765625 557 393.611328125 580 377.638671875 596 c 0
 361.665039062 612 334.6796875 620 296.6796875 620 c 0
 219.346679688 620 172.522460938 584.666992188 156.20703125 514 c 1
 69.20703125 514 l 1
 84.392578125 574 113.1796875 620 155.567382812 652 c 0
 197.955078125 684 251.481445312 700 316.1484375 700 c 0
 380.1484375 700 426.814453125 684.833007812 456.14453125 654.5 c 0
 485.474609375 624.166992188 494.060546875 582.666992188 481.901367188 530 c 0
 475.590820312 502.666992188 464.986328125 477.666992188 450.0859375 455 c 0
 435.185546875 432.333007812 414.86328125 410 389.118164062 388 c 2
 305.418945312 320 l 2
 288.186523438 306 275.890625 293.166992188 268.530273438 281.5 c 0
 261.169921875 269.833007812 255.181640625 254 250.564453125 234 c 2
 238.790039062 183 l 1
 150.790039062 183 l 1
 163.487304688 238 l 2
125.3203125 102.999023438 m 1
 226.3203125 102.999023438 l 1
 202.541015625 -0.0009765625 l 1
 101.541015625 -0.0009765625 l 1
 125.3203125 102.999023438 l 1
EndSplineSet
EndChar

StartChar: at
Encoding: 64 64 35
Width: 857
GlyphClass: 2
Flags: MW
HStem: -130 75.001<301.845 338.528> -24 20G<552.618 552.618> 56.0039 66.998<586.941 602.474> 432.005 68.999<413.281 446.543 409.876 455.281> 618.001 75.0029<467.87 517.22>
LayerCount: 2
Fore
SplineSet
129.37890625 -83 m 0
 79.9453125 -51.6669921875 45.94140625 -7.6630859375 27.357421875 49.00390625 c 0
 8.7734375 105.670898438 8.0234375 171.00390625 25.107421875 245.00390625 c 2
 42.6533203125 321.00390625 l 2
 59.583984375 394.337890625 90.384765625 459.170898438 135.057617188 515.50390625 c 0
 179.729492188 571.836914062 234.14453125 615.50390625 298.30078125 646.50390625 c 0
 362.458007812 677.50390625 431.203125 693.00390625 504.536132812 693.00390625 c 0
 577.203125 693.00390625 638.586914062 677.336914062 688.685546875 646.00390625 c 0
 738.78515625 614.670898438 773.409179688 571.170898438 792.557617188 515.50390625 c 0
 811.706054688 459.836914062 812.96875 396.00390625 796.345703125 324.00390625 c 2
 779.03125 249.00390625 l 2
 764.255859375 185.00390625 738.802734375 136.836914062 702.670898438 104.50390625 c 0
 666.5390625 72.1708984375 625.473632812 56.00390625 579.473632812 56.00390625 c 0
 551.473632812 56.00390625 528.69140625 62.00390625 511.12890625 74.00390625 c 0
 493.56640625 86.00390625 482.32421875 103.00390625 477.403320312 125.00390625 c 1
 446.116210938 79.00390625 398.806640625 56.00390625 335.473632812 56.00390625 c 0
 285.473632812 56.00390625 252.051757812 71.50390625 235.208984375 102.50390625 c 0
 218.366210938 133.50390625 216.485351562 177.336914062 229.568359375 234.00390625 c 2
 249.884765625 322.00390625 l 2
 262.966796875 378.670898438 284.791992188 422.670898438 315.359375 454.00390625 c 0
 345.92578125 485.336914062 385.54296875 501.00390625 434.209960938 501.00390625 c 0
 458.876953125 501.00390625 479.260742188 496.170898438 495.362304688 486.50390625 c 0
 511.462890625 476.8359375 522.923828125 463.668945312 529.743164062 447.002929688 c 1
 539.901367188 491.002929688 l 1
 618.901367188 491.002929688 l 1
 552.1796875 202.002929688 l 2
 546.177734375 176.002929688 547.469726562 156.3359375 556.05859375 143.002929688 c 0
 564.647460938 129.668945312 577.94140625 123.001953125 595.94140625 123.001953125 c 0
 619.274414062 123.001953125 639.172851562 132.668945312 655.63671875 152.001953125 c 0
 672.099609375 171.334960938 685.411132812 203.001953125 695.569335938 247.001953125 c 2
 713.115234375 323.001953125 l 2
 726.813476562 382.3359375 726.946289062 434.168945312 713.514648438 478.501953125 c 0
 700.083007812 522.834960938 674.009765625 557.16796875 635.293945312 581.500976562 c 0
 596.578125 605.833984375 547.219726562 618.000976562 487.219726562 618.000976562 c 0
 427.219726562 618.000976562 372.44921875 606.000976562 322.908203125 582.000976562 c 0
 273.3671875 558.000976562 231.608398438 523.66796875 197.62890625 479.000976562 c 0
 163.649414062 434.333984375 139.735351562 382.000976562 125.8828125 322.000976562 c 2
 108.10546875 245.000976562 l 2
 94.25390625 185.000976562 93.7998046875 132.500976562 106.744140625 87.5009765625 c 0
 119.688476562 42.5009765625 145.440429688 7.5009765625 184.001953125 -17.4990234375 c 0
 222.563476562 -42.4990234375 271.844726562 -54.9990234375 331.844726562 -54.9990234375 c 0
 373.844726562 -54.9990234375 412.139648438 -50.83203125 446.73046875 -42.4990234375 c 0
 481.321289062 -34.166015625 516.6171875 -21.3330078125 552.618164062 -4 c 1
 568.612304688 -69 l 1
 527.01953125 -90.3330078125 486.274414062 -105.833007812 446.375976562 -115.5 c 0
 406.4765625 -125.166992188 362.528320312 -130 314.528320312 -130 c 0
 240.528320312 -130 178.8125 -114.333007812 129.37890625 -83 c 0
478.799804688 235.00390625 m 2
 499.116210938 323.004882812 l 2
 507.120117188 357.671875 506.481445312 384.504882812 497.201171875 403.504882812 c 0
 487.920898438 422.504882812 469.28125 432.004882812 441.28125 432.004882812 c 0
 385.28125 432.004882812 348.739257812 395.004882812 331.654296875 321.004882812 c 2
 312.723632812 239.004882812 l 2
 304.258789062 202.337890625 304.255859375 174.170898438 312.71484375 154.50390625 c 0
 321.174804688 134.836914062 340.404296875 125.00390625 370.404296875 125.00390625 c 0
 425.737304688 125.00390625 461.869140625 161.670898438 478.799804688 235.00390625 c 2
EndSplineSet
EndChar

StartChar: A
Encoding: 65 65 36
Width: 666
GlyphClass: 2
Flags: MW
HStem: 0 21G<-77.459 17.541 -77.459 -77.459 480.541 480.541 480.541 576.541> 156 77<164.333 440.333 164.333 453.557 115.557 440.333> 670 20G<369.84 446.84 446.84 446.84>
LayerCount: 2
Fore
SplineSet
453.556640625 156 m 1
 115.556640625 156 l 1
 17.541015625 0 l 1
 -77.458984375 0 l 1
 369.83984375 690 l 1
 446.83984375 690 l 1
 576.541015625 0 l 1
 480.541015625 0 l 1
 453.556640625 156 l 1
440.333007812 233 m 1
 381.982421875 578 l 1
 164.333007812 233 l 1
 440.333007812 233 l 1
EndSplineSet
EndChar

StartChar: B
Encoding: 66 66 37
Width: 671
GlyphClass: 2
Flags: MW
HStem: 0 80<98.0088 297.541> 313 80<170.271 365.801 151.801 382.271> 610.001 79.999<220.37 220.37 220.37 434.37>
LayerCount: 2
Fore
SplineSet
567.493164062 296.5 m 0
 580.7734375 268.833007812 582.563476562 234.000976562 572.8671875 192.000976562 c 0
 558.399414062 129.333984375 527.727539062 81.6669921875 480.852539062 49 c 0
 433.977539062 16.3330078125 372.874023438 0 297.541015625 0 c 2
 -11.458984375 0 l 1
 147.83984375 690 l 1
 450.83984375 690 l 2
 524.173828125 690 576.389648438 674.333007812 607.489257812 643 c 0
 638.588867188 611.666992188 647.135742188 565.666992188 633.129882812 505 c 0
 624.97265625 469.666992188 608.892578125 439 584.889648438 413 c 0
 560.88671875 387 530.833984375 368 494.73046875 356 c 1
 529.959960938 344 554.213867188 324.166992188 567.493164062 296.5 c 0
220.370117188 610.000976562 m 1
 170.271484375 393 l 1
 382.271484375 393 l 2
 427.60546875 393 463.477539062 401.833007812 489.889648438 419.5 c 0
 516.30078125 437.166992188 533.740234375 464.333984375 542.205078125 501.000976562 c 0
 550.670898438 537.66796875 545.98046875 565.000976562 528.13671875 583.000976562 c 0
 510.291992188 601.000976562 479.037109375 610.000976562 434.370117188 610.000976562 c 2
 220.370117188 610.000976562 l 1
428.705078125 109 m 0
 455.834960938 128.333007812 474.016601562 158 483.250976562 198 c 0
 500.951171875 274.666992188 461.80078125 313 365.80078125 313 c 2
 151.80078125 313 l 1
 98.0087890625 80 l 1
 318.008789062 80 l 2
 364.67578125 80 401.57421875 89.6669921875 428.705078125 109 c 0
EndSplineSet
EndChar

StartChar: C
Encoding: 67 67 38
Width: 680
GlyphClass: 2
Flags: MW
HStem: -9 82<251.727 306.129> 618 82<383.814 438.883>
LayerCount: 2
Fore
SplineSet
68.625 67.5 m 0
 30.0654296875 118.5 22.404296875 194.333007812 45.6455078125 295 c 2
 68.962890625 396 l 2
 92.2041015625 496.666992188 135.043945312 572.5 197.485351562 623.5 c 0
 259.926757812 674.5 337.48046875 700 430.147460938 700 c 0
 513.48046875 700 574.684570312 680.666992188 613.7578125 642 c 0
 652.830078125 603.333007812 664.36328125 549.333007812 648.356445312 480 c 2
 647.202148438 475 l 1
 556.202148438 475 l 1
 557.125976562 479 l 2
 567.438476562 523.666992188 559.864257812 558 534.405273438 582 c 0
 508.946289062 606 467.549804688 618 410.216796875 618 c 0
 342.883789062 618 288.651367188 599.666992188 247.518554688 563 c 0
 206.38671875 526.333007812 176.817382812 469 158.809570312 391 c 2
 136.415039062 294 l 2
 119.0234375 218.666992188 122.671875 163 147.360351562 127 c 0
 172.048828125 91 218.060546875 73 285.393554688 73 c 0
 342.7265625 73 389.497070312 85 425.705078125 109 c 0
 461.912109375 133 485.249023438 167.666992188 495.71484375 213 c 2
 496.638671875 217 l 1
 586.638671875 217 l 1
 585.484375 212 l 2
 569.477539062 142.666992188 532.8046875 88.5 475.467773438 49.5 c 0
 418.130859375 10.5 347.795898438 -9 264.462890625 -9 c 0
 172.462890625 -9 107.18359375 16.5 68.625 67.5 c 0
EndSplineSet
EndChar

StartChar: D
Encoding: 68 68 39
Width: 674
GlyphClass: 2
Flags: MW
HStem: 0 80.999<98.2412 241.541> 608.999 81.001<147.84 384.14 147.84 220.14>
LayerCount: 2
Fore
SplineSet
147.83984375 690 m 1
 402.83984375 689.999023438 l 2
 494.83984375 689.999023438 560.068359375 664.999023438 598.524414062 614.999023438 c 0
 636.981445312 564.999023438 644.743164062 490.33203125 621.810546875 390.999023438 c 2
 600.80078125 299.999023438 l 2
 577.868164062 200.666015625 535.424804688 125.833007812 473.471679688 75.5 c 0
 411.518554688 25.1669921875 334.208007812 0 241.541015625 0 c 2
 -11.458984375 0 l 1
 147.83984375 690 l 1
262.241210938 80.9990234375 m 2
 328.908203125 80.9990234375 382.487304688 98.666015625 422.977539062 133.999023438 c 0
 463.467773438 169.33203125 492.254882812 223.999023438 509.33984375 297.999023438 c 2
 529.65625 385.999023438 l 2
 547.202148438 461.999023438 544.001953125 518.166015625 520.057617188 554.499023438 c 0
 496.112304688 590.83203125 450.806640625 608.999023438 384.139648438 608.999023438 c 2
 220.139648438 608.999023438 l 1
 98.2412109375 80.9990234375 l 1
 262.241210938 80.9990234375 l 2
EndSplineSet
EndChar

StartChar: E
Encoding: 69 69 40
Width: 597
GlyphClass: 2
Flags: MW
HStem: 0 81<98.2412 470.541> 310 81<169.811 486.11 151.11 504.811> 609 81<220.14 220.14 220.14 611.14>
LayerCount: 2
Fore
SplineSet
220.139648438 609 m 1
 169.810546875 391 l 1
 504.810546875 391 l 1
 486.110351562 310 l 1
 151.110351562 310 l 1
 98.2412109375 81 l 1
 489.241210938 81 l 1
 470.541015625 0 l 1
 -11.458984375 0 l 1
 147.83984375 690 l 1
 629.83984375 690 l 1
 611.139648438 609 l 1
 220.139648438 609 l 1
EndSplineSet
EndChar

StartChar: F
Encoding: 70 70 41
Width: 590
GlyphClass: 2
Flags: MW
HStem: 0 21G<-11.459 79.541 -11.459 -11.459> 307 81<169.118 486.418 150.418 505.118> 609 81<220.14 220.14 220.14 611.14>
LayerCount: 2
Fore
SplineSet
220.139648438 609 m 1
 169.118164062 388 l 1
 505.118164062 388 l 1
 486.41796875 307 l 1
 150.41796875 307 l 1
 79.541015625 0 l 1
 -11.458984375 0 l 1
 147.83984375 690 l 1
 629.83984375 690 l 1
 611.139648438 609 l 1
 220.139648438 609 l 1
EndSplineSet
EndChar

StartChar: G
Encoding: 71 71 42
Width: 680
GlyphClass: 2
Flags: MW
HStem: -9 82<251.728 307.463> 283 77<339.653 512.877 321.877 620.653> 618 81.999<382.815 438.551>
LayerCount: 2
Fore
SplineSet
68.625 67.5 m 0
 30.0654296875 118.5 22.40625 194.33203125 45.646484375 294.999023438 c 2
 68.96484375 395.999023438 l 2
 92.205078125 496.666015625 134.879882812 572.499023438 196.987304688 623.499023438 c 0
 259.094726562 674.499023438 336.481445312 699.999023438 429.1484375 699.999023438 c 0
 511.815429688 699.999023438 572.775390625 680.33203125 612.02734375 640.999023438 c 0
 651.279296875 601.665039062 663.133789062 548.33203125 647.588867188 480.999023438 c 2
 646.43359375 475.999023438 l 1
 556.43359375 475.999023438 l 1
 557.357421875 479.999023438 l 2
 567.208007812 522.666992188 559.313476562 556.333984375 533.67578125 581 c 0
 508.037109375 605.666992188 466.884765625 618 410.217773438 618 c 0
 342.884765625 618 288.65234375 599.666992188 247.51953125 563 c 0
 206.387695312 526.333007812 176.818359375 469 158.810546875 391 c 2
 136.416015625 294 l 2
 119.024414062 218.666992188 122.672851562 163 147.361328125 127 c 0
 172.049804688 91 218.061523438 73 285.39453125 73 c 0
 404.727539062 73 477.400390625 129.333007812 503.411132812 242 c 2
 512.876953125 283 l 1
 321.876953125 283 l 1
 339.653320312 360 l 1
 620.653320312 360 l 1
 594.795898438 248 l 2
 575.403320312 164 536.666015625 100.166992188 478.584960938 56.5 c 0
 420.50390625 12.8330078125 349.462890625 -9 265.462890625 -9 c 0
 172.795898438 -9 107.18359375 16.5 68.625 67.5 c 0
EndSplineSet
EndChar

StartChar: H
Encoding: 72 72 43
Width: 685
GlyphClass: 2
Flags: MW
HStem: 0 21G<-11.459 79.541 -11.459 -11.459 439.541 529.541 439.541 439.541> 312 80<170.041 511.572 151.572 530.041> 670 20G<147.84 238.84 238.84 238.84 598.84 688.84 688.84 688.84>
LayerCount: 2
Fore
SplineSet
688.83984375 690 m 1
 529.541015625 0 l 1
 439.541015625 0 l 1
 511.572265625 312 l 1
 151.572265625 312 l 1
 79.541015625 0 l 1
 -11.458984375 0 l 1
 147.83984375 690 l 1
 238.83984375 690 l 1
 170.041015625 392 l 1
 530.041015625 392 l 1
 598.83984375 690 l 1
 688.83984375 690 l 1
EndSplineSet
EndChar

StartChar: I
Encoding: 73 73 44
Width: 249
GlyphClass: 2
Flags: MW
HStem: 0 21G<-4.45898 86.541 -4.45898 -4.45898> 670 20G<154.84 245.84 245.84 245.84>
VStem: -4.45898 250.299
LayerCount: 2
Fore
SplineSet
154.83984375 690 m 1
 245.83984375 690 l 1
 86.541015625 0 l 1
 -4.458984375 0 l 1
 154.83984375 690 l 1
EndSplineSet
EndChar

StartChar: J
Encoding: 74 74 45
Width: 345
GlyphClass: 2
Flags: MW
HStem: 0 81<-35.7588 25.541 -54.459 26.2402> 670 20G<250.84 341.84 341.84 341.84>
LayerCount: 2
Fore
SplineSet
-35.7587890625 81 m 1
 26.240234375 81 l 2
 56.9072265625 81 80.0751953125 87.5 95.7431640625 100.5 c 0
 111.411132812 113.5 122.862304688 135.666992188 130.095703125 167 c 2
 250.83984375 690 l 1
 341.83984375 690 l 1
 218.325195312 155 l 2
 206.3203125 103 184.35546875 64.1669921875 152.4296875 38.5 c 0
 120.50390625 12.8330078125 78.2080078125 0 25.541015625 0 c 2
 -54.458984375 0 l 1
 -35.7587890625 81 l 1
EndSplineSet
EndChar

StartChar: K
Encoding: 75 75 46
Width: 671
GlyphClass: 2
Flags: MW
HStem: 0 21G<-11.459 79.541 -11.459 -11.459 471.541 471.541 471.541 580.541> 670 20G<147.84 238.84 238.84 238.84 593.84 707.84 707.84 707.84>
LayerCount: 2
Fore
SplineSet
317.499023438 355 m 1
 123.174804688 189 l 1
 79.541015625 0 l 1
 -11.458984375 0 l 1
 147.83984375 690 l 1
 238.83984375 690 l 1
 149.724609375 304 l 1
 593.83984375 690 l 1
 707.83984375 690 l 1
 392.274414062 419 l 1
 580.541015625 0 l 1
 471.541015625 0 l 1
 317.499023438 355 l 1
EndSplineSet
EndChar

StartChar: L
Encoding: 76 76 47
Width: 579
GlyphClass: 2
Flags: MW
HStem: 0 81<98.2412 466.541> 670 20G<147.84 238.84 238.84 238.84>
LayerCount: 2
Fore
SplineSet
147.83984375 690 m 1
 238.83984375 690 l 1
 98.2412109375 81 l 1
 485.241210938 81 l 1
 466.541015625 0 l 1
 -11.458984375 0 l 1
 147.83984375 690 l 1
EndSplineSet
EndChar

StartChar: M
Encoding: 77 77 48
Width: 827
GlyphClass: 2
Flags: MW
HStem: 0 21G<-11.459 79.541 -11.459 -11.459 581.541 671.541 581.541 581.541> 670 20G<147.84 238.84 238.84 238.84 740.84 830.84 830.84 830.84>
LayerCount: 2
Fore
SplineSet
830.83984375 690 m 1
 671.541015625 0 l 1
 581.541015625 0 l 1
 702.0546875 522 l 1
 394.169921875 137 l 1
 330.169921875 137 l 1
 200.0546875 522 l 1
 79.541015625 0 l 1
 -11.458984375 0 l 1
 147.83984375 690 l 1
 238.83984375 690 l 1
 386.411132812 242 l 1
 740.83984375 690 l 1
 830.83984375 690 l 1
EndSplineSet
EndChar

StartChar: N
Encoding: 78 78 49
Width: 721
GlyphClass: 2
Flags: MW
HStem: 0 21G<-11.459 79.541 -11.459 -11.459 474.541 565.541 474.541 474.541> 670 20G<147.84 238.84 238.84 238.84 633.84 724.84 724.84 724.84>
LayerCount: 2
Fore
SplineSet
724.83984375 690 m 1
 565.541015625 0 l 1
 474.541015625 0 l 1
 202.82421875 534 l 1
 79.541015625 0 l 1
 -11.458984375 0 l 1
 147.83984375 690 l 1
 238.83984375 690 l 1
 510.325195312 155 l 1
 633.83984375 690 l 1
 724.83984375 690 l 1
EndSplineSet
EndChar

StartChar: O
Encoding: 79 79 50
Width: 695
GlyphClass: 2
Flags: MW
HStem: -9 82<249.061 307.463> 618 82<382.148 441.218>
LayerCount: 2
Fore
SplineSet
67.625 67.5 m 0
 29.7314453125 118.5 22.40625 194.333007812 45.6474609375 295 c 2
 68.96484375 396 l 2
 92.2060546875 496.666992188 134.879882812 572.5 196.987304688 623.5 c 0
 259.094726562 674.5 336.1484375 700 428.1484375 700 c 0
 519.481445312 700 584.094726562 674.5 621.987304688 623.5 c 0
 659.879882812 572.5 667.206054688 496.666992188 643.96484375 396 c 2
 620.647460938 295 l 2
 597.40625 194.333007812 554.731445312 118.5 492.625 67.5 c 0
 430.517578125 16.5 353.462890625 -9 261.462890625 -9 c 0
 170.129882812 -9 105.517578125 16.5 67.625 67.5 c 0
442.861328125 127 m 0
 483.83984375 163 513.024414062 218.66796875 530.416992188 294.000976562 c 2
 552.810546875 391.000976562 l 2
 570.818359375 469.000976562 567.721679688 526.333984375 543.51953125 563 c 0
 519.318359375 599.666992188 474.217773438 618 408.217773438 618 c 0
 341.55078125 618 287.818359375 599.666992188 247.01953125 563 c 0
 206.221679688 526.333007812 176.818359375 469 158.810546875 391 c 2
 136.416015625 294 l 2
 119.024414062 218.666992188 122.33984375 163 146.361328125 127 c 0
 170.3828125 91 215.727539062 73 282.39453125 73 c 0
 348.39453125 73 401.8828125 91 442.861328125 127 c 0
EndSplineSet
EndChar

StartChar: P
Encoding: 80 80 51
Width: 637
GlyphClass: 2
Flags: MW
HStem: 0 21G<-11.46 79.54 -11.46 -11.46> 277 81<162.189 351.49 143.49 372.189> 609 81<220.138 424.138 220.138 220.138>
LayerCount: 2
Fore
SplineSet
610.719726562 637.5 m 0
 643.305664062 602.5 651.747070312 551 636.048828125 483 c 0
 620.657226562 416.333007812 588.715820312 365.333007812 540.225585938 330 c 0
 491.735351562 294.666992188 428.823242188 277 351.490234375 277 c 2
 143.490234375 277 l 1
 79.5400390625 0 l 1
 -11.4599609375 0 l 1
 147.838867188 690 l 1
 446.838867188 690 l 2
 523.505859375 690 578.1328125 672.5 610.719726562 637.5 c 0
488.000976562 387.5 m 0
 515.874023438 407.166992188 534.813476562 438.666992188 544.817382812 482 c 0
 555.283203125 527.333007812 550.787109375 559.833007812 531.327148438 579.5 c 0
 511.868164062 599.166992188 476.137695312 609 424.137695312 609 c 2
 220.137695312 609 l 1
 162.189453125 358 l 1
 372.189453125 358 l 2
 421.5234375 358 460.126953125 367.833007812 488.000976562 387.5 c 0
EndSplineSet
EndChar

StartChar: Q
Encoding: 81 81 52
Width: 695
GlyphClass: 2
Flags: MW
HStem: -9 82<249.061 280.463> 618 82<382.148 441.218>
LayerCount: 2
Fore
SplineSet
448.083007812 37 m 1
 493.453125 -113 l 1
 413.6796875 -151 l 1
 366.46484375 4 l 1
 334.463867188 -4.6669921875 299.462890625 -9 261.462890625 -9 c 0
 170.129882812 -9 105.517578125 16.5 67.625 67.5 c 0
 29.7314453125 118.5 22.40625 194.333007812 45.6474609375 295 c 2
 68.96484375 396 l 2
 92.2060546875 496.666992188 134.879882812 572.5 196.987304688 623.5 c 0
 259.094726562 674.5 336.1484375 700 428.1484375 700 c 0
 519.481445312 700 584.094726562 674.5 621.987304688 623.5 c 0
 659.879882812 572.5 667.206054688 496.666992188 643.96484375 396 c 2
 620.647460938 295 l 2
 592.327148438 172.333007812 534.805664062 86.3330078125 448.083007812 37 c 1
552.810546875 391 m 2
 570.818359375 469 567.721679688 526.333984375 543.51953125 563 c 0
 519.318359375 599.666992188 474.217773438 618 408.217773438 618 c 0
 341.55078125 618 287.818359375 599.666992188 247.01953125 563 c 0
 206.221679688 526.333007812 176.818359375 469 158.810546875 391 c 2
 136.416015625 294 l 2
 119.024414062 218.666992188 122.33984375 163 146.361328125 127 c 0
 170.3828125 91 215.727539062 73 282.39453125 73 c 0
 348.39453125 73 401.8828125 91 442.861328125 127 c 0
 483.83984375 163 513.024414062 218.666992188 530.416015625 294 c 2
 552.810546875 391 l 2
EndSplineSet
EndChar

StartChar: R
Encoding: 82 82 53
Width: 665
GlyphClass: 2
Flags: MW
HStem: 0 21G<440.541 544.541 440.541 440.541> 293.999 79<147.416 377.654> 608.999 81<220.14 426.14 220.14 220.14>
LayerCount: 2
Fore
SplineSet
347.416015625 294 m 1
 147.416015625 293.999023438 l 1
 79.541015625 -0.0009765625 l 1
 -11.458984375 -0.0009765625 l 1
 147.83984375 689.999023438 l 1
 448.83984375 689.999023438 l 2
 524.83984375 689.999023438 579.08203125 672.999023438 611.565429688 638.999023438 c 0
 644.048828125 604.999023438 652.903320312 555.999023438 638.127929688 491.999023438 c 0
 626.584960938 441.999023438 604.247070312 400.83203125 571.116210938 368.499023438 c 0
 537.984375 336.166015625 495.443359375 314.333007812 443.494140625 303 c 1
 544.541015625 0 l 1
 440.541015625 0 l 1
 347.416015625 294 l 1
165.654296875 372.999023438 m 1
 377.654296875 372.999023438 l 2
 426.321289062 372.999023438 464.38671875 382.666015625 491.849609375 401.999023438 c 0
 519.313476562 421.33203125 537.739257812 451.33203125 547.127929688 491.999023438 c 0
 556.362304688 531.999023438 551.005859375 561.499023438 531.059570312 580.499023438 c 0
 511.11328125 599.499023438 476.139648438 608.999023438 426.139648438 608.999023438 c 2
 220.139648438 608.999023438 l 1
 165.654296875 372.999023438 l 1
EndSplineSet
EndChar

StartChar: S
Encoding: 83 83 54
Width: 611
GlyphClass: 2
Flags: MW
HStem: -6 77.998<206.494 255.823> 622 77<339.582 388.141>
VStem: -6.51855 88<198.998 198.998> 501.667 88<503 503>
LayerCount: 2
Fore
SplineSet
33.1611328125 46 m 0
 -4.1689453125 80.6669921875 -17.396484375 131.665039062 -6.5185546875 198.998046875 c 1
 81.4814453125 198.998046875 l 1
 75.1689453125 154.331054688 84.87109375 121.998046875 110.586914062 101.998046875 c 0
 136.302734375 81.998046875 177.827148438 71.998046875 235.16015625 71.998046875 c 0
 353.827148438 71.998046875 422.318359375 111.665039062 440.633789062 190.998046875 c 0
 448.63671875 225.665039062 443.4609375 252.33203125 425.103515625 270.999023438 c 0
 406.74609375 289.666015625 374.516601562 301.666015625 328.4140625 306.999023438 c 2
 237.954101562 317.999023438 l 2
 107.801757812 334.666015625 55.0390625 396.333007812 79.6650390625 503 c 0
 93.978515625 565 127.765625 613.166992188 181.025390625 647.5 c 0
 234.284179688 681.833007812 300.248046875 699 378.915039062 699 c 0
 455.58203125 699 511.939453125 682.5 547.98828125 649.5 c 0
 584.038085938 616.5 597.931640625 567.666992188 589.666992188 503 c 1
 501.666992188 503 l 1
 507.568359375 543 499.123046875 572.833007812 476.330078125 592.5 c 0
 453.538085938 612.166992188 415.140625 622 361.140625 622 c 0
 306.473632812 622 262.909179688 612.333007812 230.446289062 593 c 0
 197.982421875 573.666992188 177.518554688 545.666992188 169.052734375 509 c 0
 161.665039062 477 166.7265625 452 184.23828125 434 c 0
 201.749023438 416 232.811523438 404 277.426757812 398 c 2
 371.88671875 387 l 2
 503.731445312 369 557.109375 305.666992188 532.022460938 197 c 0
 517.092773438 132.333007812 481.548828125 82.3330078125 425.391601562 47 c 0
 369.234375 11.6669921875 298.489257812 -6 213.15625 -6 c 0
 130.489257812 -6 70.490234375 11.3330078125 33.1611328125 46 c 0
EndSplineSet
EndChar

StartChar: T
Encoding: 84 84 55
Width: 550
GlyphClass: 2
Flags: MW
HStem: 0 21G<146.541 236.541 146.541 146.541> 609 81<82.8398 287.14 64.1396 618.84 377.14 600.14 377.14 377.14>
LayerCount: 2
Fore
SplineSet
600.139648438 609 m 1
 377.139648438 609 l 1
 236.541015625 0 l 1
 146.541015625 0 l 1
 287.139648438 609 l 1
 64.1396484375 609 l 1
 82.83984375 690 l 1
 618.83984375 690 l 1
 600.139648438 609 l 1
EndSplineSet
EndChar

StartChar: U
Encoding: 85 85 56
Width: 692
GlyphClass: 2
Flags: MW
HStem: -6 80<218.625 304.156> 670 20G<147.84 238.84 238.84 238.84 604.84 695.84 695.84 695.84>
LayerCount: 2
Fore
SplineSet
75.0087890625 60.5 m 0
 36.91015625 104.833007812 27.095703125 167 45.5654296875 247 c 2
 147.83984375 690 l 1
 238.83984375 690 l 1
 137.951171875 253 l 2
 110.400390625 133.666992188 157.625 74 279.625 74 c 0
 401.625 74 476.400390625 133.666992188 503.951171875 253 c 2
 604.83984375 690 l 1
 695.83984375 690 l 1
 593.565429688 247 l 2
 575.095703125 167 536.576171875 104.833007812 478.008789062 60.5 c 0
 419.440429688 16.1669921875 347.15625 -6 261.15625 -6 c 0
 175.15625 -6 113.106445312 16.1669921875 75.0087890625 60.5 c 0
EndSplineSet
EndChar

StartChar: V
Encoding: 86 86 57
Width: 605
GlyphClass: 2
Flags: MW
HStem: 0 21G<182.541 258.541 182.541 182.541> 670 20G<81.8398 176.84 176.84 176.84 579.84 674.84 674.84 674.84>
LayerCount: 2
Fore
SplineSet
81.83984375 690 m 1
 176.83984375 690 l 1
 248.9375 123 l 1
 579.83984375 690 l 1
 674.83984375 690 l 1
 258.541015625 0 l 1
 182.541015625 0 l 1
 81.83984375 690 l 1
EndSplineSet
EndChar

StartChar: W
Encoding: 87 87 58
Width: 914
GlyphClass: 2
Flags: MW
HStem: 0 21G<122.541 214.541 122.541 122.541 536.541 628.541 536.541 536.541> 670 20G<81.8398 171.84 171.84 171.84 477.84 590.84 590.84 590.84 895.84 983.84 983.84 983.84>
VStem: 508.752 82.0879
LayerCount: 2
Fore
SplineSet
983.83984375 690 m 1
 628.541015625 0 l 1
 536.541015625 0 l 1
 508.751953125 577 l 1
 214.541015625 0 l 1
 122.541015625 0 l 1
 81.83984375 690 l 1
 171.83984375 690 l 1
 201.091796875 128 l 1
 477.83984375 690 l 1
 590.83984375 690 l 1
 615.091796875 128 l 1
 895.83984375 690 l 1
 983.83984375 690 l 1
EndSplineSet
EndChar

StartChar: X
Encoding: 88 88 59
Width: 648
GlyphClass: 2
Flags: MW
HStem: 0 21G<-77.459 27.541 -77.459 -77.459 450.541 558.541 450.541 450.541> 670 20G<102.84 210.84 210.84 210.84 588.84 693.84 693.84 693.84>
LayerCount: 2
Fore
SplineSet
269.422851562 359 m 1
 102.83984375 690 l 1
 210.83984375 690 l 1
 340.583007812 429 l 1
 588.83984375 690 l 1
 693.83984375 690 l 1
 377.115234375 362 l 1
 558.541015625 0 l 1
 450.541015625 0 l 1
 303.954101562 292 l 1
 27.541015625 0 l 1
 -77.458984375 0 l 1
 269.422851562 359 l 1
EndSplineSet
EndChar

StartChar: Y
Encoding: 89 89 60
Width: 580
GlyphClass: 2
Flags: MW
HStem: 0 21G<161.541 251.541 161.541 161.541> 670 20G<81.8398 183.84 183.84 183.84 547.84 649.84 649.84 649.84>
LayerCount: 2
Fore
SplineSet
315.72265625 278 m 1
 251.541015625 0 l 1
 161.541015625 0 l 1
 225.953125 279 l 1
 81.83984375 690 l 1
 183.83984375 690 l 1
 289.499023438 355 l 1
 547.83984375 690 l 1
 649.83984375 690 l 1
 315.72265625 278 l 1
EndSplineSet
EndChar

StartChar: Z
Encoding: 90 90 61
Width: 571
GlyphClass: 2
Flags: MW
HStem: 1 81<-28.5273 -28.5273 77.4727 454.771 -47.2285 -28.5273> 610 81<125.071 485.371 106.371 609.071 590.371 590.371>
LayerCount: 2
Fore
SplineSet
473.47265625 82 m 1
 454.771484375 1 l 1
 -47.228515625 1 l 1
 -28.52734375 82 l 1
 485.37109375 610 l 1
 106.37109375 610 l 1
 125.071289062 691 l 1
 609.071289062 691 l 1
 590.37109375 610 l 1
 77.47265625 82 l 1
 473.47265625 82 l 1
EndSplineSet
EndChar

StartChar: bracketleft
Encoding: 91 91 62
Width: 323
GlyphClass: 2
Flags: MW
HStem: -84 81<73.8486 168.148> 659 81<226.684 339.684 226.684 226.684>
LayerCount: 2
Fore
SplineSet
159.383789062 740 m 1
 358.383789062 740 l 1
 339.68359375 659 l 1
 226.68359375 659 l 1
 73.8486328125 -3 l 1
 186.848632812 -3 l 1
 168.1484375 -84 l 1
 -30.8515625 -84 l 1
 159.383789062 740 l 1
EndSplineSet
Substitution2: "'rtla' Right to Left Alternates lookup 0 subtable" bracketright
EndChar

StartChar: backslash
Encoding: 92 92 63
Width: 428
GlyphClass: 2
Flags: MW
HStem: -10 21G<217.232 290.232 217.232 217.232> 672 20G<128.302 201.302 201.302 201.302>
VStem: 128.302 161.931
LayerCount: 2
Fore
SplineSet
128.301757812 692 m 1
 201.301757812 692 l 1
 290.232421875 -10 l 1
 217.232421875 -10 l 1
 128.301757812 692 l 1
EndSplineSet
EndChar

StartChar: bracketright
Encoding: 93 93 64
Width: 323
GlyphClass: 2
Flags: MW
HStem: -84 81<-32.1514 79.8486 -32.1514 148.148 -50.8516 79.8486> 659 81<139.384 232.684 120.684 338.384>
LayerCount: 2
Fore
SplineSet
-32.1513671875 -3 m 1
 79.8486328125 -3 l 1
 232.68359375 659 l 1
 120.68359375 659 l 1
 139.383789062 740 l 1
 338.383789062 740 l 1
 148.1484375 -84 l 1
 -50.8515625 -84 l 1
 -32.1513671875 -3 l 1
EndSplineSet
Substitution2: "'rtla' Right to Left Alternates lookup 0 subtable" bracketleft
EndChar

StartChar: asciicircum
Encoding: 94 94 65
Width: 509
GlyphClass: 2
Flags: MW
HStem: 672 20G<294.302 367.302 367.302 367.302>
LayerCount: 2
Fore
SplineSet
294.301757812 692 m 1
 367.301757812 692 l 1
 441.415039062 281 l 1
 368.415039062 281 l 1
 311.139648438 609 l 1
 103.415039062 281 l 1
 30.4150390625 281 l 1
 294.301757812 692 l 1
EndSplineSet
EndChar

StartChar: underscore
Encoding: 95 95 66
Width: 537
GlyphClass: 2
Flags: MW
HStem: -109 59<-95.002 428.376 -108.624 441.998>
LayerCount: 2
Fore
SplineSet
-95.001953125 -50 m 1
 441.998046875 -50 l 1
 428.375976562 -109 l 1
 -108.624023438 -109 l 1
 -95.001953125 -50 l 1
EndSplineSet
EndChar

StartChar: grave
Encoding: 96 96 67
Width: 500
GlyphClass: 2
Flags: MW
HStem: 577 128<176.303 372.752 176.303 290.752>
VStem: 176.303 196.449<577 705>
LayerCount: 2
Fore
SplineSet
176.302734375 705 m 1
 287.302734375 705 l 1
 372.751953125 577 l 1
 290.751953125 577 l 1
 176.302734375 705 l 1
EndSplineSet
EndChar

StartChar: a
Encoding: 97 97 68
Width: 549
GlyphClass: 2
Flags: MW
HStem: -6 69<159.085 185.155> 233.001 63.999<200.666 382.108 223.108 367.332> 448 71<266.028 326.969>
LayerCount: 2
Fore
SplineSet
450.395507812 471.5 m 0
 481.084960938 439.833007812 489.501953125 394 475.650390625 334 c 2
 398.540039062 0 l 1
 315.540039062 0 l 1
 328.930664062 58 l 1
 283.747070312 15.3330078125 223.155273438 -6 147.155273438 -6 c 0
 85.1552734375 -6 41.02734375 7.1669921875 14.7744140625 33.5 c 0
 -11.4794921875 59.8330078125 -18.8349609375 98 -7.291015625 148 c 0
 3.7900390625 196 28.9609375 232.833007812 68.2197265625 258.5 c 0
 107.478515625 284.166992188 159.108398438 297 223.108398438 297 c 2
 382.108398438 297 l 1
 390.188476562 332 l 2
 408.041992188 409.333007812 371.96875 448 281.96875 448 c 0
 242.635742188 448 211.110351562 440.666992188 187.390625 426 c 0
 163.671875 411.333007812 148.733398438 390.666015625 142.577148438 364 c 2
 141.884765625 361 l 1
 58.884765625 361 l 1
 59.5771484375 364 l 2
 70.6591796875 412 97.3935546875 449.833007812 139.780273438 477.5 c 0
 182.16796875 505.166992188 234.694335938 519 297.361328125 519 c 0
 368.694335938 519 419.706054688 503.166992188 450.395507812 471.5 c 0
299.47265625 95 m 0
 328.397460938 116.333007812 347.938476562 149.000976562 358.096679688 193.000976562 c 2
 367.33203125 233.000976562 l 1
 222.33203125 233.000976562 l 2
 178.999023438 233.000976562 145.587890625 226.16796875 122.099609375 212.500976562 c 0
 98.611328125 198.833984375 83.5576171875 177.666992188 76.939453125 149 c 0
 70.1669921875 119.666992188 75.1650390625 98 91.9326171875 84 c 0
 108.701171875 70 138.084960938 63 180.084960938 63 c 0
 230.751953125 63 270.547851562 73.6669921875 299.47265625 95 c 0
EndSplineSet
EndChar

StartChar: b
Encoding: 98 98 69
Width: 580
GlyphClass: 2
Flags: MW
HStem: -9 74.999<210.444 256.111 210.444 260.796> 0 21G<-16.459 67.541 -16.459 -16.459> 445.998 76.002<333.388 342.506> 670 20G<142.84 227.84 227.84 227.84>
LayerCount: 2
Fore
SplineSet
136.849609375 10 m 0xb0
 112.440429688 22.6669921875 94.4169921875 41.3330078125 82.7783203125 66 c 1
 67.541015625 0 l 1
 -16.458984375 0 l 1x70
 142.83984375 690 l 1
 227.83984375 690 l 1
 170.815429688 443 l 1
 193.177734375 467.666992188 219.973632812 487 251.206054688 501 c 0
 282.438476562 515 315.721679688 522 351.0546875 522 c 0
 415.721679688 522 462.783203125 501.333007812 492.240234375 460 c 0
 521.698242188 418.666992188 527.653320312 360 510.107421875 284 c 2
 497.640625 230 l 2
 479.940429688 153.333007812 446.819335938 94.3330078125 398.27734375 53 c 0
 349.734375 11.6669921875 293.129882812 -9 228.462890625 -9 c 0
 191.795898438 -9 161.258789062 -2.6669921875 136.849609375 10 c 0xb0
347.474609375 107.999023438 m 0
 378.60546875 135.999023438 400.6328125 177.998046875 413.561523438 233.998046875 c 2
 424.181640625 279.998046875 l 2
 437.110351562 335.998046875 434.396484375 377.665039062 416.040039062 404.998046875 c 0
 397.68359375 432.331054688 365.505859375 445.998046875 319.505859375 445.998046875 c 0
 273.505859375 445.998046875 234.068359375 431.831054688 201.194335938 403.498046875 c 0
 168.319335938 375.165039062 146.340820312 336.998046875 135.259765625 288.998046875 c 2
 119.791015625 221.998046875 l 2
 108.86328125 174.665039062 113.461914062 136.83203125 133.587890625 108.499023438 c 0
 153.713867188 80.166015625 187.110351562 65.9990234375 233.77734375 65.9990234375 c 0xb0
 278.444335938 65.9990234375 316.34375 79.9990234375 347.474609375 107.999023438 c 0
EndSplineSet
EndChar

StartChar: c
Encoding: 99 99 70
Width: 553
GlyphClass: 2
Flags: MW
HStem: -9 75<168.778 235.129> 446 76<286.388 327.508>
LayerCount: 2
Fore
SplineSet
42.6611328125 52.5 m 0
 10.7939453125 93.5 3.865234375 153 21.873046875 231 c 2
 33.646484375 282 l 2
 51.654296875 360 86.05859375 419.5 136.856445312 460.5 c 0
 187.655273438 501.5 249.721679688 522 323.0546875 522 c 0
 390.387695312 522 439.245117188 505.5 469.625976562 472.5 c 0
 500.0078125 439.5 508.502929688 394 495.112304688 336 c 2
 493.958007812 331 l 1
 410.958007812 331 l 1
 412.112304688 336 l 2
 420.116210938 370.666992188 415.016601562 397.666992188 396.813476562 417 c 0
 378.609375 436.333007812 348.5078125 446 306.5078125 446 c 0
 206.5078125 446 143.733398438 390.666992188 118.184570312 280 c 2
 107.333007812 233 l 2
 81.6298828125 121.666992188 118.778320312 66 218.778320312 66 c 0
 260.778320312 66 295.342773438 75.6669921875 322.473632812 95 c 0
 349.603515625 114.333007812 367.09375 141 374.943359375 175 c 2
 375.866210938 179 l 1
 458.866210938 179 l 1
 457.943359375 175 l 2
 444.860351562 118.333007812 415.676757812 73.5 370.391601562 40.5 c 0
 325.10546875 7.5 268.795898438 -9 201.462890625 -9 c 0
 127.462890625 -9 74.529296875 11.5 42.6611328125 52.5 c 0
EndSplineSet
EndChar

StartChar: d
Encoding: 100 100 71
Width: 580
GlyphClass: 2
Flags: MW
HStem: -9 75<189.113 196.796> 0 21G<344.541 428.541 344.541 344.541> 446 76<275.842 317.055 267.388 321.842> 670 20G<503.84 587.84 587.84 587.84>
LayerCount: 2
Fore
SplineSet
37.6611328125 52.5 m 0xb0
 9.126953125 93.5 3.7109375 152.333007812 21.4111328125 229 c 2
 34.1083984375 284 l 2
 51.654296875 360 84.3662109375 418.666992188 132.241210938 460 c 0
 180.1171875 501.333007812 235.721679688 522 299.0546875 522 c 0
 335.0546875 522 365.938476562 515 391.706054688 501 c 0
 417.473632812 487 435.919921875 468 447.046875 444 c 1
 503.83984375 690 l 1
 587.83984375 690 l 1
 428.541015625 0 l 1
 344.541015625 0 l 1x70
 360.008789062 67 l 1
 337.647460938 42.3330078125 310.966796875 23.5 279.96484375 10.5 c 0
 248.963867188 -2.5 215.129882812 -9 178.462890625 -9 c 0
 113.129882812 -9 66.1962890625 11.5 37.6611328125 52.5 c 0xb0
330.475585938 108 m 0
 362.940429688 136 384.712890625 174 395.794921875 222 c 2
 411.262695312 289 l 2
 422.499023438 337.666992188 418.181640625 376 398.3125 404 c 0
 378.444335938 432 345.17578125 446 298.508789062 446 c 0
 253.17578125 446 214.982421875 432.166992188 183.927734375 404.5 c 0
 152.874023438 376.833007812 130.8828125 335 117.954101562 279 c 2
 107.333984375 233 l 2
 94.4052734375 177 97.248046875 135.166992188 115.860351562 107.5 c 0
 134.47265625 79.8330078125 166.446289062 66 211.779296875 66 c 0xb0
 258.446289062 66 298.01171875 80 330.475585938 108 c 0
EndSplineSet
EndChar

StartChar: e
Encoding: 101 101 72
Width: 557
GlyphClass: 2
Flags: MW
HStem: -9 74<171.88 225.796> 235 64<107.795 404.568 122.568 404.568 122.568 474.795> 447 75<280.388 321.071>
LayerCount: 2
Fore
SplineSet
107.794921875 235 m 1
 106.87109375 231 l 2
 81.3212890625 120.333007812 120.213867188 65 223.546875 65 c 0
 262.879882812 65 295.49609375 74.1669921875 321.395507812 92.5 c 0
 347.294921875 110.833007812 363.810546875 134 370.94140625 162 c 2
 371.634765625 165 l 1
 455.634765625 165 l 1
 454.7109375 161 l 2
 446.65625 129 431.166015625 100.166992188 408.240234375 74.5 c 0
 385.315429688 48.8330078125 356.288085938 28.5 321.158203125 13.5 c 0
 286.02734375 -1.5 247.12890625 -9 204.462890625 -9 c 0
 129.795898438 -9 76.2724609375 11.8330078125 43.892578125 53.5 c 0
 11.51171875 95.1669921875 4.556640625 156 23.0263671875 236 c 2
 32.4912109375 277 l 2
 50.6533203125 355.666992188 84.62109375 416.166992188 134.39453125 458.5 c 0
 184.166992188 500.833007812 244.721679688 522 316.0546875 522 c 0
 386.0546875 522 436.552734375 502.5 467.548828125 463.5 c 0
 498.544921875 424.5 505.577148438 368.333007812 488.647460938 295 c 2
 474.794921875 235 l 1
 107.794921875 235 l 1
188.811523438 410.5 m 0
 158.860351562 386.166992188 136.779296875 349 122.568359375 299 c 1
 404.568359375 299 l 1
 406.646484375 308 l 2
 417.419921875 354.666992188 413.294921875 389.5 394.272460938 412.5 c 0
 375.249023438 435.5 343.404296875 447 298.737304688 447 c 0
 255.404296875 447 218.76171875 434.833007812 188.811523438 410.5 c 0
EndSplineSet
EndChar

StartChar: f
Encoding: 102 102 73
Width: 364
GlyphClass: 2
Flags: MW
HStem: 0 21G<33.541 118.541 33.541 33.541> 448 64<79.7451 136.97 64.9697 151.745 236.745 349.97> 627 63<330.295 405.84 344.84 391.295>
LayerCount: 2
Fore
SplineSet
278.524414062 608.5 m 0
 262.676757812 596.166992188 251.751953125 577 245.749023438 551 c 2
 236.745117188 512 l 1
 364.745117188 512 l 1
 349.969726562 448 l 1
 221.969726562 448 l 1
 118.541015625 0 l 1
 33.541015625 0 l 1
 136.969726562 448 l 1
 64.9697265625 448 l 1
 79.7451171875 512 l 1
 151.745117188 512 l 1
 160.056640625 548 l 2
 170.676757812 594 191.795898438 629.166992188 223.413085938 653.5 c 0
 255.03125 677.833007812 295.506835938 690 344.83984375 690 c 2
 405.83984375 690 l 1
 391.294921875 627 l 1
 344.294921875 627 l 2
 316.294921875 627 294.372070312 620.833007812 278.524414062 608.5 c 0
EndSplineSet
EndChar

StartChar: g
Encoding: 103 103 74
Width: 580
GlyphClass: 2
Flags: MW
HStem: -160 71.998<155.224 195.269> 14.999 76.001<194.215 202.336> 447 74.999<276.072 317.053 267.053 322.072> 491.999 20G<462.744 546.744 546.744 546.744>
VStem: -24.1543 83<-16.001 -16.001>
LayerCount: 2
Fore
SplineSet
12.529296875 -123.5 m 0xd8
 -18.853515625 -99.1669921875 -31.08203125 -63.333984375 -24.154296875 -16.0009765625 c 1
 58.845703125 -16.0009765625 l 1
 59.1513671875 -40.66796875 68.6240234375 -58.8349609375 87.263671875 -70.501953125 c 0
 105.903320312 -82.1689453125 135.223632812 -88.001953125 175.223632812 -88.001953125 c 0
 225.890625 -88.001953125 265.775390625 -77.6689453125 294.879882812 -57.001953125 c 0
 323.984375 -36.3349609375 343.461914062 -4.66796875 353.3125 37.9990234375 c 2
 365.779296875 91.9990234375 l 1
 343.263671875 66.666015625 316.505859375 47.4990234375 285.504882812 34.4990234375 c 0
 254.50390625 21.4990234375 220.669921875 14.9990234375 184.002929688 14.9990234375 c 0
 119.3359375 14.9990234375 72.4921875 35.166015625 43.470703125 75.4990234375 c 0
 14.44921875 115.83203125 8.48046875 172.999023438 25.564453125 246.999023438 c 2
 34.568359375 285.999023438 l 2
 51.9599609375 361.33203125 84.388671875 419.499023438 131.854492188 460.499023438 c 0
 179.3203125 501.499023438 235.052734375 521.999023438 299.052734375 521.999023438 c 0xe8
 335.052734375 521.999023438 365.975585938 515.166015625 391.8203125 501.499023438 c 0
 417.665039062 487.83203125 436.150390625 468.999023438 447.276367188 444.999023438 c 1
 462.744140625 511.999023438 l 1
 546.744140625 511.999023438 l 1
 438.698242188 43.9990234375 l 2
 423.614257812 -21.333984375 391.827148438 -71.6669921875 343.336914062 -107 c 0
 294.846679688 -142.333007812 232.935546875 -160 157.602539062 -160 c 0
 92.26953125 -160 43.9111328125 -147.833007812 12.529296875 -123.5 c 0xd8
336.284179688 131 m 0
 368.107421875 157.666992188 389.712890625 195.666992188 401.102539062 245 c 2
 411.953125 292 l 2
 422.880859375 339.333007812 418.41015625 377 398.541992188 405 c 0
 378.672851562 433 345.405273438 447 298.73828125 447 c 0
 253.405273438 447 215.211914062 433.166992188 184.157226562 405.5 c 0
 153.102539062 377.833007812 131.188476562 336.333007812 118.4140625 281 c 2
 111.71875 252 l 2
 99.40625 198.666992188 102.6328125 158.5 121.399414062 131.5 c 0
 140.166015625 104.5 171.881835938 91 216.548828125 91 c 0
 264.548828125 91 304.459960938 104.333007812 336.284179688 131 c 0
EndSplineSet
EndChar

StartChar: h
Encoding: 104 104 75
Width: 572
GlyphClass: 2
Flags: MW
HStem: 0 21G<-16.459 68.541 -16.459 -16.459 336.542 421.542 336.542 336.542> 442 76<290.252 380.465> 670 20G<142.84 142.84>
LayerCount: 2
Fore
SplineSet
142.83984375 690 m 1
 227.83984375 689.999023438 l 1
 170.815429688 442.999023438 l 1
 194.509765625 467.666015625 221.653320312 486.333007812 252.244140625 499 c 0
 282.8359375 511.666992188 315.46484375 518 350.131835938 518 c 0
 410.798828125 518 453.796875 500.666992188 479.126953125 466 c 0
 504.456054688 431.333007812 510.041015625 383.333007812 495.881835938 322 c 2
 421.541992188 0 l 1
 336.541992188 0 l 1
 408.341796875 311 l 2
 418.346679688 354.333007812 415.0546875 387 398.466796875 409 c 0
 381.87890625 431 352.918945312 442 311.5859375 442 c 0
 268.918945312 442 231.827148438 429.333007812 200.311523438 404 c 0
 168.795898438 378.666992188 147.959960938 344 137.801757812 300 c 2
 68.541015625 0 l 1
 -16.458984375 0 l 1
 142.83984375 690 l 1
EndSplineSet
EndChar

StartChar: i
Encoding: 105 105 76
Width: 234
GlyphClass: 2
Flags: MW
HStem: 0 21G<-9.45898 75.541 -9.45898 -9.45898> 492 20G<108.745 193.745 193.745 193.745> 597 92<149.609 213.369 128.369 234.609>
VStem: -9.45898 244.068
LayerCount: 2
Fore
SplineSet
149.609375 689 m 1
 234.609375 689 l 1
 213.369140625 597 l 1
 128.369140625 597 l 1
 149.609375 689 l 1
108.745117188 512 m 1
 193.745117188 512 l 1
 75.541015625 0 l 1
 -9.458984375 0 l 1
 108.745117188 512 l 1
EndSplineSet
EndChar

StartChar: j
Encoding: 106 106 77
Width: 232
GlyphClass: 2
Flags: MW
HStem: -153 76<-155.235 -155.235 -155.235 -117.782 -172.782 -155.235> 492.001 20G<107.746 192.746 192.746 192.746> 597 93<146.84 211.369 125.369 232.84>
LayerCount: 2
Fore
SplineSet
146.83984375 690 m 1
 232.83984375 690 l 1
 211.369140625 597 l 1
 125.369140625 597 l 1
 146.83984375 690 l 1
-155.235351562 -77 m 1
 -110.235351562 -76.9990234375 l 2
 -80.90234375 -76.9990234375 -58.4404296875 -70.666015625 -42.8486328125 -57.9990234375 c 0
 -27.2578125 -45.33203125 -16 -23.9990234375 -9.0732421875 6.0009765625 c 2
 107.74609375 512.000976562 l 1
 192.74609375 512.000976562 l 1
 74.541015625 0.0009765625 l 2
 62.84375 -50.666015625 40.865234375 -88.8330078125 8.6064453125 -114.5 c 0
 -23.65234375 -140.166992188 -65.7822265625 -153 -117.782226562 -153 c 2
 -172.782226562 -153 l 1
 -155.235351562 -77 l 1
EndSplineSet
EndChar

StartChar: k
Encoding: 107 107 78
Width: 558
GlyphClass: 2
Flags: MW
HStem: 0 21G<-16.459 68.541 -16.459 -16.459 356.541 356.541 356.541 457.541> 492 20G<441.745 548.745 548.745 548.745> 670 20G<142.84 227.84 227.84 227.84>
LayerCount: 2
Fore
SplineSet
235.10546875 258 m 1
 103.40234375 151 l 1
 68.541015625 0 l 1
 -16.458984375 0 l 1
 142.83984375 690 l 1
 227.83984375 690 l 1
 126.951171875 253 l 1
 441.745117188 512 l 1
 548.745117188 512 l 1
 306.495117188 316 l 1
 457.541015625 0 l 1
 356.541015625 0 l 1
 235.10546875 258 l 1
EndSplineSet
EndChar

StartChar: l
Encoding: 108 108 79
Width: 302
GlyphClass: 2
Flags: MW
HStem: 0 76<113.875 213.087 169.087 195.541> 670 20G<142.84 227.84 227.84 227.84>
LayerCount: 2
Fore
SplineSet
30.6982421875 37.5 m 0
 10.8037109375 62.5 6.935546875 101.333007812 19.0947265625 154 c 2
 142.83984375 690 l 1
 227.83984375 690 l 1
 105.249023438 159 l 2
 98.3232421875 129 99.564453125 107.666992188 108.973632812 95 c 0
 118.381835938 82.3330078125 138.419921875 76 169.086914062 76 c 2
 213.086914062 76 l 1
 195.541015625 0 l 1
 140.541015625 0 l 2
 87.2080078125 0 50.59375 12.5 30.6982421875 37.5 c 0
EndSplineSet
EndChar

StartChar: m
Encoding: 109 109 80
Width: 912
GlyphClass: 2
Flags: MW
HStem: 0 21G<-16.459 68.541 -16.459 -16.459 329.542 415.542 329.542 329.542 675.541 760.541 675.541 675.541> 442 76<290.252 366.464 666.131 672.918>
LayerCount: 2
Fore
SplineSet
101.745117188 512 m 1
 185.745117188 511.999023438 l 1
 169.815429688 442.999023438 l 1
 193.509765625 467.666015625 220.8203125 486.333007812 251.744140625 499 c 0
 282.668945312 511.666992188 315.130859375 518 349.130859375 518 c 0
 383.797851562 518 413.143554688 510.833007812 437.166992188 496.5 c 0
 461.19140625 482.166992188 478.202148438 462 488.19921875 436 c 1
 515.997070312 464 545.935546875 484.666992188 578.013671875 498 c 0
 610.091796875 511.333007812 646.130859375 518 686.130859375 518 c 0
 748.130859375 518 792 500.833007812 817.741210938 466.5 c 0
 843.481445312 432.166992188 849.194335938 384 834.880859375 322 c 2
 760.541015625 0 l 1
 675.541015625 0 l 1
 747.340820312 311 l 2
 757.345703125 354.333007812 754.219726562 387 737.965820312 409 c 0
 721.711914062 431 693.251953125 442 652.584960938 442 c 0
 609.250976562 442 573.262695312 430.5 544.62109375 407.5 c 0
 515.977539062 384.5 496.73046875 351.666992188 486.879882812 309 c 2
 415.541992188 0 l 1
 329.541992188 0 l 1
 401.573242188 312 l 2
 411.422851562 354.666992188 408.387695312 387 392.466796875 409 c 0
 376.545898438 431 349.5859375 442 311.5859375 442 c 0
 268.918945312 442 231.827148438 429.333007812 200.311523438 404 c 0
 168.795898438 378.666992188 147.959960938 344 137.801757812 300 c 2
 68.541015625 0 l 1
 -16.458984375 0 l 1
 101.745117188 512 l 1
EndSplineSet
EndChar

StartChar: n
Encoding: 110 110 81
Width: 572
GlyphClass: 2
Flags: MW
HStem: 0 21G<-16.459 68.541 -16.459 -16.459 336.542 421.542 336.542 336.542> 442 76<290.252 380.465>
LayerCount: 2
Fore
SplineSet
101.745117188 512 m 1
 185.74609375 511.999023438 l 1
 169.81640625 442.999023438 l 1
 193.510742188 467.666015625 220.821289062 486.333007812 251.745117188 499 c 0
 282.669921875 511.666992188 315.46484375 518 350.131835938 518 c 0
 410.798828125 518 453.796875 500.666992188 479.126953125 466 c 0
 504.456054688 431.333007812 510.041015625 383.333007812 495.881835938 322 c 2
 421.541992188 0 l 1
 336.541992188 0 l 1
 408.341796875 311 l 2
 418.346679688 354.333007812 415.0546875 387 398.466796875 409 c 0
 381.87890625 431 352.918945312 442 311.5859375 442 c 0
 268.918945312 442 231.827148438 429.333007812 200.311523438 404 c 0
 168.795898438 378.666992188 147.959960938 344 137.801757812 300 c 2
 68.541015625 0 l 1
 -16.458984375 0 l 1
 101.745117188 512 l 1
EndSplineSet
EndChar

StartChar: o
Encoding: 111 111 82
Width: 572
GlyphClass: 2
Flags: MW
HStem: -9 74.999<168.112 237.796> 445.999 76<287.387 355.174>
LayerCount: 2
Fore
SplineSet
43.1611328125 52.5 m 0
 10.9599609375 93.5 3.86328125 152.999023438 21.87109375 230.999023438 c 2
 33.6455078125 281.999023438 l 2
 51.6533203125 359.999023438 86.22265625 419.499023438 137.35546875 460.499023438 c 0
 188.48828125 501.499023438 250.720703125 521.999023438 324.053710938 521.999023438 c 0
 396.720703125 521.999023438 448.94921875 501.33203125 480.740234375 459.999023438 c 0
 512.530273438 418.666015625 519.5 359.333007812 501.645507812 282 c 2
 489.872070312 231 l 2
 471.864257812 153 437.459960938 93.5 386.661132812 52.5 c 0
 335.86328125 11.5 274.129882812 -9 201.462890625 -9 c 0
 128.129882812 -9 75.36328125 11.5 43.1611328125 52.5 c 0
405.333007812 232.999023438 m 2
 416.18359375 279.999023438 l 2
 441.733398438 390.666015625 404.840820312 445.999023438 305.5078125 445.999023438 c 0
 206.174804688 445.999023438 143.733398438 390.666015625 118.18359375 279.999023438 c 2
 107.333007812 232.999023438 l 2
 81.6298828125 121.666015625 118.4453125 65.9990234375 217.778320312 65.9990234375 c 0
 317.111328125 65.9990234375 379.629882812 121.666015625 405.333007812 232.999023438 c 2
EndSplineSet
EndChar

StartChar: p
Encoding: 112 112 83
Width: 580
GlyphClass: 2
Flags: MW
HStem: -9 74.999<210.444 256.111 210.444 260.796> 445.998 75.002<333.157 342.506> 492 20G<101.745 101.745>
LayerCount: 2
Fore
SplineSet
101.745117188 512 m 1xa0
 185.745117188 511.999023438 l 1
 169.815429688 442.999023438 l 1
 192.842773438 467.666015625 219.935546875 486.833007812 251.090820312 500.5 c 0
 282.24609375 514.166992188 315.490234375 521 350.823242188 521 c 0xc0
 415.490234375 521 462.590820312 500.5 492.125 459.5 c 0
 521.659179688 418.5 527.653320312 360 510.107421875 284 c 2
 497.640625 230 l 2
 479.940429688 153.333007812 446.819335938 94.3330078125 398.27734375 53 c 0
 349.734375 11.6669921875 293.129882812 -9 228.462890625 -9 c 0
 155.129882812 -9 106.90234375 16 83.7783203125 66 c 1
 31.140625 -162 l 1
 -53.859375 -162 l 1
 101.745117188 512 l 1xa0
347.474609375 107.999023438 m 0
 378.60546875 135.999023438 400.6328125 177.998046875 413.561523438 233.998046875 c 2
 423.951171875 278.998046875 l 2
 436.879882812 334.998046875 434.204101562 376.831054688 415.924804688 404.498046875 c 0
 397.645507812 432.165039062 365.505859375 445.998046875 319.505859375 445.998046875 c 0
 273.505859375 445.998046875 234.068359375 431.831054688 201.194335938 403.498046875 c 0
 168.319335938 375.165039062 146.340820312 336.998046875 135.259765625 288.998046875 c 2
 119.791015625 221.998046875 l 2
 108.86328125 174.665039062 113.461914062 136.83203125 133.587890625 108.499023438 c 0
 153.713867188 80.166015625 187.110351562 65.9990234375 233.77734375 65.9990234375 c 0
 278.444335938 65.9990234375 316.34375 79.9990234375 347.474609375 107.999023438 c 0
EndSplineSet
EndChar

StartChar: q
Encoding: 113 113 84
Width: 580
GlyphClass: 2
Flags: MW
HStem: -9 75<189.111 196.462> 446 75<275.84 317.822 267.822 321.84> 492 20G<462.745 546.745 546.745 546.745>
LayerCount: 2
Fore
SplineSet
360.008789062 67 m 1xa0
 337.647460938 42.3330078125 310.798828125 23.5 279.463867188 10.5 c 0
 248.129882812 -2.5 214.461914062 -9 178.461914062 -9 c 0
 113.12890625 -9 66.1953125 11.5 37.66015625 52.5 c 0
 9.1259765625 93.5 3.708984375 152.333007812 21.4091796875 229 c 2
 34.1064453125 284 l 2
 51.65234375 360 84.3251953125 418.5 132.124023438 459.5 c 0
 179.922851562 500.5 235.822265625 521 299.822265625 521 c 0xc0
 335.822265625 521 366.578125 514.166992188 392.08984375 500.5 c 0
 417.6015625 486.833007812 435.919921875 468 447.046875 444 c 1
 462.745117188 512 l 1
 546.745117188 512 l 1
 391.140625 -162 l 1
 307.140625 -162 l 1
 360.008789062 67 l 1xa0
330.473632812 108 m 0
 362.938476562 136 384.7109375 174 395.79296875 222 c 2
 411.260742188 289 l 2
 422.497070312 337.666992188 418.1796875 376 398.310546875 404 c 0
 378.442382812 432 345.173828125 446 298.506835938 446 c 0
 253.173828125 446 214.98046875 432.166992188 183.92578125 404.5 c 0
 152.872070312 376.833007812 130.880859375 335 117.952148438 279 c 2
 107.33203125 233 l 2
 94.4033203125 177 97.24609375 135.166992188 115.858398438 107.5 c 0
 134.470703125 79.8330078125 166.444335938 66 211.77734375 66 c 0
 258.444335938 66 298.009765625 80 330.473632812 108 c 0
EndSplineSet
EndChar

StartChar: r
Encoding: 114 114 85
Width: 378
GlyphClass: 2
Flags: MW
HStem: 0 21G<-16.459 68.541 -16.459 -16.459> 443 76<295.815 357.694> 492 20G<101.745 185.744 185.744 185.744>
LayerCount: 2
Fore
SplineSet
101.745117188 512 m 1xa0
 185.744140625 512 l 1xa0
 169.122070312 440 l 1
 192.611328125 466.666992188 219.857421875 486.5 250.858398438 499.5 c 0
 281.860351562 512.5 315.02734375 519 350.360351562 519 c 0
 365.02734375 519 378.463867188 518 390.668945312 516 c 1
 371.96875 435 l 1
 355.200195312 440.333007812 337.1484375 443 317.815429688 443 c 0xc0
 273.815429688 443 235.237304688 429.666992188 202.081054688 403 c 0
 168.924804688 376.333007812 147.11328125 340.333007812 136.647460938 295 c 2
 68.541015625 0 l 1
 -16.458984375 0 l 1
 101.745117188 512 l 1xa0
EndSplineSet
EndChar

StartChar: s
Encoding: 115 115 86
Width: 517
GlyphClass: 2
Flags: MW
HStem: -6 71<169.883 207.489> 450 69<262.362 300.433>
LayerCount: 2
Fore
SplineSet
23.9677734375 36.5 m 0
 -7.4912109375 64.8330078125 -17.5234375 103.666992188 -6.1337890625 153 c 2
 -5.44140625 156 l 1
 75.55859375 156 l 1
 75.0966796875 154 l 2
 68.7861328125 126.666992188 75.1171875 105 94.08984375 89 c 0
 113.063476562 73 146.216796875 65 193.549804688 65 c 0
 236.216796875 65 271.33203125 72 298.897460938 86 c 0
 326.462890625 100 343.32421875 120.333007812 349.48046875 147 c 0
 354.559570312 169 349.57421875 185.666992188 334.524414062 197 c 0
 319.473632812 208.333007812 293.076171875 216 255.333984375 220 c 2
 184.412109375 229 l 2
 129.284179688 235.666992188 90.96484375 250.166992188 69.453125 272.5 c 0
 47.9423828125 294.833007812 41.8818359375 326.333007812 51.2705078125 367 c 0
 62.1982421875 414.333007812 89.4462890625 451.5 133.012695312 478.5 c 0
 176.579101562 505.5 230.362304688 519 294.362304688 519 c 0
 361.029296875 519 410.20703125 505.333007812 441.897460938 478 c 0
 473.586914062 450.666992188 484.044921875 413.666992188 473.270507812 367 c 2
 472.346679688 363 l 1
 391.346679688 363 l 1
 392.040039062 366 l 2
 398.350585938 393.333984375 391.66015625 414.166992188 371.96875 428.5 c 0
 352.278320312 442.833007812 321.432617188 450 279.432617188 450 c 0
 236.765625 450 203.2265625 443.333007812 178.815429688 430 c 0
 154.404296875 416.666992188 139.350585938 397.666992188 133.65625 373 c 0
 128.73046875 351.666992188 132.665039062 335.5 145.458984375 324.5 c 0
 158.251953125 313.5 182.853515625 306 219.263671875 302 c 2
 294.954101562 292 l 2
 350.748046875 285.333007812 389.862304688 270.666015625 412.295898438 248 c 0
 434.73046875 225.333007812 441.17578125 193.333007812 431.6328125 152 c 0
 420.08984375 102 391.291015625 63.1669921875 345.237304688 35.5 c 0
 299.182617188 7.8330078125 241.822265625 -6 173.15625 -6 c 0
 105.15625 -6 55.4267578125 8.1669921875 23.9677734375 36.5 c 0
EndSplineSet
EndChar

StartChar: t
Encoding: 116 116 87
Width: 383
GlyphClass: 2
Flags: MW
HStem: 0 74<139.541 264.625 221.625 247.541> 448 64<65.7451 140.97 50.9697 155.745 240.745 361.97>
VStem: 50.9697 325.775<448 512>
LayerCount: 2
Fore
SplineSet
225.969726562 448 m 1
 157.6328125 152 l 2
 151.168945312 124 152.884765625 104 162.78125 92 c 0
 172.677734375 80 192.291992188 74 221.625 74 c 2
 264.625 74 l 1
 247.541015625 0 l 1
 190.541015625 0 l 2
 88.541015625 0 48.853515625 49 71.478515625 147 c 2
 140.969726562 448 l 1
 50.9697265625 448 l 1
 65.7451171875 512 l 1
 155.745117188 512 l 1
 181.372070312 623 l 1
 274.452148438 658 l 1
 240.745117188 512 l 1
 376.745117188 512 l 1
 361.969726562 448 l 1
 225.969726562 448 l 1
EndSplineSet
EndChar

StartChar: u
Encoding: 117 117 88
Width: 572
GlyphClass: 2
Flags: MW
HStem: -7 75.999<173.804 235.591> 491.999 20G<101.745 186.745 186.745 186.745 454.745 539.745 539.745 539.745>
LayerCount: 2
Fore
SplineSet
50.5068359375 47.5 m 0
 21.5625 83.8330078125 14.8623046875 135.666015625 30.4072265625 202.999023438 c 2
 101.745117188 511.999023438 l 1
 186.745117188 511.999023438 l 1
 117.485351562 211.999023438 l 2
 95.4755859375 116.666015625 129.137695312 68.9990234375 218.470703125 68.9990234375 c 0
 264.470703125 68.9990234375 301.03515625 80.83203125 328.166992188 104.499023438 c 0
 355.297851562 128.166015625 374.403320312 163.999023438 385.485351562 211.999023438 c 2
 454.745117188 511.999023438 l 1
 539.745117188 511.999023438 l 1
 468.407226562 202.999023438 l 2
 452.862304688 135.666015625 422.0625 83.8330078125 376.006835938 47.5 c 0
 329.952148438 11.1669921875 271.2578125 -7 199.924804688 -7 c 0
 129.2578125 -7 79.4521484375 11.1669921875 50.5068359375 47.5 c 0
EndSplineSet
EndChar

StartChar: v
Encoding: 118 118 89
Width: 513
GlyphClass: 2
Flags: MW
HStem: 0 21G<131.541 214.541 131.541 131.541> 492 20G<47.7451 138.745 138.745 138.745 443.745 534.745 534.745 534.745>
LayerCount: 2
Fore
SplineSet
47.7451171875 512 m 1
 138.745117188 512 l 1
 198.012695312 106 l 1
 443.745117188 512 l 1
 534.745117188 512 l 1
 214.541015625 0 l 1
 131.541015625 0 l 1
 47.7451171875 512 l 1
EndSplineSet
EndChar

StartChar: w
Encoding: 119 119 90
Width: 820
GlyphClass: 2
Flags: MW
HStem: 0 21G<105.541 188.541 105.541 105.541 462.541 546.541 462.541 462.541> 492 20G<47.7451 138.745 138.745 138.745 409.745 478.745 478.745 478.745 750.745 841.745 841.745 841.745>
LayerCount: 2
Fore
SplineSet
47.7451171875 512 m 1
 138.745117188 512 l 1
 175.474609375 108 l 1
 409.745117188 512 l 1
 478.745117188 512 l 1
 527.474609375 108 l 1
 750.745117188 512 l 1
 841.745117188 512 l 1
 546.541015625 0 l 1
 462.541015625 0 l 1
 415.580078125 390 l 1
 188.541015625 0 l 1
 105.541015625 0 l 1
 47.7451171875 512 l 1
EndSplineSet
EndChar

StartChar: x
Encoding: 120 120 91
Width: 488
GlyphClass: 2
Flags: MW
HStem: 0 21G<-70.459 20.541 -70.459 -70.459 300.541 391.541 300.541 300.541> 492 20G<56.7451 147.745 147.745 147.745 406.745 497.745 497.745 497.745>
LayerCount: 2
Fore
SplineSet
300.541015625 0 m 1
 205.483398438 199 l 1
 20.541015625 0 l 1
 -70.458984375 0 l 1
 175.028320312 262 l 1
 56.7451171875 512 l 1
 147.745117188 512 l 1
 235.265625 328 l 1
 406.745117188 512 l 1
 497.745117188 512 l 1
 264.720703125 265 l 1
 391.541015625 0 l 1
 300.541015625 0 l 1
EndSplineSet
EndChar

StartChar: y
Encoding: 121 121 92
Width: 513
GlyphClass: 2
Flags: MW
HStem: -153 77<-24.0049 -5.78223 -41.7822 11.9951> 492 20G<47.7451 138.745 138.745 138.745 445.745 534.745 534.745 534.745>
LayerCount: 2
Fore
SplineSet
534.745117188 512 m 1
 183.766601562 -51 l 2
 161.455078125 -87 135.120117188 -113 104.758789062 -129 c 0
 74.3984375 -145 37.55078125 -153 -5.7822265625 -153 c 2
 -41.7822265625 -153 l 1
 -24.0048828125 -76 l 1
 11.9951171875 -76 l 2
 41.9951171875 -76 65.328125 -71.6669921875 81.99609375 -63 c 0
 98.6640625 -54.3330078125 113.537109375 -39 126.616210938 -17 c 2
 136.541015625 0 l 1
 47.7451171875 512 l 1
 138.745117188 512 l 1
 202.706054688 109 l 1
 445.745117188 512 l 1
 534.745117188 512 l 1
EndSplineSet
EndChar

StartChar: z
Encoding: 122 122 93
Width: 500
GlyphClass: 2
Flags: MW
HStem: 0 75<-14.1436 -14.1436 83.8564 364.541 -31.459 -14.1436> 436 76<86.7451 365.199 69.1992 482.745 465.199 465.199>
LayerCount: 2
Fore
SplineSet
465.19921875 436 m 1
 83.8564453125 75 l 1
 381.856445312 75 l 1
 364.541015625 0 l 1
 -31.458984375 0 l 1
 -14.1435546875 75 l 1
 365.19921875 436 l 1
 69.19921875 436 l 1
 86.7451171875 512 l 1
 482.745117188 512 l 1
 465.19921875 436 l 1
EndSplineSet
EndChar

StartChar: braceleft
Encoding: 123 123 94
Width: 377
GlyphClass: 2
Flags: MW
HStem: -84 73<111.815 239.002 189.002 222.148> 291.999 77<35.9551 53.7324> 666.999 73<339.384 345.531 345.531 395.531>
LayerCount: 2
Fore
SplineSet
63.6982421875 31 m 2
 105.254882812 210.999023438 l 2
 112.02734375 240.33203125 110.465820312 260.999023438 100.568359375 272.999023438 c 0
 90.671875 284.999023438 69.134765625 291.33203125 35.955078125 291.999023438 c 1
 53.732421875 368.999023438 l 1
 87.21875 369.666015625 111.681640625 375.999023438 127.118164062 387.999023438 c 0
 142.555664062 399.999023438 153.583007812 420.33203125 160.201171875 448.999023438 c 2
 200.833984375 624.999023438 l 2
 218.534179688 701.666015625 264.716796875 739.999023438 339.383789062 739.999023438 c 2
 412.383789062 739.999023438 l 1
 395.53125 666.999023438 l 1
 345.53125 666.999023438 l 2
 328.198242188 666.999023438 314.774414062 662.999023438 305.260742188 654.999023438 c 0
 295.74609375 646.999023438 288.912109375 633.999023438 284.756835938 615.999023438 c 2
 246.89453125 451.999023438 l 2
 238.275390625 414.666015625 227.259765625 387.166015625 213.84765625 369.499023438 c 0
 200.434570312 351.83203125 181.061523438 338.665039062 155.728515625 329.999023438 c 1
 177.060546875 321.33203125 190.391601562 308.33203125 195.723632812 290.999023438 c 0
 201.0546875 273.666015625 199.411132812 246.333007812 190.79296875 209 c 2
 151.775390625 40 l 2
 147.620117188 22 148.452148438 9 154.271484375 1 c 0
 160.091796875 -7 171.668945312 -11 189.001953125 -11 c 2
 239.001953125 -11 l 1
 222.1484375 -84 l 1
 149.1484375 -84 l 2
 74.4814453125 -84 45.998046875 -45.6669921875 63.6982421875 31 c 2
EndSplineSet
Substitution2: "'rtla' Right to Left Alternates lookup 0 subtable" braceright
EndChar

StartChar: bar
Encoding: 124 124 95
Width: 290
GlyphClass: 2
Flags: MW
VStem: 1.37891 272.005
LayerCount: 2
Fore
SplineSet
191.383789062 740 m 1
 273.383789062 740 l 1
 83.37890625 -83 l 1
 1.37890625 -83 l 1
 191.383789062 740 l 1
EndSplineSet
EndChar

StartChar: braceright
Encoding: 125 125 96
Width: 377
GlyphClass: 2
Flags: MW
HStem: -84 73<-33.998 16.0029 16.0029 21.1484 -50.8516 16.0029> 292 77<308.954 326.731> 667 73<139.384 172.53 122.53 211.384>
LayerCount: 2
Fore
SplineSet
-33.998046875 -11 m 1
 16.0029296875 -11 l 2
 33.3359375 -11 46.7587890625 -7 56.2724609375 1 c 0
 65.787109375 9 72.62109375 22 76.7763671875 40 c 2
 115.793945312 209 l 2
 124.412109375 246.333007812 135.389648438 273.666015625 148.724609375 290.999023438 c 0
 162.05859375 308.33203125 181.393554688 321.33203125 206.727539062 329.999023438 c 1
 185.39453125 338.666015625 172.1015625 351.833007812 166.846679688 369.5 c 0
 161.592773438 387.166992188 163.274414062 414.666992188 171.893554688 452 c 2
 209.755859375 616 l 2
 213.911132812 634 213.080078125 647 207.259765625 655 c 0
 201.439453125 663 189.86328125 667 172.530273438 667 c 2
 122.530273438 667 l 1
 139.383789062 740 l 1
 211.383789062 740 l 2
 248.716796875 740 274.5234375 730.5 288.803710938 711.5 c 0
 303.083984375 692.5 305.760742188 663.666992188 296.833984375 625 c 2
 256.201171875 449 l 2
 249.583007812 420.333007812 251.221679688 400 261.118164062 388 c 0
 271.014648438 376 292.885742188 369.666992188 326.731445312 369 c 1
 308.954101562 292 l 1
 274.80078125 291.333007812 250.005859375 285 234.568359375 273 c 0
 219.130859375 261 208.026367188 240.333007812 201.25390625 211 c 2
 159.698242188 31 l 2
 150.770507812 -7.6669921875 134.78125 -36.5 111.727539062 -55.5 c 0
 88.6748046875 -74.5 58.4814453125 -84 21.1484375 -84 c 2
 -50.8515625 -84 l 1
 -33.998046875 -11 l 1
EndSplineSet
Substitution2: "'rtla' Right to Left Alternates lookup 0 subtable" braceleft
EndChar

StartChar: asciitilde
Encoding: 126 126 97
Width: 509
GlyphClass: 2
Flags: MW
HStem: 207.001 75<309.647 311.998> 268 74.001<154.833 158.414>
LayerCount: 2
Fore
SplineSet
16.103515625 245 m 1x40
 38.158203125 277 62.240234375 301.16796875 88.34375 317.500976562 c 0
 114.447265625 333.833984375 141.166015625 342.000976562 168.499023438 342.000976562 c 0x40
 185.83203125 342.000976562 200.806640625 339.000976562 213.420898438 333.000976562 c 0
 226.036132812 327.000976562 239.4453125 318.66796875 253.649414062 308.000976562 c 0
 268.162109375 298.66796875 279.456054688 292.000976562 287.532226562 288.000976562 c 0
 295.608398438 284.000976562 304.647460938 282.000976562 314.647460938 282.000976562 c 0
 329.98046875 282.000976562 344.147460938 286.333984375 357.1484375 295.000976562 c 0
 370.149414062 303.66796875 385.189453125 319.000976562 402.268554688 341.000976562 c 1
 451.95703125 305.000976562 l 1
 429.901367188 273.000976562 405.616210938 248.66796875 379.102539062 232.000976562 c 0
 352.587890625 215.333984375 325.6640625 207.000976562 298.331054688 207.000976562 c 0x80
 281.6640625 207.000976562 267.151367188 209.833984375 254.79296875 215.500976562 c 0
 242.434570312 221.16796875 228.564453125 229.66796875 213.180664062 241.000976562 c 0
 201.334960938 250.333984375 190.913085938 257.166992188 181.913085938 261.5 c 0
 172.913085938 265.833007812 163.4140625 268 153.4140625 268 c 0
 138.081054688 268 124.119140625 263.833007812 111.528320312 255.5 c 0
 98.9375 247.166992188 84.1025390625 232 67.0234375 210 c 1
 16.103515625 245 l 1x40
EndSplineSet
EndChar

StartChar: exclamdown
Encoding: 161 161 99
Width: 239
GlyphClass: 2
Flags: MW
HStem: -153 21G<-49.7822 51.2178 -49.7822 -49.7822> 406 106<103.745 181.273 79.2734 205.745>
VStem: 74.1865 66<306 306>
LayerCount: 2
Fore
SplineSet
103.745117188 512 m 1
 205.745117188 512 l 1
 181.2734375 406 l 1
 79.2734375 406 l 1
 103.745117188 512 l 1
74.1865234375 306 m 1
 140.186523438 306 l 1
 51.2177734375 -153 l 1
 -49.7822265625 -153 l 1
 74.1865234375 306 l 1
EndSplineSet
EndChar

StartChar: cent
Encoding: 162 162 100
Width: 553
GlyphClass: 2
Flags: MW
HStem: -7.99902 75.999<169.694 187.239 187.239 230.694> 444 77.001<274.046 291.823>
LayerCount: 2
Fore
SplineSet
410.958007812 331 m 1
 412.111328125 336 l 2
 419.19140625 366.666992188 416.053710938 391.333984375 402.696289062 410.000976562 c 0
 389.338867188 428.66796875 366.788085938 440.000976562 335.045898438 444.000976562 c 1
 248.239257812 68.0009765625 l 1
 281.830078125 72.0009765625 309.61328125 83.333984375 331.58984375 102.000976562 c 0
 353.56640625 120.66796875 368.017578125 145.000976562 374.943359375 175.000976562 c 2
 375.866210938 179.000976562 l 1
 458.866210938 179.000976562 l 1
 457.943359375 175.000976562 l 2
 445.784179688 122.333984375 419.8046875 79.833984375 380.0078125 47.5009765625 c 0
 340.209960938 15.16796875 290.438476562 -3.33203125 230.694335938 -7.9990234375 c 1
 209.454101562 -99.9990234375 l 1
 148.454101562 -99.9990234375 l 1
 169.694335938 -7.9990234375 l 1
 107.079101562 -1.9990234375 62.6337890625 21.333984375 36.35546875 62.0009765625 c 0
 10.0771484375 102.66796875 5.2490234375 159.000976562 21.8720703125 231.000976562 c 2
 33.646484375 282.000976562 l 2
 50.2685546875 354.000976562 81.107421875 410.333984375 126.163085938 451.000976562 c 0
 171.21875 491.66796875 226.438476562 515.000976562 291.823242188 521.000976562 c 1
 312.6015625 611.000976562 l 1
 373.6015625 611.000976562 l 1
 352.823242188 521.000976562 l 1
 410.413085938 516.333984375 451.603515625 497.666992188 476.39453125 465 c 0
 501.185546875 432.333007812 507.42578125 389.333007812 495.112304688 336 c 2
 493.958007812 331 l 1
 410.958007812 331 l 1
187.239257812 68 m 1
 274.045898438 444 l 1
 192.76171875 432.666992188 140.80859375 378 118.18359375 280 c 2
 107.33203125 233 l 2
 84.5537109375 134.333007812 111.188476562 79.3330078125 187.239257812 68 c 1
EndSplineSet
EndChar

StartChar: sterling
Encoding: 163 163 101
Width: 501
GlyphClass: 2
Flags: MW
HStem: 0.000976562 81.999<95.4727 387.541> 287.001 80<32.2695 88.8008 13.8008 107.27 32.2695 179.801 198.27 349.801> 620.001 80<338.149 364.346>
VStem: 420.363 87<532.001 532.001>
LayerCount: 2
Fore
SplineSet
406.47265625 82 m 1
 387.541015625 0.0009765625 l 1
 -29.458984375 0.0009765625 l 1
 -11.681640625 77.0009765625 l 1
 8.986328125 85.66796875 25.08984375 97.66796875 36.62890625 113.000976562 c 0
 48.1689453125 128.333984375 57.017578125 149.333984375 63.173828125 176.000976562 c 2
 88.80078125 287.000976562 l 1
 13.80078125 287.000976562 l 1
 32.26953125 367.000976562 l 1
 107.26953125 367.000976562 l 1
 138.4375 502.000976562 l 2
 153.212890625 566.000976562 180.192382812 615.000976562 219.375 649.000976562 c 0
 258.557617188 683.000976562 308.149414062 700.000976562 368.149414062 700.000976562 c 0
 425.482421875 700.000976562 466.134765625 685.500976562 490.106445312 656.500976562 c 0
 514.078125 627.500976562 519.830078125 586.000976562 507.36328125 532.000976562 c 1
 420.36328125 532.000976562 l 1
 427.2890625 562.000976562 424.907226562 584.16796875 413.215820312 598.500976562 c 0
 401.525390625 612.833984375 380.012695312 620.000976562 348.6796875 620.000976562 c 0
 287.346679688 620.000976562 248.522460938 584.66796875 232.20703125 514.000976562 c 2
 198.26953125 367.000976562 l 1
 368.26953125 367.000976562 l 1
 349.80078125 287.000976562 l 1
 179.80078125 287.000976562 l 1
 156.482421875 186.000976562 l 2
 151.095703125 162.66796875 143.478515625 142.66796875 133.630859375 126.000976562 c 0
 123.783203125 109.333984375 111.063476562 94.6669921875 95.47265625 82 c 1
 406.47265625 82 l 1
EndSplineSet
EndChar

StartChar: currency
Encoding: 164 164 102
Width: 606
GlyphClass: 2
Flags: MW
HStem: 124.001 73<246.356 267.835> 449.001 73<318.721 340.201>
LayerCount: 2
Fore
SplineSet
365.787109375 157 m 1
 328.041015625 135 288.501953125 124.000976562 247.168945312 124.000976562 c 0
 205.8359375 124.000976562 171.375 135.000976562 143.787109375 157.000976562 c 1
 59.0888671875 89.0009765625 l 1
 17.017578125 145.000976562 l 1
 100.715820312 213.000976562 l 1
 87.0791015625 246.333984375 84.876953125 283.000976562 94.111328125 323.000976562 c 0
 103.80859375 365.000976562 123.2734375 401.66796875 152.506835938 433.000976562 c 1
 99.66796875 503.000976562 l 1
 167.365234375 558.000976562 l 1
 220.666992188 490.000976562 l 1
 258.924804688 511.333984375 298.387695312 522.000976562 339.0546875 522.000976562 c 0
 380.387695312 522.000976562 414.591796875 511.333984375 441.666992188 490.000976562 c 1
 527.365234375 558.000976562 l 1
 569.66796875 503.000976562 l 1
 484.73828125 434.000976562 l 1
 499.709960938 400.66796875 502.5 363.66796875 493.111328125 323.000976562 c 0
 483.72265625 282.333984375 464.2578125 245.666992188 434.715820312 213 c 1
 487.786132812 144 l 1
 419.857421875 88 l 1
 365.787109375 157 l 1
360.833984375 233.000976562 m 0
 389.374023438 257.000976562 407.80078125 287.000976562 416.111328125 323.000976562 c 0
 424.422851562 359.000976562 419.848632812 389.000976562 402.389648438 413.000976562 c 0
 384.930664062 437.000976562 358.201171875 449.000976562 322.201171875 449.000976562 c 0
 286.868164062 449.000976562 254.764648438 437.000976562 225.890625 413.000976562 c 0
 197.016601562 389.000976562 178.423828125 359.000976562 170.112304688 323.000976562 c 0
 161.801757812 287.000976562 166.541992188 257.000976562 184.334960938 233.000976562 c 0
 202.126953125 209.000976562 228.689453125 197.000976562 264.022460938 197.000976562 c 0
 300.022460938 197.000976562 332.29296875 209.000976562 360.833984375 233.000976562 c 0
EndSplineSet
EndChar

StartChar: yen
Encoding: 165 165 103
Width: 532
GlyphClass: 2
Flags: MW
HStem: 0 21G<137.541 228.541 137.541 137.541> 143 66<22.793 170.556 7.55566 185.793 276.793 425.556> 271 67<52.5742 194.574 52.5742 200.106 37.1064 194.574 327.574 455.106> 670 20G<84.8398 184.84 184.84 184.84 498.84 598.84 598.84 598.84>
LayerCount: 2
Fore
SplineSet
170.555664062 143 m 1
 7.5556640625 143 l 1
 22.79296875 209 l 1
 185.79296875 209 l 1
 200.106445312 271 l 1
 37.1064453125 271 l 1
 52.57421875 338 l 1
 194.57421875 338 l 1
 84.83984375 690 l 1
 184.83984375 690 l 1
 271.040039062 379 l 1
 498.83984375 690 l 1
 598.83984375 690 l 1
 327.57421875 338 l 1
 470.57421875 338 l 1
 455.106445312 271 l 1
 291.106445312 271 l 1
 276.79296875 209 l 1
 440.79296875 209 l 1
 425.555664062 143 l 1
 261.555664062 143 l 1
 228.541015625 0 l 1
 137.541015625 0 l 1
 170.555664062 143 l 1
EndSplineSet
EndChar

StartChar: brokenbar
Encoding: 166 166 104
Width: 290
GlyphClass: 2
Flags: MW
VStem: 4.8418 265.079
LayerCount: 2
Fore
SplineSet
187.920898438 725 m 1
 269.920898438 725 l 1
 188.655273438 373 l 1
 106.655273438 373 l 1
 187.920898438 725 l 1
86.3388671875 285 m 1
 168.338867188 285 l 1
 86.841796875 -68 l 1
 4.841796875 -68 l 1
 86.3388671875 285 l 1
EndSplineSet
EndChar

StartChar: section
Encoding: 167 167 105
Width: 559
GlyphClass: 2
Flags: MW
HStem: -168 74.998<136.069 184.088> -21.002 20G<3.30859 85.3086 85.3086 85.3086> 639.001 75<335.714 380.066>
VStem: 3.30859 82<-1.00195 -1.00195>
LayerCount: 2
Fore
SplineSet
23.7978515625 -124.5 m 0
 -2.173828125 -95.5 -9.00390625 -54.3349609375 3.30859375 -1.001953125 c 1
 85.30859375 -1.001953125 l 1
 71.1484375 -62.3349609375 100.069335938 -93.001953125 172.069335938 -93.001953125 c 0
 206.736328125 -93.001953125 234.48046875 -86.1689453125 255.302734375 -72.501953125 c 0
 276.125 -58.8349609375 289.614257812 -38.66796875 295.770507812 -12.0009765625 c 0
 302.850585938 18.666015625 296.506835938 40.9990234375 276.73828125 54.9990234375 c 0
 256.970703125 68.9990234375 221.728515625 81.666015625 171.01171875 92.9990234375 c 0
 69.373046875 117.666015625 29.4814453125 177.333007812 51.3369140625 272 c 0
 60.41796875 311.333007812 77.4853515625 344.833007812 102.5390625 372.5 c 0
 127.59375 400.166992188 159.916992188 420.333984375 199.5078125 433.000976562 c 1
 171.765625 445.66796875 153.690429688 462.66796875 145.282226562 484.000976562 c 0
 136.875 505.333984375 136.1328125 531.000976562 143.059570312 561.000976562 c 0
 153.833007812 607.668945312 179.081054688 644.8359375 218.80078125 672.500976562 c 0
 258.521484375 700.16796875 307.047851562 714.000976562 364.380859375 714.000976562 c 0
 423.71484375 714.000976562 465.77734375 699.833984375 490.569335938 671.500976562 c 0
 515.361328125 643.16796875 521.909179688 603.66796875 510.2109375 553.000976562 c 1
 428.2109375 553.000976562 l 1
 441.447265625 610.333984375 414.06640625 639.000976562 346.06640625 639.000976562 c 0
 314.06640625 639.000976562 288.026367188 632.333984375 267.948242188 619.000976562 c 0
 247.870117188 605.665039062 234.90625 586.33203125 229.05859375 561.000976562 c 0
 224.287109375 540.333984375 225.772460938 523.666992188 233.514648438 511 c 0
 241.256835938 498.331054688 254.2421875 488.1640625 272.47265625 480.499023438 c 0
 290.703125 472.83203125 316.638671875 465.33203125 350.278320312 457.999023438 c 0
 393.149414062 447.33203125 426.634765625 428.499023438 450.734375 401.499023438 c 0
 474.833984375 374.499023438 480.57421875 333.666015625 467.953125 278.999023438 c 0
 458.564453125 238.33203125 441.381835938 204.33203125 416.404296875 176.999023438 c 0
 391.426757812 149.666015625 360.296875 130.333007812 323.014648438 119 c 1
 350.08984375 106.333007812 368.498046875 89.3330078125 378.240234375 68 c 0
 387.982421875 46.6669921875 389.081054688 19.6669921875 381.540039062 -13 c 0
 370.303710938 -61.6669921875 344.364257812 -99.6669921875 303.720703125 -127 c 0
 263.077148438 -154.333007812 213.421875 -168 154.754882812 -168 c 0
 93.421875 -168 49.76953125 -153.5 23.7978515625 -124.5 c 0
331.55859375 194.998046875 m 0
 356.53515625 213.665039062 373.024414062 240.330078125 381.028320312 274.997070312 c 0
 389.185546875 310.330078125 385.0859375 337.330078125 368.728515625 355.997070312 c 0
 352.37109375 374.6640625 324.525390625 383.997070312 285.192382812 383.997070312 c 0
 245.192382812 383.997070312 212.705078125 374.6640625 187.728515625 355.997070312 c 0
 162.751953125 337.330078125 146.185546875 310.330078125 138.028320312 274.997070312 c 0
 129.87109375 239.6640625 134.008789062 212.831054688 150.443359375 194.498046875 c 0
 166.877929688 176.165039062 195.094726562 166.998046875 235.094726562 166.998046875 c 0
 274.427734375 166.998046875 306.58203125 176.331054688 331.55859375 194.998046875 c 0
EndSplineSet
EndChar

StartChar: dieresis
Encoding: 168 168 106
Width: 500
GlyphClass: 2
Flags: MW
HStem: 581 95<172.608 235.676 150.676 257.608 387.608 449.676>
VStem: 150.676 320.933<581 676>
LayerCount: 2
Fore
SplineSet
172.608398438 676 m 1
 257.608398438 676 l 1
 235.67578125 581 l 1
 150.67578125 581 l 1
 172.608398438 676 l 1
387.608398438 676 m 1
 471.608398438 676 l 1
 449.67578125 581 l 1
 365.67578125 581 l 1
 387.608398438 676 l 1
EndSplineSet
EndChar

StartChar: copyright
Encoding: 169 169 107
Width: 803
GlyphClass: 2
Flags: MW
HStem: -9 59<303.084 351.129> 148.001 57<336.204 381.044> 479.001 58<420.185 448.461> 631.001 59.999<445.405 493.219>
LayerCount: 2
Fore
SplineSet
148.62109375 35 m 0
 103.393554688 64.3330078125 72.73046875 105.5 56.6337890625 158.5 c 0
 40.537109375 211.5 40.4140625 272.333007812 56.2666015625 341 c 0
 72.1201171875 409.666992188 100.331054688 470.5 140.900390625 523.5 c 0
 181.469726562 576.5 231.140625 617.666992188 289.913085938 647 c 0
 348.684570312 676.333007812 411.73828125 691 479.071289062 691 c 0
 546.405273438 691 602.518554688 676.333007812 647.413085938 647 c 0
 692.307617188 617.666992188 722.803710938 576.5 738.900390625 523.5 c 0
 754.997070312 470.5 755.120117188 409.666992188 739.266601562 341 c 0
 723.260742188 271.666992188 695.010742188 210.666992188 654.518554688 158 c 0
 614.026367188 105.333007812 564.560546875 64.3330078125 506.12109375 35 c 0
 447.682617188 5.6669921875 384.795898438 -9 317.462890625 -9 c 0
 250.129882812 -9 193.849609375 5.6669921875 148.62109375 35 c 0
485.895507812 86 m 0
 533.104492188 110 573.122070312 144.000976562 605.9453125 188.000976562 c 0
 638.770507812 232.000976562 661.877929688 283.000976562 675.268554688 341.000976562 c 0
 688.658203125 399.000976562 689.099609375 450.000976562 676.590820312 494.000976562 c 0
 664.08203125 538.000976562 639.7265625 571.833984375 603.5234375 595.500976562 c 0
 567.3203125 619.16796875 521.21875 631.000976562 465.21875 631.000976562 c 0
 409.21875 631.000976562 357.487304688 619.16796875 310.0234375 595.500976562 c 0
 262.559570312 571.833984375 222.415039062 538.000976562 189.58984375 494.000976562 c 0
 156.764648438 450.000976562 133.657226562 399.000976562 120.267578125 341.000976562 c 0
 106.72265625 282.333984375 106.243164062 231.166992188 118.829101562 187.5 c 0
 131.4140625 143.833007812 155.936523438 110 192.395507812 86 c 0
 228.854492188 62 275.083984375 50 331.083984375 50 c 0
 387.083984375 50 438.6875 62 485.895507812 86 c 0
241.484375 192.500976562 m 0
 217.333984375 222.16796875 211.798828125 265.333984375 224.881835938 322.000976562 c 2
 234.34765625 363.000976562 l 2
 247.276367188 419.000976562 272.703125 462.000976562 310.62890625 492.000976562 c 0
 348.555664062 522.000976562 393.8515625 537.000976562 446.518554688 537.000976562 c 0
 495.852539062 537.000976562 531.9921875 525.333984375 554.938476562 502.000976562 c 0
 577.883789062 478.66796875 584.740234375 447.000976562 575.505859375 407.000976562 c 2
 574.58203125 403.000976562 l 1
 508.58203125 403.000976562 l 1
 509.274414062 406.000976562 l 2
 514.661132812 429.333984375 510.650390625 447.333984375 497.241210938 460.000976562 c 0
 483.833007812 472.66796875 462.794921875 479.000976562 434.127929688 479.000976562 c 0
 400.127929688 479.000976562 371.729492188 469.333984375 348.932617188 450.000976562 c 0
 326.13671875 430.66796875 310.120117188 401.000976562 300.885742188 361.000976562 c 2
 292.34375 324.000976562 l 2
 274.028320312 244.66796875 300.537109375 205.000976562 371.870117188 205.000976562 c 0
 400.537109375 205.000976562 424.33203125 211.333984375 443.256835938 224.000976562 c 0
 462.180664062 236.66796875 474.336914062 254.66796875 479.723632812 278.000976562 c 2
 480.647460938 282.000976562 l 1
 545.647460938 282.000976562 l 1
 544.723632812 278.000976562 l 2
 535.489257812 238.000976562 514.010742188 206.333984375 480.291015625 183.000976562 c 0
 446.571289062 159.66796875 405.377929688 148.000976562 356.7109375 148.000976562 c 0
 304.043945312 148.000976562 265.634765625 162.833984375 241.484375 192.500976562 c 0
EndSplineSet
EndChar

StartChar: ordfeminine
Encoding: 170 170 108
Width: 382
GlyphClass: 2
Flags: MW
HStem: 426.001 58<182.281 194.891> 566.001 49<213.88 314.525 226.525 303.214> 693 55<255.564 273.532>
LayerCount: 2
Fore
SplineSet
389.450195312 632 m 2
 342.814453125 430.000976562 l 1
 274.814453125 430.000976562 l 1
 282.43359375 463.000976562 l 1
 252.071289062 438.333984375 215.890625 426.000976562 173.890625 426.000976562 c 0
 136.557617188 426.000976562 109.853515625 434.500976562 93.7783203125 451.500976562 c 0
 77.703125 468.500976562 73.1279296875 492.000976562 80.0546875 522.000976562 c 0
 87.134765625 552.669921875 103.150390625 575.836914062 128.099609375 591.500976562 c 0
 153.049804688 607.16796875 185.858398438 615.000976562 226.525390625 615.000976562 c 2
 314.525390625 615.000976562 l 1
 319.373046875 636.000976562 l 2
 323.836914062 655.333984375 321.3125 669.666992188 311.80078125 679 c 0
 302.288085938 688.333007812 285.532226562 693 261.532226562 693 c 0
 240.19921875 693 223.05859375 689.5 210.109375 682.5 c 0
 197.16015625 675.5 189.223632812 665.666992188 186.298828125 653 c 2
 185.836914062 651 l 1
 119.836914062 651 l 1
 120.298828125 653 l 2
 127.224609375 683 144.279296875 706.333007812 171.459960938 723 c 0
 198.640625 739.666992188 233.897460938 748 277.23046875 748 c 0
 369.897460938 748 407.303710938 709.333007812 389.450195312 632 c 2
268.590820312 500.500976562 m 0
 284.129882812 511.500976562 294.594726562 528.66796875 299.981445312 552.000976562 c 2
 303.213867188 566.000976562 l 1
 225.213867188 566.000976562 l 2
 202.546875 566.000976562 185.110351562 562.66796875 172.904296875 556.000976562 c 0
 160.698242188 549.333984375 152.979492188 539.000976562 149.747070312 525.000976562 c 0
 143.436523438 497.66796875 161.28125 484.000976562 203.28125 484.000976562 c 0
 231.28125 484.000976562 253.05078125 489.500976562 268.590820312 500.500976562 c 0
86.150390625 700.000976562 m 1024
EndSplineSet
EndChar

StartChar: guillemotleft
Encoding: 171 171 109
Width: 552
GlyphClass: 2
Flags: W
LayerCount: 2
Fore
SplineSet
0.490234375 264 m 1
 280.818359375 469 l 1
 259.809570312 378 l 1
 101.490234375 264 l 1
 207.170898438 150 l 1
 186.162109375 59 l 1
 0.490234375 264 l 1
229.490234375 264 m 1
 509.818359375 469 l 1
 488.809570312 378 l 1
 330.490234375 264 l 1
 436.170898438 150 l 1
 415.162109375 59 l 1
 229.490234375 264 l 1
EndSplineSet
EndChar

StartChar: logicalnot
Encoding: 172 172 110
Width: 509
GlyphClass: 2
Flags: MW
HStem: 261 77<47.5742 346.798 29.7979 450.574>
LayerCount: 2
Fore
SplineSet
346.797851562 261 m 1
 29.7978515625 261 l 1
 47.57421875 338 l 1
 450.57421875 338 l 1
 402.323242188 129 l 1
 316.323242188 129 l 1
 346.797851562 261 l 1
EndSplineSet
EndChar

StartChar: uni00AD
Encoding: 173 173 111
Width: 422
GlyphClass: 2
Flags: MW
HStem: 306 81<57.8867 357.187 39.1865 375.887>
LayerCount: 2
Fore
SplineSet
57.88671875 387 m 1
 375.88671875 387 l 1
 357.186523438 306 l 1
 39.1865234375 306 l 1
 57.88671875 387 l 1
EndSplineSet
EndChar

StartChar: registered
Encoding: 174 174 112
Width: 519
GlyphClass: 2
Flags: MW
HStem: 307 34<231.933 264.418> 479 35.001<264.207 290.127 256.127 303.207> 571.001 35.999<244.678 316.367 244.678 277.367> 656 34<317.173 348.99>
LayerCount: 2
Fore
SplineSet
155.689453125 332 m 0
 131.204101562 348.666992188 114.30859375 371.5 105.00390625 400.5 c 0
 95.69921875 429.5 95.279296875 462.333007812 103.744140625 499 c 0
 112.055664062 535 127.55859375 567.5 150.25390625 596.5 c 0
 172.94921875 625.5 200.553710938 648.333007812 233.068359375 665 c 0
 265.583007812 681.666992188 299.506835938 690 334.83984375 690 c 0
 370.83984375 690 401.083007812 681.666992188 425.568359375 665 c 0
 450.0546875 648.333007812 467.116210938 625.5 476.75390625 596.5 c 0
 486.391601562 567.5 487.055664062 535 478.744140625 499 c 0
 470.279296875 462.333007812 454.69921875 429.5 432.00390625 400.5 c 0
 409.30859375 371.5 381.704101562 348.666992188 349.189453125 332 c 0
 316.674804688 315.333007812 282.41796875 307 246.41796875 307 c 0
 210.41796875 307 180.174804688 315.333007812 155.689453125 332 c 0
373.924804688 385 m 0
 409.030273438 414.333007812 431.970703125 452.333007812 442.744140625 499 c 0
 453.364257812 545 447.727539062 582.666992188 425.83203125 612 c 0
 403.9375 641.333007812 370.990234375 656 326.990234375 656 c 0
 282.323242188 656 242.770507812 641.333007812 208.331054688 612 c 0
 173.892578125 582.666992188 151.36328125 545 140.743164062 499 c 0
 129.969726562 452.333007812 135.029296875 414.333007812 155.923828125 385 c 0
 176.819335938 355.666992188 209.599609375 341 254.266601562 341 c 0
 298.93359375 341 338.8203125 355.666992188 373.924804688 385 c 0
244.677734375 607 m 1
 326.678710938 607.000976562 l 2
 349.345703125 607.000976562 365.575195312 601.500976562 375.369140625 590.500976562 c 0
 385.162109375 579.500976562 387.673828125 563.66796875 382.90234375 543.000976562 c 0
 376.284179688 514.333984375 359.411132812 494.666992188 332.28125 484 c 1
 353.272460938 393 l 1
 310.272460938 393 l 1
 290.126953125 479 l 1
 256.126953125 479 l 1
 236.272460938 393 l 1
 195.272460938 393 l 1
 244.677734375 607 l 1
303.20703125 514.000976562 m 2
 325.20703125 514.000976562 338.439453125 523.66796875 342.90234375 543.000976562 c 0
 347.211914062 561.66796875 338.3671875 571.000976562 316.3671875 571.000976562 c 2
 277.3671875 571.000976562 l 1
 264.20703125 514.000976562 l 1
 303.20703125 514.000976562 l 2
EndSplineSet
EndChar

StartChar: macron
Encoding: 175 175 113
Width: 500
GlyphClass: 2
Flags: MW
HStem: 590 77<168.53 455.753 150.753 473.53>
VStem: 150.753 322.777<590 667>
LayerCount: 2
Fore
SplineSet
168.530273438 667 m 1
 473.530273438 667 l 1
 455.752929688 590 l 1
 150.752929688 590 l 1
 168.530273438 667 l 1
EndSplineSet
EndChar

StartChar: degree
Encoding: 176 176 114
Width: 401
GlyphClass: 2
Flags: MW
HStem: 419 57<216.435 228.275> 645 55<259.815 279.118>
LayerCount: 2
Fore
SplineSet
123.625 459.5 m 0
 103.19140625 486.5 97.591796875 520 106.826171875 560 c 0
 116.060546875 600 137.08984375 633.333007812 169.913085938 660 c 0
 202.736328125 686.666992188 239.481445312 700 280.1484375 700 c 0
 319.481445312 700 349.5703125 686.666992188 370.4140625 660 c 0
 391.2578125 633.333007812 397.061523438 600 387.827148438 560 c 0
 381.82421875 534 370.155273438 510.166992188 352.8203125 488.5 c 0
 335.485351562 466.833007812 314.727539062 449.833007812 290.546875 437.5 c 0
 266.366210938 425.166992188 241.275390625 419 215.275390625 419 c 0
 174.608398438 419 144.05859375 432.5 123.625 459.5 c 0
291.974609375 500 m 0
 311.000976562 516 323.286132812 536 328.827148438 560 c 0
 334.522460938 584.666992188 331.548828125 605 319.91015625 621 c 0
 308.270507812 637 290.784179688 645 267.451171875 645 c 0
 243.451171875 645 221.9375 637 202.91015625 621 c 0
 183.8828125 605 171.522460938 584.666992188 165.827148438 560 c 0
 160.286132812 536 163.3359375 516 174.975585938 500 c 0
 186.614257812 484 204.434570312 476 228.434570312 476 c 0
 251.767578125 476 272.947265625 484 291.974609375 500 c 0
EndSplineSet
EndChar

StartChar: plusminus
Encoding: 177 177 115
Width: 509
GlyphClass: 2
Flags: MW
HStem: -11 81<-14.2979 370.002 -32.998 388.702> 280 81<52.8848 195.185 34.1846 213.885 52.8848 276.185 294.885 437.185> 502 20G<251.055 332.055 332.055 332.055>
LayerCount: 2
Fore
SplineSet
195.184570312 280 m 1
 34.1845703125 280 l 1
 52.884765625 361 l 1
 213.884765625 361 l 1
 251.0546875 522 l 1
 332.0546875 522 l 1
 294.884765625 361 l 1
 455.884765625 361 l 1
 437.184570312 280 l 1
 276.184570312 280 l 1
 239.014648438 119 l 1
 158.014648438 119 l 1
 195.184570312 280 l 1
-14.2978515625 70 m 1
 388.702148438 70 l 1
 370.001953125 -11 l 1
 -32.998046875 -11 l 1
 -14.2978515625 70 l 1
EndSplineSet
EndChar

StartChar: uni00B2
Encoding: 178 178 116
Width: 375
GlyphClass: 2
Flags: MW
HStem: 430 67<190.282 343.814> 790.001 63.999<279.702 295.26>
LayerCount: 2
Fore
SplineSet
80.666015625 490 m 1
 277.991210938 656.000976562 l 2
 294.40234375 669.333984375 306.877929688 681.500976562 315.41796875 692.500976562 c 0
 323.95703125 703.500976562 329.688476562 715.333984375 332.61328125 728.000976562 c 2
 333.998046875 734.000976562 l 2
 338.154296875 752.000976562 336.180664062 765.833984375 328.079101562 775.500976562 c 0
 319.978515625 785.16796875 305.59375 790.000976562 284.926757812 790.000976562 c 0
 264.259765625 790.000976562 247.311523438 785.16796875 234.079101562 775.500976562 c 0
 220.84765625 765.833984375 212.077148438 751.666992188 207.767578125 733 c 2
 206.151367188 726 l 1
 131.151367188 726 l 1
 133.229492188 735 l 2
 141.848632812 772.333007812 161.08203125 801.5 190.9296875 822.5 c 0
 220.778320312 843.5 257.702148438 854 301.702148438 854 c 0
 345.03515625 854 376.444335938 843.5 395.928710938 822.5 c 0
 415.4140625 801.5 421.000976562 773 412.689453125 737 c 2
 410.842773438 729 l 2
 405.763671875 707 396.479492188 687 382.991210938 669 c 0
 369.501953125 651 349.706054688 631.666992188 323.6015625 611 c 2
 190.282226562 497 l 1
 359.282226562 497 l 1
 343.814453125 430 l 1
 66.814453125 430 l 1
 80.666015625 490 l 1
EndSplineSet
EndChar

StartChar: uni00B3
Encoding: 179 179 117
Width: 373
GlyphClass: 2
Flags: MW
HStem: 424 62.998<189.306 220.429> 612.998 65<226.068 235.062 211.062 250.068> 789.998 64<276.368 300.926>
LayerCount: 2
Fore
SplineSet
103.240234375 453.5 m 0
 83.7802734375 473.166992188 78.2041015625 500.998046875 86.515625 536.998046875 c 2
 88.3623046875 544.998046875 l 1
 157.362304688 544.998046875 l 1
 155.977539062 538.998046875 l 2
 147.973632812 504.331054688 166.639648438 486.998046875 211.97265625 486.998046875 c 0
 257.305664062 486.998046875 284.359375 505.998046875 293.131835938 543.998046875 c 2
 294.978515625 551.998046875 l 2
 299.75 572.665039062 297.290039062 587.998046875 287.598632812 597.998046875 c 0
 277.907226562 607.998046875 260.39453125 612.998046875 235.061523438 612.998046875 c 2
 211.061523438 612.998046875 l 1
 226.068359375 677.998046875 l 1
 250.068359375 677.998046875 l 2
 294.735351562 677.998046875 321.147460938 695.665039062 329.3046875 730.998046875 c 2
 330.919921875 737.998046875 l 2
 338.923828125 772.665039062 321.92578125 789.998046875 279.92578125 789.998046875 c 0
 259.258789062 789.998046875 242.424804688 785.665039062 229.423828125 776.998046875 c 0
 216.422851562 768.331054688 208.076171875 755.998046875 204.381835938 739.998046875 c 2
 202.765625 732.998046875 l 1
 133.765625 732.998046875 l 1
 135.381835938 739.998046875 l 2
 143.693359375 775.998046875 162.157226562 803.998046875 190.775390625 823.998046875 c 0
 219.392578125 843.998046875 255.034179688 853.998046875 297.701171875 853.998046875 c 0
 340.368164062 853.998046875 371.303710938 844.331054688 390.506835938 824.998046875 c 0
 409.709960938 805.662109375 415.462890625 779.329101562 407.768554688 745.999023438 c 2
 405.921875 737.999023438 l 2
 396.37890625 696.666015625 370.350585938 667.666015625 327.8359375 650.999023438 c 1
 367.475585938 634.999023438 381.600585938 602.33203125 370.2109375 552.999023438 c 2
 368.1328125 543.999023438 l 2
 359.513671875 506.666015625 340.075195312 477.333007812 309.817382812 456 c 0
 279.55859375 434.666992188 242.428710938 424 198.428710938 424 c 0
 154.428710938 424 122.69921875 433.833007812 103.240234375 453.5 c 0
EndSplineSet
EndChar

StartChar: acute
Encoding: 180 180 118
Width: 500
GlyphClass: 2
Flags: MW
HStem: 577 128<208.752 452.303>
VStem: 208.752 243.551<577 705>
LayerCount: 2
Fore
SplineSet
347.302734375 705 m 1
 452.302734375 705 l 1
 287.751953125 577 l 1
 208.751953125 577 l 1
 347.302734375 705 l 1
EndSplineSet
EndChar

StartChar: uni00B5
Encoding: 181 181 119
Width: 571
GlyphClass: 2
Flags: MW
HStem: -153 21G<-51.7822 33.2178 -51.7822 -51.7822> -6 74.999<194.137 217.823> 492 20G<101.745 101.745 452.745 538.745 538.745 538.745>
LayerCount: 2
Fore
SplineSet
101.745117188 512 m 1
 186.745117188 511.999023438 l 1
 114.483398438 198.999023438 l 2
 104.787109375 156.999023438 108.860351562 124.83203125 126.705078125 102.499023438 c 0
 144.548828125 80.166015625 173.803710938 68.9990234375 214.470703125 68.9990234375 c 0
 257.137695312 68.9990234375 293.43359375 81.83203125 323.359375 107.499023438 c 0
 353.28515625 133.166015625 373.634765625 169.333007812 384.408203125 216 c 2
 452.745117188 512 l 1
 538.745117188 512 l 1
 420.541015625 0 l 1
 336.541015625 0 l 1
 351.778320312 66 l 1
 306.029296875 18 250.489257812 -6 185.15625 -6 c 0
 133.15625 -6 96.82421875 7 76.16015625 33 c 1
 33.2177734375 -153 l 1
 -51.7822265625 -153 l 1
 101.745117188 512 l 1
EndSplineSet
EndChar

StartChar: paragraph
Encoding: 182 182 120
Width: 681
GlyphClass: 2
Flags: MW
HStem: -153 21G<206.218 286.218 206.218 206.218 374.218 454.218 374.218 374.218> 614 76<463.294 551.294 463.294 463.294>
LayerCount: 2
Fore
SplineSet
303.64453125 269 m 1
 301.643554688 268.999023438 l 2
 220.9765625 268.999023438 163.208984375 287.33203125 128.340820312 323.999023438 c 0
 93.4736328125 360.666015625 83.734375 412.333007812 99.1259765625 479 c 0
 114.670898438 546.333007812 147.508789062 598.333007812 197.641601562 635 c 0
 247.7734375 671.666992188 310.172851562 690 384.83984375 690 c 2
 648.83984375 690 l 1
 454.217773438 -153 l 1
 374.217773438 -153 l 1
 551.293945312 614 l 1
 463.293945312 614 l 1
 286.217773438 -153 l 1
 206.217773438 -153 l 1
 303.64453125 269 l 1
EndSplineSet
EndChar

StartChar: periodcentered
Encoding: 183 183 121
Width: 198
GlyphClass: 2
Flags: MW
HStem: 219 107<39.8037 117.102 15.1016 141.804>
VStem: 15.1016 126.702<219 326>
LayerCount: 2
Fore
SplineSet
39.8037109375 326 m 1
 141.803710938 326 l 1
 117.1015625 219 l 1
 15.1015625 219 l 1
 39.8037109375 326 l 1
EndSplineSet
EndChar

StartChar: cedilla
Encoding: 184 184 122
Width: 500
GlyphClass: 2
Flags: MW
HStem: -152 164<43.4492 239.312 43.4492 239.312>
VStem: 43.4492 195.862<-152 12>
LayerCount: 2
Fore
SplineSet
166.311523438 12 m 1
 239.311523438 12 l 1
 129.44921875 -152 l 1
 43.44921875 -152 l 1
 166.311523438 12 l 1
EndSplineSet
EndChar

StartChar: uni00B9
Encoding: 185 185 123
Width: 265
GlyphClass: 2
Flags: MW
VStem: 120.381 193.705<714 847>
LayerCount: 2
Fore
SplineSet
217.6171875 767 m 1
 120.380859375 714 l 1
 139.081054688 795 l 1
 236.0859375 847 l 1
 314.0859375 847 l 1
 217.814453125 430 l 1
 139.814453125 430 l 1
 217.6171875 767 l 1
EndSplineSet
EndChar

StartChar: ordmasculine
Encoding: 186 186 124
Width: 382
GlyphClass: 2
Flags: MW
HStem: 426 64<208.666 228.891> 684 64.001<257.564 277.455>
LayerCount: 2
Fore
SplineSet
107.432617188 463 m 0
 87.794921875 487.666992188 83.3623046875 523.333984375 94.1357421875 570.000976562 c 2
 102.216796875 605.000976562 l 2
 112.836914062 651.000976562 133.827148438 686.333984375 165.188476562 711.000976562 c 0
 196.55078125 735.66796875 234.897460938 748.000976562 280.23046875 748.000976562 c 0
 325.563476562 748.000976562 358.383789062 735.66796875 378.688476562 711.000976562 c 0
 398.994140625 686.333984375 403.836914062 651.000976562 393.216796875 605.000976562 c 2
 385.135742188 570.000976562 l 2
 374.362304688 523.333984375 353.294921875 487.666992188 321.932617188 463 c 0
 290.571289062 438.333007812 251.890625 426 205.890625 426 c 0
 159.890625 426 127.071289062 438.333007812 107.432617188 463 c 0
280.284179688 510 m 0
 296.029296875 523.333007812 306.979492188 543.333007812 313.135742188 570 c 2
 321.215820312 605 l 2
 327.21875 631 325.426757812 650.666992188 315.837890625 664 c 0
 306.249023438 677.333007812 289.455078125 684 265.455078125 684 c 0
 241.455078125 684 221.583007812 677.333007812 205.837890625 664 c 0
 190.092773438 650.666992188 179.21875 631 173.215820312 605 c 2
 165.135742188 570 l 2
 158.979492188 543.333007812 160.6953125 523.333007812 170.284179688 510 c 0
 179.873046875 496.666992188 196.666015625 490 220.666015625 490 c 0
 244.666015625 490 264.5390625 496.666992188 280.284179688 510 c 0
83.1484375 700 m 1024
EndSplineSet
EndChar

StartChar: guillemotright
Encoding: 187 187 125
Width: 552
GlyphClass: 2
Flags: W
LayerCount: 2
Fore
SplineSet
18.1708984375 150 m 1
 176.490234375 264 l 1
 70.8095703125 378 l 1
 91.818359375 469 l 1
 278.490234375 264 l 1
 -2.837890625 59 l 1
 18.1708984375 150 l 1
247.170898438 150 m 1
 405.490234375 264 l 1
 299.809570312 378 l 1
 320.818359375 469 l 1
 507.490234375 264 l 1
 226.162109375 59 l 1
 247.170898438 150 l 1
EndSplineSet
EndChar

StartChar: onequarter
Encoding: 188 188 126
Width: 806
GlyphClass: 3
Flags: MW
HStem: 0 21G<50.541 123.541 50.541 50.541 567.541 567.541 567.541 645.541> 70 67<406.17 406.17 485.17 583.702 390.702 406.17 677.17 702.702> 672 21G
LayerCount: 2
Fore
SplineSet
664.301757812 692 m 1
 123.541015625 0 l 1
 50.541015625 0 l 1
 590.301757812 692 l 1
 664.301757812 692 l 1
93.568359375 273 m 1
 171.139648438 609 l 1
 72.9033203125 556 l 1
 91.8349609375 638 l 1
 189.83984375 690 l 1
 267.83984375 690 l 1
 171.568359375 273 l 1
 93.568359375 273 l 1
702.702148438 70 m 1
 661.702148438 70 l 1
 645.541015625 0 l 1
 567.541015625 0 l 1
 583.702148438 70 l 1
 390.702148438 70 l 1
 406.169921875 137 l 1
 609.813476562 417 l 1
 687.813476562 417 l 1
 485.169921875 137 l 1
 599.169921875 137 l 1
 621.102539062 232 l 1
 699.102539062 232 l 1
 677.169921875 137 l 1
 718.169921875 137 l 1
 702.702148438 70 l 1
EndSplineSet
Ligature2: "'frac' Diagonal Fractions lookup 2 subtable" one slash four
EndChar

StartChar: onehalf
Encoding: 189 189 127
Width: 817
GlyphClass: 3
Flags: MW
HStem: 0 67<533.009 686.541> 360 64<622.429 637.987> 672 21G
LayerCount: 2
Fore
SplineSet
585.301757812 692 m 1
 659.301757812 692 l 1
 118.541015625 0 l 1
 45.541015625 0 l 1
 585.301757812 692 l 1
171.139648438 609 m 1
 72.9033203125 556 l 1
 91.8349609375 638 l 1
 189.83984375 690 l 1
 267.83984375 690 l 1
 171.568359375 273 l 1
 93.568359375 273 l 1
 171.139648438 609 l 1
423.393554688 60 m 1
 620.716796875 226 l 2
 637.12890625 239.333007812 649.604492188 251.5 658.143554688 262.5 c 0
 666.68359375 273.5 672.415039062 285.333007812 675.33984375 298 c 2
 676.724609375 304 l 2
 680.880859375 322 678.907226562 335.833007812 670.805664062 345.5 c 0
 662.705078125 355.166992188 648.3203125 360 627.653320312 360 c 0
 606.986328125 360 590.038085938 355.166992188 576.805664062 345.5 c 0
 563.57421875 335.833007812 554.803710938 321.666015625 550.494140625 303 c 2
 548.877929688 296 l 1
 473.877929688 296 l 1
 475.956054688 305 l 2
 484.575195312 342.333007812 503.80859375 371.5 533.657226562 392.5 c 0
 563.504882812 413.5 600.428710938 424 644.428710938 424 c 0
 687.76171875 424 719.170898438 413.5 738.65625 392.5 c 0
 758.140625 371.5 763.727539062 343 755.416992188 307 c 2
 753.569335938 299 l 2
 748.490234375 277 739.206054688 257 725.717773438 239 c 0
 712.225585938 221 692.4296875 201.666992188 666.328125 181 c 2
 533.008789062 67 l 1
 702.008789062 67 l 1
 686.541015625 0 l 1
 409.541015625 0 l 1
 423.393554688 60 l 1
EndSplineSet
Ligature2: "'frac' Diagonal Fractions lookup 2 subtable" one slash two
EndChar

StartChar: threequarters
Encoding: 190 190 128
Width: 909
GlyphClass: 3
Flags: MW
HStem: 0 21G<153.541 226.541 153.541 153.541 670.541 670.541 670.541 748.541> 70 67<509.17 509.17 588.17 686.702 493.702 509.17 780.17 805.702> 266 64<163.729 183.62> 456 64<188.594 198.818 173.818 212.594> 633 63.999<239.123 264.015>
LayerCount: 2
Fore
SplineSet
272.33984375 298 m 0
 242.08203125 276.666992188 205.286132812 266 161.953125 266 c 0
 117.286132812 266 85.26171875 276 65.87890625 296 c 0
 46.49609375 316 40.9609375 344 49.271484375 380 c 2
 50.8876953125 387 l 1
 119.887695312 387 l 1
 118.502929688 381 l 2
 114.655273438 364.333007812 117.563476562 351.666015625 127.229492188 343 c 0
 136.895507812 334.333007812 152.728515625 330 174.728515625 330 c 0
 220.728515625 330 248.038085938 348.666992188 256.657226562 386 c 2
 258.735351562 395 l 2
 268.124023438 435.666992188 248.151367188 456 198.818359375 456 c 2
 173.818359375 456 l 1
 188.59375 520 l 1
 212.59375 520 l 2
 257.926757812 520 284.749023438 538 293.060546875 574 c 2
 294.676757812 581 l 2
 302.6796875 615.666992188 285.348632812 633 242.681640625 633 c 0
 222.014648438 633 205.34765625 628.666992188 192.6796875 620 c 0
 180.01171875 611.333007812 171.75390625 598.666015625 167.90625 581.999023438 c 2
 166.520507812 575.999023438 l 1
 96.5205078125 575.999023438 l 1
 98.13671875 582.999023438 l 2
 106.448242188 618.999023438 124.912109375 646.999023438 153.530273438 666.999023438 c 0
 182.147460938 686.999023438 217.7890625 696.999023438 260.456054688 696.999023438 c 0
 303.123046875 696.999023438 334.224609375 687.33203125 353.760742188 667.999023438 c 0
 373.297851562 648.666015625 379.140625 621.999023438 371.291015625 587.999023438 c 2
 369.674804688 580.999023438 l 2
 360.1328125 539.666015625 334.104492188 510.666015625 291.58984375 493.999023438 c 1
 330.716796875 478.666015625 344.430664062 445.666015625 332.733398438 394.999023438 c 2
 330.65625 385.999023438 l 2
 322.037109375 348.666015625 302.59765625 319.333007812 272.33984375 298 c 0
767.301757812 692 m 1
 226.541015625 0 l 1
 153.541015625 0 l 1
 693.301757812 692 l 1
 767.301757812 692 l 1
805.702148438 70 m 1
 764.702148438 70 l 1
 748.541015625 0 l 1
 670.541015625 0 l 1
 686.702148438 70 l 1
 493.702148438 70 l 1
 509.169921875 137 l 1
 712.813476562 417 l 1
 790.813476562 417 l 1
 588.169921875 137 l 1
 702.169921875 137 l 1
 724.102539062 232 l 1
 802.102539062 232 l 1
 780.169921875 137 l 1
 821.169921875 137 l 1
 805.702148438 70 l 1
EndSplineSet
Ligature2: "'frac' Diagonal Fractions lookup 2 subtable" three slash four
EndChar

StartChar: questiondown
Encoding: 191 191 129
Width: 485
GlyphClass: 2
Flags: MW
HStem: -163 80<127.379 158.243> 408 104<233.745 310.735 209.735 334.745>
VStem: 285.851 87<23 23>
LayerCount: 2
Fore
SplineSet
233.745117188 512 m 1
 334.745117188 512 l 1
 310.735351562 408 l 1
 209.735351562 408 l 1
 233.745117188 512 l 1
-14.201171875 -118 m 0
 -43.6083984375 -88 -52.2314453125 -46.6669921875 -40.0732421875 6 c 0
 -33.6083984375 34 -22.888671875 59.5 -7.9111328125 82.5 c 0
 7.0654296875 105.5 28.0927734375 128 55.171875 150 c 2
 134.486328125 212 l 2
 152.384765625 226 165.2578125 239.166992188 173.10546875 251.5 c 0
 180.953125 263.833007812 187.26171875 280.333007812 192.033203125 301 c 2
 198.728515625 330 l 1
 286.728515625 330 l 1
 279.110351562 297 l 2
 272.030273438 266.333007812 262.70703125 241.833007812 251.140625 223.5 c 0
 239.575195312 205.166992188 220.40625 185.666992188 193.635742188 165 c 2
 125.629882812 113 l 2
 102.807617188 95 85.79296875 78.3330078125 74.5859375 63 c 0
 63.37890625 47.6669921875 55.466796875 30 50.849609375 10 c 0
 43.923828125 -20 48.61328125 -43 64.919921875 -59 c 0
 81.2255859375 -75 108.37890625 -83 146.37890625 -83 c 0
 223.045898438 -83 269.536132812 -47.6669921875 285.850585938 23 c 1
 372.850585938 23 l 1
 357.666015625 -37 328.87890625 -83 286.491210938 -115 c 0
 244.103515625 -147 190.576171875 -163 125.909179688 -163 c 0
 61.9091796875 -163 15.205078125 -148 -14.201171875 -118 c 0
EndSplineSet
EndChar

StartChar: Agrave
Encoding: 192 192 130
Width: 666
GlyphClass: 2
Flags: MW
HStem: 0 21G<-77.459 17.541 -77.459 -77.459 480.541 480.541 480.541 576.541> 156 77<164.333 440.333 164.333 453.557 115.557 440.333> 670 20G<369.84 446.84 446.84 446.84>
LayerCount: 2
Fore
SplineSet
453.556640625 156 m 1
 115.556640625 156 l 1
 17.541015625 0 l 1
 -77.458984375 0 l 1
 369.83984375 690 l 1
 446.83984375 690 l 1
 576.541015625 0 l 1
 480.541015625 0 l 1
 453.556640625 156 l 1
440.333007812 233 m 1
 381.982421875 578 l 1
 164.333007812 233 l 1
 440.333007812 233 l 1
299.243164062 878 m 1
 407.243164062 878 l 1
 488.692382812 750 l 1
 408.692382812 750 l 1
 299.243164062 878 l 1
EndSplineSet
EndChar

StartChar: Aacute
Encoding: 193 193 131
Width: 666
GlyphClass: 2
Flags: MW
HStem: 0 21G<-77.459 17.541 -77.459 -77.459 480.541 480.541 480.541 576.541> 156 77<164.333 440.333 164.333 453.557 115.557 440.333> 670 20G<369.84 446.84 446.84 446.84>
LayerCount: 2
Fore
SplineSet
453.556640625 156 m 1
 115.556640625 156 l 1
 17.541015625 0 l 1
 -77.458984375 0 l 1
 369.83984375 690 l 1
 446.83984375 690 l 1
 576.541015625 0 l 1
 480.541015625 0 l 1
 453.556640625 156 l 1
440.333007812 233 m 1
 381.982421875 578 l 1
 164.333007812 233 l 1
 440.333007812 233 l 1
477.243164062 878 m 1
 584.243164062 878 l 1
 415.692382812 750 l 1
 335.692382812 750 l 1
 477.243164062 878 l 1
EndSplineSet
EndChar

StartChar: Acircumflex
Encoding: 194 194 132
Width: 666
GlyphClass: 2
Flags: MW
HStem: 0 21G<-77.459 17.541 -77.459 -77.459 480.541 480.541 480.541 576.541> 156 77<164.333 440.333 164.333 453.557 115.557 440.333> 670 20G<369.84 446.84 446.84 446.84>
LayerCount: 2
Fore
SplineSet
453.556640625 156 m 1
 115.556640625 156 l 1
 17.541015625 0 l 1
 -77.458984375 0 l 1
 369.83984375 690 l 1
 446.83984375 690 l 1
 576.541015625 0 l 1
 480.541015625 0 l 1
 453.556640625 156 l 1
440.333007812 233 m 1
 381.982421875 578 l 1
 164.333007812 233 l 1
 440.333007812 233 l 1
422.244140625 891 m 1
 487.244140625 891 l 1
 584.538085938 745 l 1
 504.538085938 745 l 1
 442.31640625 835 l 1
 337.538085938 745 l 1
 257.538085938 745 l 1
 422.244140625 891 l 1
EndSplineSet
EndChar

StartChar: Atilde
Encoding: 195 195 133
Width: 666
GlyphClass: 2
Flags: MW
HStem: 0 21G<-77.459 17.541 -77.459 -77.459 480.541 480.541 480.541 576.541> 156 77<164.333 440.333 164.333 453.557 115.557 440.333> 670 20G<369.84 446.84 446.84 446.84> 748 70<501.721 501.894> 786 70<353.67 388.829>
LayerCount: 2
Fore
SplineSet
453.556640625 156 m 1xe0
 115.556640625 156 l 1
 17.541015625 0 l 1
 -77.458984375 0 l 1
 369.83984375 690 l 1
 446.83984375 690 l 1
 576.541015625 0 l 1
 480.541015625 0 l 1
 453.556640625 156 l 1xe0
440.333007812 233 m 1
 381.982421875 578 l 1
 164.333007812 233 l 1
 440.333007812 233 l 1
291.622070312 819 m 1
 307.879882812 831.666992188 323.032226562 841 337.083984375 847 c 0
 351.13671875 853 366.162109375 856 382.162109375 856 c 0xe8
 395.495117188 856 406.943359375 854.333007812 416.506835938 851 c 0
 426.0703125 847.666992188 436.749023438 842.666992188 448.54296875 836 c 0
 459.825195312 830 469.619140625 825.5 477.92578125 822.5 c 0
 486.233398438 819.5 496.0546875 818 507.387695312 818 c 0xf0
 522.720703125 818 536.580078125 821 548.96484375 827 c 0
 561.350585938 833 576.08203125 842.666992188 593.16015625 856 c 1xe8
 576.538085938 784 l 1
 547.6640625 760 517.560546875 748 486.227539062 748 c 0xf0
 472.227539062 748 460.4453125 749.666992188 450.881835938 753 c 0
 441.318359375 756.333007812 430.639648438 761.333007812 418.845703125 768 c 0
 406.8984375 774 397.103515625 778.5 389.463867188 781.5 c 0
 381.823242188 784.5 372.336914062 786 361.00390625 786 c 0xe8
 346.336914062 786 332.810546875 783 320.42578125 777 c 0
 308.040039062 771 292.975585938 761.333007812 275.23046875 748 c 1xf0
 291.622070312 819 l 1
EndSplineSet
EndChar

StartChar: Adieresis
Encoding: 196 196 134
Width: 666
GlyphClass: 2
Flags: MW
HStem: 0 21G<-77.459 17.541 -77.459 -77.459 480.541 480.541 480.541 576.541> 156 77<164.333 440.333 164.333 453.557 115.557 440.333> 670 20G<369.84 446.84 446.84 446.84> 759 95<296.702 359.77 274.77 381.702 511.702 573.77>
LayerCount: 2
Fore
SplineSet
453.556640625 156 m 1
 115.556640625 156 l 1
 17.541015625 0 l 1
 -77.458984375 0 l 1
 369.83984375 690 l 1
 446.83984375 690 l 1
 576.541015625 0 l 1
 480.541015625 0 l 1
 453.556640625 156 l 1
440.333007812 233 m 1
 381.982421875 578 l 1
 164.333007812 233 l 1
 440.333007812 233 l 1
296.702148438 854 m 1
 381.702148438 854 l 1
 359.76953125 759 l 1
 274.76953125 759 l 1
 296.702148438 854 l 1
511.702148438 854 m 1
 595.702148438 854 l 1
 573.76953125 759 l 1
 489.76953125 759 l 1
 511.702148438 854 l 1
EndSplineSet
EndChar

StartChar: Aring
Encoding: 197 197 135
Width: 666
GlyphClass: 2
Flags: MW
HStem: 0 21G<-77.459 17.541 -77.459 -77.459 480.541 480.541 480.541 576.541> 156 77<164.333 440.333 164.333 453.557 115.557 440.333> 827 43<436.73 447.802>
LayerCount: 2
Fore
SplineSet
453.556640625 156 m 1
 115.556640625 156 l 1
 17.541015625 0 l 1
 -77.458984375 0 l 1
 368.609375 689 l 1
 353.634765625 696.333007812 343.045898438 707.5 336.84375 722.5 c 0
 330.639648438 737.5 329.846679688 755 334.463867188 775 c 0
 340.774414062 802.333007812 354.83984375 825 376.663085938 843 c 0
 398.485351562 861 423.063476562 870 450.396484375 870 c 0
 477.063476562 870 497.318359375 861 511.163085938 843 c 0
 525.006835938 825 528.774414062 802.333007812 522.463867188 775 c 0
 517.846679688 755 508.806640625 737.5 495.34375 722.5 c 0
 481.879882812 707.5 465.96875 696.333007812 447.609375 689 c 1
 576.541015625 0 l 1
 480.541015625 0 l 1
 453.556640625 156 l 1
401.12109375 812.5 m 0
 389.556640625 802.833007812 382.00390625 790.333007812 378.463867188 775 c 0
 375.078125 760.333007812 376.897460938 748 383.921875 738 c 0
 390.946289062 728 401.791992188 723 416.458984375 723 c 0
 431.125976562 723 444.280273438 728 455.921875 738 c 0
 467.563476562 748 475.078125 760.333007812 478.463867188 775 c 0
 482.00390625 790.333007812 480.22265625 802.833007812 473.12109375 812.5 c 0
 466.020507812 822.166992188 455.135742188 827 440.46875 827 c 0
 425.801757812 827 412.686523438 822.166992188 401.12109375 812.5 c 0
440.333007812 233 m 1
 381.982421875 578 l 1
 164.333007812 233 l 1
 440.333007812 233 l 1
EndSplineSet
EndChar

StartChar: AE
Encoding: 198 198 136
Width: 1000
GlyphClass: 2
Flags: MW
HStem: 0 81<507.241 873.541> 161 77<223.487 434.711 158.711 452.487> 310 81<578.811 890.11 560.11 908.811> 609 81<629.14 629.14 629.14 1014.14>
LayerCount: 2
Fore
SplineSet
629.139648438 609 m 1
 578.810546875 391 l 1
 908.810546875 391 l 1
 890.110351562 310 l 1
 560.110351562 310 l 1
 507.241210938 81 l 1
 892.241210938 81 l 1
 873.541015625 0 l 1
 397.541015625 0 l 1
 434.7109375 161 l 1
 158.7109375 161 l 1
 23.541015625 0 l 1
 -77.458984375 0 l 1
 506.83984375 690 l 1
 1032.83984375 690 l 1
 1014.13964844 609 l 1
 629.139648438 609 l 1
452.487304688 238 m 1
 539.293945312 614 l 1
 223.487304688 238 l 1
 452.487304688 238 l 1
EndSplineSet
EndChar

StartChar: Ccedilla
Encoding: 199 199 137
Width: 680
GlyphClass: 2
Flags: MW
HStem: -152 21G<142.448 228.448 142.448 142.448> -9 82<249.462 314.06> 618 82<383.815 438.883>
LayerCount: 2
Fore
SplineSet
556.203125 475 m 1
 557.125976562 479 l 2
 567.438476562 523.666992188 559.864257812 558 534.405273438 582 c 0
 508.946289062 606 467.549804688 618 410.216796875 618 c 0
 342.883789062 618 288.651367188 599.666992188 247.518554688 563 c 0
 206.38671875 526.333007812 176.817382812 469 158.809570312 391 c 2
 136.415039062 294 l 2
 119.0234375 218.666992188 122.671875 163 147.360351562 127 c 0
 172.048828125 91 218.060546875 73 285.393554688 73 c 0
 342.7265625 73 389.497070312 85 425.705078125 109 c 0
 461.912109375 133 485.249023438 167.666992188 495.71484375 213 c 2
 496.638671875 217 l 1
 586.638671875 217 l 1
 585.484375 212 l 2
 571.631835938 152 542.025390625 103.166992188 496.662109375 65.5 c 0
 451.298828125 27.8330078125 394.873046875 4.3330078125 327.385742188 -5 c 1
 228.448242188 -152 l 1
 142.448242188 -152 l 1
 249.461914062 -9 l 1
 162.8984375 -5.6669921875 101.631835938 21.3330078125 65.662109375 72 c 0
 29.693359375 122.666992188 23.021484375 197 45.646484375 295 c 2
 68.9638671875 396 l 2
 92.205078125 496.666992188 135.044921875 572.5 197.486328125 623.5 c 0
 259.927734375 674.5 337.481445312 700 430.1484375 700 c 0
 513.481445312 700 574.685546875 680.666992188 613.758789062 642 c 0
 652.831054688 603.333007812 664.364257812 549.333007812 648.357421875 480 c 2
 647.203125 475 l 1
 556.203125 475 l 1
EndSplineSet
EndChar

StartChar: Egrave
Encoding: 200 200 138
Width: 597
GlyphClass: 2
Flags: MW
HStem: 0 81<98.2412 470.541> 310 81<169.811 486.11 151.11 504.811> 609 81<220.14 220.14 220.14 611.14>
LayerCount: 2
Fore
SplineSet
220.139648438 609 m 1
 169.810546875 391 l 1
 504.810546875 391 l 1
 486.110351562 310 l 1
 151.110351562 310 l 1
 98.2412109375 81 l 1
 489.241210938 81 l 1
 470.541015625 0 l 1
 -11.458984375 0 l 1
 147.83984375 690 l 1
 629.83984375 690 l 1
 611.139648438 609 l 1
 220.139648438 609 l 1
276.243164062 878 m 1
 384.243164062 878 l 1
 465.692382812 750 l 1
 385.692382812 750 l 1
 276.243164062 878 l 1
EndSplineSet
EndChar

StartChar: Eacute
Encoding: 201 201 139
Width: 597
GlyphClass: 2
Flags: MW
HStem: 0 81<98.2412 470.541> 310 81<169.811 486.11 151.11 504.811> 609 81<220.14 220.14 220.14 611.14>
LayerCount: 2
Fore
SplineSet
220.139648438 609 m 1
 169.810546875 391 l 1
 504.810546875 391 l 1
 486.110351562 310 l 1
 151.110351562 310 l 1
 98.2412109375 81 l 1
 489.241210938 81 l 1
 470.541015625 0 l 1
 -11.458984375 0 l 1
 147.83984375 690 l 1
 629.83984375 690 l 1
 611.139648438 609 l 1
 220.139648438 609 l 1
462.243164062 878 m 1
 569.243164062 878 l 1
 400.692382812 750 l 1
 320.692382812 750 l 1
 462.243164062 878 l 1
EndSplineSet
EndChar

StartChar: Ecircumflex
Encoding: 202 202 140
Width: 597
GlyphClass: 2
Flags: MW
HStem: 0 81<98.2412 470.541> 310 81<169.811 486.11 151.11 504.811> 609 81<220.14 220.14 220.14 611.14>
LayerCount: 2
Fore
SplineSet
220.139648438 609 m 1
 169.810546875 391 l 1
 504.810546875 391 l 1
 486.110351562 310 l 1
 151.110351562 310 l 1
 98.2412109375 81 l 1
 489.241210938 81 l 1
 470.541015625 0 l 1
 -11.458984375 0 l 1
 147.83984375 690 l 1
 629.83984375 690 l 1
 611.139648438 609 l 1
 220.139648438 609 l 1
399.244140625 891 m 1
 464.244140625 891 l 1
 561.538085938 745 l 1
 481.538085938 745 l 1
 419.31640625 835 l 1
 314.538085938 745 l 1
 234.538085938 745 l 1
 399.244140625 891 l 1
EndSplineSet
EndChar

StartChar: Edieresis
Encoding: 203 203 141
Width: 597
GlyphClass: 2
Flags: MW
HStem: 0 81<98.2412 470.541> 310 81<169.811 486.11 151.11 504.811> 609 81<220.14 220.14 220.14 611.14> 759 95<273.702 336.77 251.77 358.702 488.702 550.77>
LayerCount: 2
Fore
SplineSet
220.139648438 609 m 1
 169.810546875 391 l 1
 504.810546875 391 l 1
 486.110351562 310 l 1
 151.110351562 310 l 1
 98.2412109375 81 l 1
 489.241210938 81 l 1
 470.541015625 0 l 1
 -11.458984375 0 l 1
 147.83984375 690 l 1
 629.83984375 690 l 1
 611.139648438 609 l 1
 220.139648438 609 l 1
273.702148438 854 m 1
 358.702148438 854 l 1
 336.76953125 759 l 1
 251.76953125 759 l 1
 273.702148438 854 l 1
488.702148438 854 m 1
 572.702148438 854 l 1
 550.76953125 759 l 1
 466.76953125 759 l 1
 488.702148438 854 l 1
EndSplineSet
EndChar

StartChar: Igrave
Encoding: 204 204 142
Width: 249
GlyphClass: 2
Flags: MW
HStem: 0 21G<-4.45898 86.541 -4.45898 -4.45898> 670 20G<154.84 245.84 245.84 245.84>
VStem: -4.45898 285.151
LayerCount: 2
Fore
SplineSet
154.83984375 690 m 1
 245.83984375 690 l 1
 86.541015625 0 l 1
 -4.458984375 0 l 1
 154.83984375 690 l 1
91.2431640625 878 m 1
 199.243164062 878 l 1
 280.692382812 750 l 1
 200.692382812 750 l 1
 91.2431640625 878 l 1
EndSplineSet
EndChar

StartChar: Iacute
Encoding: 205 205 143
Width: 249
GlyphClass: 2
Flags: MW
HStem: 0 21G<-4.45898 86.541 -4.45898 -4.45898> 670 20G<154.84 245.84 245.84 245.84>
LayerCount: 2
Fore
SplineSet
154.83984375 690 m 1
 245.83984375 690 l 1
 86.541015625 0 l 1
 -4.458984375 0 l 1
 154.83984375 690 l 1
277.243164062 878 m 1
 384.243164062 878 l 1
 215.692382812 750 l 1
 135.692382812 750 l 1
 277.243164062 878 l 1
EndSplineSet
EndChar

StartChar: Icircumflex
Encoding: 206 206 144
Width: 249
GlyphClass: 2
Flags: MW
HStem: 0 21G<-4.45898 86.541 -4.45898 -4.45898> 670 20G<154.84 245.84 245.84 245.84>
LayerCount: 2
Fore
SplineSet
154.83984375 690 m 1
 245.83984375 690 l 1
 86.541015625 0 l 1
 -4.458984375 0 l 1
 154.83984375 690 l 1
214.244140625 891 m 1
 279.244140625 891 l 1
 376.538085938 745 l 1
 296.538085938 745 l 1
 234.31640625 835 l 1
 129.538085938 745 l 1
 49.5380859375 745 l 1
 214.244140625 891 l 1
EndSplineSet
EndChar

StartChar: Idieresis
Encoding: 207 207 145
Width: 249
GlyphClass: 2
Flags: MW
HStem: 0 21G<-4.45898 86.541 -4.45898 -4.45898> 670 20G<154.84 245.84 245.84 245.84> 759 95<88.7021 151.77 66.7695 173.702 303.702 365.77>
LayerCount: 2
Fore
SplineSet
154.83984375 690 m 1
 245.83984375 690 l 1
 86.541015625 0 l 1
 -4.458984375 0 l 1
 154.83984375 690 l 1
88.7021484375 854 m 1
 173.702148438 854 l 1
 151.76953125 759 l 1
 66.76953125 759 l 1
 88.7021484375 854 l 1
303.702148438 854 m 1
 387.702148438 854 l 1
 365.76953125 759 l 1
 281.76953125 759 l 1
 303.702148438 854 l 1
EndSplineSet
EndChar

StartChar: Eth
Encoding: 208 208 146
Width: 725
GlyphClass: 2
Flags: MW
HStem: 0 80.999<149.241 292.541> 309.999 81<220.811 372.11 202.11 390.811> 608.999 81.001<271.14 435.14 271.14 271.14>
LayerCount: 2
Fore
SplineSet
649.525390625 615 m 0
 687.981445312 565 695.743164062 490.33203125 672.810546875 390.999023438 c 2
 651.80078125 299.999023438 l 2
 628.868164062 200.666015625 586.424804688 125.833007812 524.471679688 75.5 c 0
 462.517578125 25.1669921875 385.20703125 0 292.541015625 0 c 2
 39.541015625 0 l 1
 111.110351562 310 l 1
 22.1103515625 310 l 1
 40.810546875 391 l 1
 129.810546875 391 l 1
 198.83984375 690 l 1
 453.83984375 690 l 2
 545.83984375 690 611.068359375 665 649.525390625 615 c 0
580.65625 385.999023438 m 2
 598.202148438 461.999023438 595.001953125 518.166015625 571.057617188 554.499023438 c 0
 547.112304688 590.83203125 501.806640625 608.999023438 435.139648438 608.999023438 c 2
 271.139648438 608.999023438 l 1
 220.810546875 390.999023438 l 1
 390.810546875 390.999023438 l 1
 372.110351562 309.999023438 l 1
 202.110351562 309.999023438 l 1
 149.241210938 80.9990234375 l 1
 313.241210938 80.9990234375 l 2
 379.908203125 80.9990234375 433.487304688 98.666015625 473.977539062 133.999023438 c 0
 514.467773438 169.33203125 543.254882812 223.999023438 560.33984375 297.999023438 c 2
 580.65625 385.999023438 l 2
EndSplineSet
EndChar

StartChar: Ntilde
Encoding: 209 209 147
Width: 721
GlyphClass: 2
Flags: MW
HStem: 0 21G<-11.459 79.541 -11.459 -11.459 474.541 565.541 474.541 474.541> 670 20G<147.84 238.84 238.84 238.84 633.84 724.84 724.84 724.84> 748 70<526.721 526.894> 786 70<378.67 413.827>
LayerCount: 2
Fore
SplineSet
724.83984375 690 m 1xc0
 565.541015625 0 l 1
 474.541015625 0 l 1
 202.82421875 534 l 1
 79.541015625 0 l 1
 -11.458984375 0 l 1
 147.83984375 690 l 1
 238.83984375 690 l 1
 510.325195312 155 l 1
 633.83984375 690 l 1
 724.83984375 690 l 1xc0
316.622070312 819 m 1
 332.879882812 831.666992188 348.030273438 841 362.08203125 847 c 0
 376.134765625 853 391.16015625 856 407.16015625 856 c 0xd0
 420.494140625 856 431.942382812 854.333007812 441.505859375 851 c 0
 451.0703125 847.666992188 461.749023438 842.666992188 473.54296875 836 c 0
 484.825195312 830 494.619140625 825.5 502.92578125 822.5 c 0
 511.233398438 819.5 521.0546875 818 532.387695312 818 c 0xe0
 547.720703125 818 561.580078125 821 573.96484375 827 c 0
 586.350585938 833 601.08203125 842.666992188 618.16015625 856 c 1xd0
 601.538085938 784 l 1
 572.6640625 760 542.560546875 748 511.227539062 748 c 0xe0
 497.227539062 748 485.4453125 749.666992188 475.881835938 753 c 0
 466.318359375 756.333007812 455.639648438 761.333007812 443.845703125 768 c 0
 431.8984375 774 422.103515625 778.5 414.463867188 781.5 c 0
 406.823242188 784.5 397.336914062 786 386.00390625 786 c 0xd0
 371.336914062 786 357.810546875 783 345.42578125 777 c 0
 333.040039062 771 317.975585938 761.333007812 300.23046875 748 c 1xe0
 316.622070312 819 l 1
EndSplineSet
EndChar

StartChar: Ograve
Encoding: 210 210 148
Width: 695
GlyphClass: 2
Flags: MW
HStem: -9 82<249.061 307.463> 618 82<382.148 441.218>
LayerCount: 2
Fore
SplineSet
67.625 67.5 m 0
 29.7314453125 118.5 22.40625 194.333007812 45.6474609375 295 c 2
 68.96484375 396 l 2
 92.2060546875 496.666992188 134.879882812 572.5 196.987304688 623.5 c 0
 259.094726562 674.5 336.1484375 700 428.1484375 700 c 0
 519.481445312 700 584.094726562 674.5 621.987304688 623.5 c 0
 659.879882812 572.5 667.206054688 496.666992188 643.96484375 396 c 2
 620.647460938 295 l 2
 597.40625 194.333007812 554.731445312 118.5 492.625 67.5 c 0
 430.517578125 16.5 353.462890625 -9 261.462890625 -9 c 0
 170.129882812 -9 105.517578125 16.5 67.625 67.5 c 0
442.861328125 127 m 0
 483.83984375 163 513.024414062 218.66796875 530.416992188 294.000976562 c 2
 552.810546875 391.000976562 l 2
 570.818359375 469.000976562 567.721679688 526.333984375 543.51953125 563 c 0
 519.318359375 599.666992188 474.217773438 618 408.217773438 618 c 0
 341.55078125 618 287.818359375 599.666992188 247.01953125 563 c 0
 206.221679688 526.333007812 176.818359375 469 158.810546875 391 c 2
 136.416015625 294 l 2
 119.024414062 218.666992188 122.33984375 163 146.361328125 127 c 0
 170.3828125 91 215.727539062 73 282.39453125 73 c 0
 348.39453125 73 401.8828125 91 442.861328125 127 c 0
315.243164062 878.000976562 m 1
 423.243164062 878.000976562 l 1
 504.692382812 750.000976562 l 1
 424.692382812 750.000976562 l 1
 315.243164062 878.000976562 l 1
EndSplineSet
EndChar

StartChar: Oacute
Encoding: 211 211 149
Width: 695
GlyphClass: 2
Flags: MW
HStem: -9 82<249.061 307.463> 618 82<382.148 441.218>
LayerCount: 2
Fore
SplineSet
67.625 67.5 m 0
 29.7314453125 118.5 22.40625 194.333007812 45.6474609375 295 c 2
 68.96484375 396 l 2
 92.2060546875 496.666992188 134.879882812 572.5 196.987304688 623.5 c 0
 259.094726562 674.5 336.1484375 700 428.1484375 700 c 0
 519.481445312 700 584.094726562 674.5 621.987304688 623.5 c 0
 659.879882812 572.5 667.206054688 496.666992188 643.96484375 396 c 2
 620.647460938 295 l 2
 597.40625 194.333007812 554.731445312 118.5 492.625 67.5 c 0
 430.517578125 16.5 353.462890625 -9 261.462890625 -9 c 0
 170.129882812 -9 105.517578125 16.5 67.625 67.5 c 0
442.861328125 127 m 0
 483.83984375 163 513.024414062 218.66796875 530.416992188 294.000976562 c 2
 552.810546875 391.000976562 l 2
 570.818359375 469.000976562 567.721679688 526.333984375 543.51953125 563 c 0
 519.318359375 599.666992188 474.217773438 618 408.217773438 618 c 0
 341.55078125 618 287.818359375 599.666992188 247.01953125 563 c 0
 206.221679688 526.333007812 176.818359375 469 158.810546875 391 c 2
 136.416015625 294 l 2
 119.024414062 218.666992188 122.33984375 163 146.361328125 127 c 0
 170.3828125 91 215.727539062 73 282.39453125 73 c 0
 348.39453125 73 401.8828125 91 442.861328125 127 c 0
491.243164062 878.000976562 m 1
 598.243164062 878.000976562 l 1
 429.692382812 750.000976562 l 1
 349.692382812 750.000976562 l 1
 491.243164062 878.000976562 l 1
EndSplineSet
EndChar

StartChar: Ocircumflex
Encoding: 212 212 150
Width: 695
GlyphClass: 2
Flags: MW
HStem: -9 82<249.061 307.463> 618 82<382.148 441.218>
LayerCount: 2
Fore
SplineSet
67.625 67.5 m 0
 29.7314453125 118.5 22.40625 194.333007812 45.6474609375 295 c 2
 68.96484375 396 l 2
 92.2060546875 496.666992188 134.879882812 572.5 196.987304688 623.5 c 0
 259.094726562 674.5 336.1484375 700 428.1484375 700 c 0
 519.481445312 700 584.094726562 674.5 621.987304688 623.5 c 0
 659.879882812 572.5 667.206054688 496.666992188 643.96484375 396 c 2
 620.647460938 295 l 2
 597.40625 194.333007812 554.731445312 118.5 492.625 67.5 c 0
 430.517578125 16.5 353.462890625 -9 261.462890625 -9 c 0
 170.129882812 -9 105.517578125 16.5 67.625 67.5 c 0
442.861328125 127 m 0
 483.83984375 163 513.024414062 218.66796875 530.416992188 294.000976562 c 2
 552.810546875 391.000976562 l 2
 570.818359375 469.000976562 567.721679688 526.333984375 543.51953125 563 c 0
 519.318359375 599.666992188 474.217773438 618 408.217773438 618 c 0
 341.55078125 618 287.818359375 599.666992188 247.01953125 563 c 0
 206.221679688 526.333007812 176.818359375 469 158.810546875 391 c 2
 136.416015625 294 l 2
 119.024414062 218.666992188 122.33984375 163 146.361328125 127 c 0
 170.3828125 91 215.727539062 73 282.39453125 73 c 0
 348.39453125 73 401.8828125 91 442.861328125 127 c 0
438.245117188 891.000976562 m 1
 503.245117188 891.000976562 l 1
 600.538085938 745.000976562 l 1
 520.538085938 745.000976562 l 1
 458.31640625 835.000976562 l 1
 353.538085938 745.000976562 l 1
 273.538085938 745.000976562 l 1
 438.245117188 891.000976562 l 1
EndSplineSet
EndChar

StartChar: Otilde
Encoding: 213 213 151
Width: 695
GlyphClass: 2
Flags: MW
HStem: -9 82<249.061 307.463> 618 82<382.148 441.218> 748.001 70<517.721 517.894> 786.001 70<369.67 404.827>
LayerCount: 2
Fore
SplineSet
67.625 67.5 m 0xc0
 29.7314453125 118.5 22.40625 194.333007812 45.6474609375 295 c 2
 68.96484375 396 l 2
 92.2060546875 496.666992188 134.879882812 572.5 196.987304688 623.5 c 0
 259.094726562 674.5 336.1484375 700 428.1484375 700 c 0
 519.481445312 700 584.094726562 674.5 621.987304688 623.5 c 0
 659.879882812 572.5 667.206054688 496.666992188 643.96484375 396 c 2
 620.647460938 295 l 2
 597.40625 194.333007812 554.731445312 118.5 492.625 67.5 c 0
 430.517578125 16.5 353.462890625 -9 261.462890625 -9 c 0
 170.129882812 -9 105.517578125 16.5 67.625 67.5 c 0xc0
442.861328125 127 m 0
 483.83984375 163 513.024414062 218.66796875 530.416992188 294.000976562 c 2
 552.810546875 391.000976562 l 2
 570.818359375 469.000976562 567.721679688 526.333984375 543.51953125 563 c 0
 519.318359375 599.666992188 474.217773438 618 408.217773438 618 c 0
 341.55078125 618 287.818359375 599.666992188 247.01953125 563 c 0
 206.221679688 526.333007812 176.818359375 469 158.810546875 391 c 2
 136.416015625 294 l 2
 119.024414062 218.666992188 122.33984375 163 146.361328125 127 c 0
 170.3828125 91 215.727539062 73 282.39453125 73 c 0
 348.39453125 73 401.8828125 91 442.861328125 127 c 0
307.622070312 819.000976562 m 1
 323.879882812 831.66796875 339.030273438 841.000976562 353.083007812 847.000976562 c 0
 367.134765625 853.000976562 382.16015625 856.000976562 398.16015625 856.000976562 c 0xd0
 411.494140625 856.000976562 422.942382812 854.333984375 432.505859375 851.000976562 c 0
 442.0703125 847.66796875 452.749023438 842.66796875 464.54296875 836.000976562 c 0
 475.825195312 830.000976562 485.619140625 825.500976562 493.926757812 822.500976562 c 0
 502.233398438 819.500976562 512.0546875 818.000976562 523.387695312 818.000976562 c 0xe0
 538.720703125 818.000976562 552.580078125 821.000976562 564.965820312 827.000976562 c 0
 577.350585938 833.000976562 592.08203125 842.66796875 609.16015625 856.000976562 c 1xd0
 592.538085938 784.000976562 l 1
 563.6640625 760.000976562 533.560546875 748.000976562 502.227539062 748.000976562 c 0xe0
 488.227539062 748.000976562 476.4453125 749.66796875 466.881835938 753.000976562 c 0
 457.318359375 756.333984375 446.639648438 761.333984375 434.845703125 768.000976562 c 0
 422.8984375 774.000976562 413.104492188 778.500976562 405.463867188 781.500976562 c 0
 397.823242188 784.500976562 388.336914062 786.000976562 377.00390625 786.000976562 c 0xd0
 362.336914062 786.000976562 348.811523438 783.000976562 336.42578125 777.000976562 c 0
 324.041015625 771.000976562 308.975585938 761.333984375 291.23046875 748.000976562 c 1xe0
 307.622070312 819.000976562 l 1
EndSplineSet
EndChar

StartChar: Odieresis
Encoding: 214 214 152
Width: 695
GlyphClass: 2
Flags: MW
HStem: -9 82<249.061 307.463> 618 82<382.148 441.218> 759.001 95<312.703 375.771 290.771 397.703 527.703 589.771>
LayerCount: 2
Fore
SplineSet
67.625 67.5 m 0
 29.7314453125 118.5 22.40625 194.333007812 45.6474609375 295 c 2
 68.96484375 396 l 2
 92.2060546875 496.666992188 134.879882812 572.5 196.987304688 623.5 c 0
 259.094726562 674.5 336.1484375 700 428.1484375 700 c 0
 519.481445312 700 584.094726562 674.5 621.987304688 623.5 c 0
 659.879882812 572.5 667.206054688 496.666992188 643.96484375 396 c 2
 620.647460938 295 l 2
 597.40625 194.333007812 554.731445312 118.5 492.625 67.5 c 0
 430.517578125 16.5 353.462890625 -9 261.462890625 -9 c 0
 170.129882812 -9 105.517578125 16.5 67.625 67.5 c 0
442.861328125 127 m 0
 483.83984375 163 513.024414062 218.66796875 530.416992188 294.000976562 c 2
 552.810546875 391.000976562 l 2
 570.818359375 469.000976562 567.721679688 526.333984375 543.51953125 563 c 0
 519.318359375 599.666992188 474.217773438 618 408.217773438 618 c 0
 341.55078125 618 287.818359375 599.666992188 247.01953125 563 c 0
 206.221679688 526.333007812 176.818359375 469 158.810546875 391 c 2
 136.416015625 294 l 2
 119.024414062 218.666992188 122.33984375 163 146.361328125 127 c 0
 170.3828125 91 215.727539062 73 282.39453125 73 c 0
 348.39453125 73 401.8828125 91 442.861328125 127 c 0
312.703125 854.000976562 m 1
 397.703125 854.000976562 l 1
 375.770507812 759.000976562 l 1
 290.770507812 759.000976562 l 1
 312.703125 854.000976562 l 1
527.703125 854.000976562 m 1
 611.703125 854.000976562 l 1
 589.770507812 759.000976562 l 1
 505.770507812 759.000976562 l 1
 527.703125 854.000976562 l 1
EndSplineSet
EndChar

StartChar: multiply
Encoding: 215 215 153
Width: 509
GlyphClass: 2
Flags: W
LayerCount: 2
Fore
SplineSet
33.556640625 156 m 1
 181.491210938 277 l 1
 89.1953125 397 l 1
 155.662109375 451 l 1
 247.958007812 331 l 1
 395.662109375 451 l 1
 437.1953125 397 l 1
 289.491210938 277 l 1
 381.556640625 156 l 1
 315.08984375 102 l 1
 222.793945312 222 l 1
 75.08984375 102 l 1
 33.556640625 156 l 1
EndSplineSet
EndChar

StartChar: Oslash
Encoding: 216 216 154
Width: 695
GlyphClass: 2
Flags: MW
HStem: -9 82<256.06 307.462> 618 82<382.148 433.883>
LayerCount: 2
Fore
SplineSet
643.96484375 396 m 2
 620.646484375 295 l 2
 597.405273438 194.333007812 554.73046875 118.5 492.624023438 67.5 c 0
 430.516601562 16.5 353.461914062 -9 261.461914062 -9 c 0
 194.12890625 -9 141.028320312 5 102.16015625 33 c 1
 54.923828125 -20 l 1
 -17.076171875 -20 l 1
 64.1630859375 72 l 1
 29.501953125 124 23.330078125 198.333007812 45.6474609375 295 c 2
 68.96484375 396 l 2
 92.2060546875 496.666992188 134.879882812 572.5 196.987304688 623.5 c 0
 259.094726562 674.5 336.1484375 700 428.1484375 700 c 0
 496.1484375 700 549.25 686 587.452148438 658 c 1
 634.918945312 712 l 1
 705.918945312 712 l 1
 624.6796875 620 l 1
 660.161132812 568.666992188 666.58984375 494 643.96484375 396 c 2
134.169921875 150 m 1
 522.829101562 586 l 1
 497.75390625 607.333007812 459.549804688 618 408.216796875 618 c 0
 341.549804688 618 287.817382812 599.666992188 247.018554688 563 c 0
 206.220703125 526.333007812 176.817382812 469 158.809570312 391 c 2
 136.415039062 294 l 2
 122.255859375 232.666992188 121.506835938 184.666992188 134.169921875 150 c 1
552.809570312 391 m 2
 567.584960938 455 568.12890625 505 554.439453125 541 c 1
 165.78125 105 l 1
 190.856445312 83.6669921875 229.7265625 73 282.393554688 73 c 0
 348.393554688 73 401.881835938 91 442.860351562 127 c 0
 483.838867188 163 513.0234375 218.666992188 530.415039062 294 c 2
 552.809570312 391 l 2
EndSplineSet
EndChar

StartChar: Ugrave
Encoding: 217 217 155
Width: 692
GlyphClass: 2
Flags: MW
HStem: -6 80<218.625 304.156> 670 20G<147.84 238.84 238.84 238.84 604.84 695.84 695.84 695.84>
LayerCount: 2
Fore
SplineSet
75.0087890625 60.5 m 0
 36.91015625 104.833007812 27.095703125 167 45.5654296875 247 c 2
 147.83984375 690 l 1
 238.83984375 690 l 1
 137.951171875 253 l 2
 110.400390625 133.666992188 157.625 74 279.625 74 c 0
 401.625 74 476.400390625 133.666992188 503.951171875 253 c 2
 604.83984375 690 l 1
 695.83984375 690 l 1
 593.565429688 247 l 2
 575.095703125 167 536.576171875 104.833007812 478.008789062 60.5 c 0
 419.440429688 16.1669921875 347.15625 -6 261.15625 -6 c 0
 175.15625 -6 113.106445312 16.1669921875 75.0087890625 60.5 c 0
312.243164062 878 m 1
 420.243164062 878 l 1
 501.692382812 750 l 1
 421.692382812 750 l 1
 312.243164062 878 l 1
EndSplineSet
EndChar

StartChar: Uacute
Encoding: 218 218 156
Width: 692
GlyphClass: 2
Flags: MW
HStem: -6 80<218.625 304.156> 670 20G<147.84 238.84 238.84 238.84 604.84 695.84 695.84 695.84>
LayerCount: 2
Fore
SplineSet
75.0087890625 60.5 m 0
 36.91015625 104.833007812 27.095703125 167 45.5654296875 247 c 2
 147.83984375 690 l 1
 238.83984375 690 l 1
 137.951171875 253 l 2
 110.400390625 133.666992188 157.625 74 279.625 74 c 0
 401.625 74 476.400390625 133.666992188 503.951171875 253 c 2
 604.83984375 690 l 1
 695.83984375 690 l 1
 593.565429688 247 l 2
 575.095703125 167 536.576171875 104.833007812 478.008789062 60.5 c 0
 419.440429688 16.1669921875 347.15625 -6 261.15625 -6 c 0
 175.15625 -6 113.106445312 16.1669921875 75.0087890625 60.5 c 0
498.243164062 878 m 1
 605.243164062 878 l 1
 436.692382812 750 l 1
 356.692382812 750 l 1
 498.243164062 878 l 1
EndSplineSet
EndChar

StartChar: Ucircumflex
Encoding: 219 219 157
Width: 692
GlyphClass: 2
Flags: MW
HStem: -6 80<218.625 304.156> 670 20G<147.84 238.84 238.84 238.84 604.84 695.84 695.84 695.84>
LayerCount: 2
Fore
SplineSet
75.0087890625 60.5 m 0
 36.91015625 104.833007812 27.095703125 167 45.5654296875 247 c 2
 147.83984375 690 l 1
 238.83984375 690 l 1
 137.951171875 253 l 2
 110.400390625 133.666992188 157.625 74 279.625 74 c 0
 401.625 74 476.400390625 133.666992188 503.951171875 253 c 2
 604.83984375 690 l 1
 695.83984375 690 l 1
 593.565429688 247 l 2
 575.095703125 167 536.576171875 104.833007812 478.008789062 60.5 c 0
 419.440429688 16.1669921875 347.15625 -6 261.15625 -6 c 0
 175.15625 -6 113.106445312 16.1669921875 75.0087890625 60.5 c 0
435.244140625 891 m 1
 500.244140625 891 l 1
 597.538085938 745 l 1
 517.538085938 745 l 1
 455.31640625 835 l 1
 350.538085938 745 l 1
 270.538085938 745 l 1
 435.244140625 891 l 1
EndSplineSet
EndChar

StartChar: Udieresis
Encoding: 220 220 158
Width: 692
GlyphClass: 2
Flags: MW
HStem: -6 80<218.625 304.156> 670 20G<147.84 238.84 238.84 238.84 604.84 695.84 695.84 695.84> 759 95<309.702 372.77 287.77 394.702 524.702 586.77>
LayerCount: 2
Fore
SplineSet
75.0087890625 60.5 m 0
 36.91015625 104.833007812 27.095703125 167 45.5654296875 247 c 2
 147.83984375 690 l 1
 238.83984375 690 l 1
 137.951171875 253 l 2
 110.400390625 133.666992188 157.625 74 279.625 74 c 0
 401.625 74 476.400390625 133.666992188 503.951171875 253 c 2
 604.83984375 690 l 1
 695.83984375 690 l 1
 593.565429688 247 l 2
 575.095703125 167 536.576171875 104.833007812 478.008789062 60.5 c 0
 419.440429688 16.1669921875 347.15625 -6 261.15625 -6 c 0
 175.15625 -6 113.106445312 16.1669921875 75.0087890625 60.5 c 0
309.702148438 854 m 1
 394.702148438 854 l 1
 372.76953125 759 l 1
 287.76953125 759 l 1
 309.702148438 854 l 1
524.702148438 854 m 1
 608.702148438 854 l 1
 586.76953125 759 l 1
 502.76953125 759 l 1
 524.702148438 854 l 1
EndSplineSet
EndChar

StartChar: Yacute
Encoding: 221 221 159
Width: 580
GlyphClass: 2
Flags: MW
HStem: 0 21G<161.541 251.541 161.541 161.541> 670 20G<81.8398 183.84 183.84 183.84 547.84 649.84 649.84 649.84>
LayerCount: 2
Fore
SplineSet
315.72265625 278 m 1
 251.541015625 0 l 1
 161.541015625 0 l 1
 225.953125 279 l 1
 81.83984375 690 l 1
 183.83984375 690 l 1
 289.499023438 355 l 1
 547.83984375 690 l 1
 649.83984375 690 l 1
 315.72265625 278 l 1
442.243164062 878 m 1
 549.243164062 878 l 1
 380.692382812 750 l 1
 300.692382812 750 l 1
 442.243164062 878 l 1
EndSplineSet
EndChar

StartChar: Thorn
Encoding: 222 222 160
Width: 637
GlyphClass: 2
Flags: MW
HStem: 0 21G<-11.46 79.54 -11.46 -11.46> 155 81<134.024 321.324 115.324 342.024> 487 81<210.673 394.972 191.972 416.673> 670 20G<147.839 238.839 238.839 238.839>
LayerCount: 2
Fore
SplineSet
580.553710938 515.5 m 0
 613.140625 480.5 621.581054688 429 605.8828125 361 c 0
 590.491210938 294.333007812 558.549804688 243.333007812 510.059570312 208 c 0
 461.569335938 172.666992188 398.657226562 155 321.32421875 155 c 2
 115.32421875 155 l 1
 79.5400390625 0 l 1
 -11.4599609375 0 l 1
 147.838867188 690 l 1
 238.838867188 690 l 1
 210.672851562 568 l 1
 416.672851562 568 l 2
 493.33984375 568 547.966796875 550.5 580.553710938 515.5 c 0
458.450195312 266 m 0
 486.734375 286 505.80078125 317.333007812 515.651367188 360 c 0
 525.963867188 404.666992188 521.428710938 437 502.045898438 457 c 0
 482.663085938 477 446.971679688 487 394.971679688 487 c 2
 191.971679688 487 l 1
 134.024414062 236 l 1
 342.024414062 236 l 2
 391.357421875 236 430.166015625 246 458.450195312 266 c 0
EndSplineSet
EndChar

StartChar: germandbls
Encoding: 223 223 161
Width: 560
GlyphClass: 2
Flags: MW
HStem: -4 75<209.933 209.933 209.933 228.617 192.617 209.933> 382 75<298.049 305.733 280.733 329.049> 621.999 76.001<326.688 371.475>
VStem: 403.188 87.1963
LayerCount: 2
Fore
SplineSet
209.932617188 71 m 1
 240.932617188 70.9990234375 l 2
 272.266601562 70.9990234375 297.21484375 75.83203125 315.780273438 85.4990234375 c 0
 334.345703125 95.166015625 349.295898438 110.833007812 360.630859375 132.5 c 0
 371.965820312 154.166992188 382.251953125 185 391.486328125 225 c 0
 400.875 265.666992188 404.776367188 297 403.188476562 319 c 0
 401.599609375 341 393.293945312 357 378.26953125 367 c 0
 363.245117188 377 339.06640625 382 305.733398438 382 c 2
 280.733398438 382 l 1
 298.048828125 457 l 1
 329.048828125 457 l 2
 367.048828125 457 395.8828125 463.5 415.55078125 476.5 c 0
 435.21875 489.5 448.28515625 510 454.749023438 538 c 0
 461.521484375 567.333007812 456.446289062 588.666015625 439.524414062 601.999023438 c 0
 422.602539062 615.33203125 392.80859375 621.999023438 350.141601562 621.999023438 c 0
 301.474609375 621.999023438 264.19140625 612.83203125 238.291992188 594.499023438 c 0
 212.392578125 576.165039062 194.440429688 545.33203125 184.436523438 502 c 2
 68.541015625 0 l 1
 -16.458984375 0 l 1
 97.359375 493 l 2
 113.211914062 561.666992188 142.73046875 613 185.913085938 647 c 0
 229.095703125 681 288.6875 698 364.6875 698 c 0
 432.6875 698 481.903320312 684.5 512.336914062 657.5 c 0
 542.770507812 630.5 552.137695312 591.666992188 540.440429688 541 c 0
 533.668945312 511.666992188 522.088867188 487.5 505.703125 468.5 c 0
 489.31640625 449.5 467.481445312 434.333007812 440.198242188 423 c 1
 468.606445312 410.333007812 485.3359375 389.666015625 490.384765625 361 c 0
 495.43359375 332.333007812 491.03125 288 477.178710938 228 c 0
 463.634765625 169.333007812 447.220703125 123.5 427.934570312 90.5 c 0
 408.649414062 57.5 383.275390625 33.5 351.8125 18.5 c 0
 320.348632812 3.5 279.284179688 -4 228.6171875 -4 c 2
 192.6171875 -4 l 1
 209.932617188 71 l 1
EndSplineSet
EndChar

StartChar: agrave
Encoding: 224 224 162
Width: 549
GlyphClass: 2
Flags: MW
HStem: -6 69<159.085 185.155> 233.001 63.999<200.666 382.108 223.108 367.332> 448 71<266.028 326.969> 680.001 20G<189.147 297.147 297.147 297.147>
LayerCount: 2
Fore
SplineSet
450.395507812 471.5 m 0
 481.084960938 439.833007812 489.501953125 394 475.650390625 334 c 2
 398.540039062 0 l 1
 315.540039062 0 l 1
 328.930664062 58 l 1
 283.747070312 15.3330078125 223.155273438 -6 147.155273438 -6 c 0
 85.1552734375 -6 41.02734375 7.1669921875 14.7744140625 33.5 c 0
 -11.4794921875 59.8330078125 -18.8349609375 98 -7.291015625 148 c 0
 3.7900390625 196 28.9609375 232.833007812 68.2197265625 258.5 c 0
 107.478515625 284.166992188 159.108398438 297 223.108398438 297 c 2
 382.108398438 297 l 1
 390.188476562 332 l 2
 408.041992188 409.333007812 371.96875 448 281.96875 448 c 0
 242.635742188 448 211.110351562 440.666992188 187.390625 426 c 0
 163.671875 411.333007812 148.733398438 390.666015625 142.577148438 364 c 2
 141.884765625 361 l 1
 58.884765625 361 l 1
 59.5771484375 364 l 2
 70.6591796875 412 97.3935546875 449.833007812 139.780273438 477.5 c 0
 182.16796875 505.166992188 234.694335938 519 297.361328125 519 c 0
 368.694335938 519 419.706054688 503.166992188 450.395507812 471.5 c 0
299.47265625 95 m 0
 328.397460938 116.333007812 347.938476562 149.000976562 358.096679688 193.000976562 c 2
 367.33203125 233.000976562 l 1
 222.33203125 233.000976562 l 2
 178.999023438 233.000976562 145.587890625 226.16796875 122.099609375 212.500976562 c 0
 98.611328125 198.833984375 83.5576171875 177.666992188 76.939453125 149 c 0
 70.1669921875 119.666992188 75.1650390625 98 91.9326171875 84 c 0
 108.701171875 70 138.084960938 63 180.084960938 63 c 0
 230.751953125 63 270.547851562 73.6669921875 299.47265625 95 c 0
189.147460938 700.000976562 m 1
 297.147460938 700.000976562 l 1
 378.595703125 572.000976562 l 1
 298.595703125 572.000976562 l 1
 189.147460938 700.000976562 l 1
EndSplineSet
EndChar

StartChar: aacute
Encoding: 225 225 163
Width: 549
GlyphClass: 2
Flags: MW
HStem: -6 69<159.085 185.155> 233.001 63.999<200.666 382.108 223.108 367.332> 448 71<266.028 326.969> 680.001 20G<370.147 477.147 477.147 477.147>
LayerCount: 2
Fore
SplineSet
450.395507812 471.5 m 0
 481.084960938 439.833007812 489.501953125 394 475.650390625 334 c 2
 398.540039062 0 l 1
 315.540039062 0 l 1
 328.930664062 58 l 1
 283.747070312 15.3330078125 223.155273438 -6 147.155273438 -6 c 0
 85.1552734375 -6 41.02734375 7.1669921875 14.7744140625 33.5 c 0
 -11.4794921875 59.8330078125 -18.8349609375 98 -7.291015625 148 c 0
 3.7900390625 196 28.9609375 232.833007812 68.2197265625 258.5 c 0
 107.478515625 284.166992188 159.108398438 297 223.108398438 297 c 2
 382.108398438 297 l 1
 390.188476562 332 l 2
 408.041992188 409.333007812 371.96875 448 281.96875 448 c 0
 242.635742188 448 211.110351562 440.666992188 187.390625 426 c 0
 163.671875 411.333007812 148.733398438 390.666015625 142.577148438 364 c 2
 141.884765625 361 l 1
 58.884765625 361 l 1
 59.5771484375 364 l 2
 70.6591796875 412 97.3935546875 449.833007812 139.780273438 477.5 c 0
 182.16796875 505.166992188 234.694335938 519 297.361328125 519 c 0
 368.694335938 519 419.706054688 503.166992188 450.395507812 471.5 c 0
299.47265625 95 m 0
 328.397460938 116.333007812 347.938476562 149.000976562 358.096679688 193.000976562 c 2
 367.33203125 233.000976562 l 1
 222.33203125 233.000976562 l 2
 178.999023438 233.000976562 145.587890625 226.16796875 122.099609375 212.500976562 c 0
 98.611328125 198.833984375 83.5576171875 177.666992188 76.939453125 149 c 0
 70.1669921875 119.666992188 75.1650390625 98 91.9326171875 84 c 0
 108.701171875 70 138.084960938 63 180.084960938 63 c 0
 230.751953125 63 270.547851562 73.6669921875 299.47265625 95 c 0
370.147460938 700.000976562 m 1
 477.147460938 700.000976562 l 1
 308.595703125 572.000976562 l 1
 228.595703125 572.000976562 l 1
 370.147460938 700.000976562 l 1
EndSplineSet
EndChar

StartChar: acircumflex
Encoding: 226 226 164
Width: 549
GlyphClass: 2
Flags: MW
HStem: -6 69<159.085 185.155> 233.001 63.999<200.666 382.108 223.108 367.332> 448 71<266.028 326.969>
LayerCount: 2
Fore
SplineSet
450.395507812 471.5 m 0
 481.084960938 439.833007812 489.501953125 394 475.650390625 334 c 2
 398.540039062 0 l 1
 315.540039062 0 l 1
 328.930664062 58 l 1
 283.747070312 15.3330078125 223.155273438 -6 147.155273438 -6 c 0
 85.1552734375 -6 41.02734375 7.1669921875 14.7744140625 33.5 c 0
 -11.4794921875 59.8330078125 -18.8349609375 98 -7.291015625 148 c 0
 3.7900390625 196 28.9609375 232.833007812 68.2197265625 258.5 c 0
 107.478515625 284.166992188 159.108398438 297 223.108398438 297 c 2
 382.108398438 297 l 1
 390.188476562 332 l 2
 408.041992188 409.333007812 371.96875 448 281.96875 448 c 0
 242.635742188 448 211.110351562 440.666992188 187.390625 426 c 0
 163.671875 411.333007812 148.733398438 390.666015625 142.577148438 364 c 2
 141.884765625 361 l 1
 58.884765625 361 l 1
 59.5771484375 364 l 2
 70.6591796875 412 97.3935546875 449.833007812 139.780273438 477.5 c 0
 182.16796875 505.166992188 234.694335938 519 297.361328125 519 c 0
 368.694335938 519 419.706054688 503.166992188 450.395507812 471.5 c 0
299.47265625 95 m 0
 328.397460938 116.333007812 347.938476562 149.000976562 358.096679688 193.000976562 c 2
 367.33203125 233.000976562 l 1
 222.33203125 233.000976562 l 2
 178.999023438 233.000976562 145.587890625 226.16796875 122.099609375 212.500976562 c 0
 98.611328125 198.833984375 83.5576171875 177.666992188 76.939453125 149 c 0
 70.1669921875 119.666992188 75.1650390625 98 91.9326171875 84 c 0
 108.701171875 70 138.084960938 63 180.084960938 63 c 0
 230.751953125 63 270.547851562 73.6669921875 299.47265625 95 c 0
312.1484375 713.000976562 m 1
 377.1484375 713.000976562 l 1
 474.44140625 567.000976562 l 1
 394.44140625 567.000976562 l 1
 332.219726562 657.000976562 l 1
 227.44140625 567.000976562 l 1
 147.44140625 567.000976562 l 1
 312.1484375 713.000976562 l 1
EndSplineSet
EndChar

StartChar: atilde
Encoding: 227 227 165
Width: 549
GlyphClass: 2
Flags: MW
HStem: -6 69<159.085 185.155> 233.001 63.999<200.666 382.108 223.108 367.332> 448 71<266.028 326.969> 570.001 70<391.626 391.799> 608.001 70<243.574 278.735>
LayerCount: 2
Fore
SplineSet
450.395507812 471.5 m 0xe0
 481.084960938 439.833007812 489.501953125 394 475.650390625 334 c 2
 398.540039062 0 l 1
 315.540039062 0 l 1
 328.930664062 58 l 1
 283.747070312 15.3330078125 223.155273438 -6 147.155273438 -6 c 0
 85.1552734375 -6 41.02734375 7.1669921875 14.7744140625 33.5 c 0
 -11.4794921875 59.8330078125 -18.8349609375 98 -7.291015625 148 c 0
 3.7900390625 196 28.9609375 232.833007812 68.2197265625 258.5 c 0
 107.478515625 284.166992188 159.108398438 297 223.108398438 297 c 2
 382.108398438 297 l 1
 390.188476562 332 l 2
 408.041992188 409.333007812 371.96875 448 281.96875 448 c 0
 242.635742188 448 211.110351562 440.666992188 187.390625 426 c 0
 163.671875 411.333007812 148.733398438 390.666015625 142.577148438 364 c 2
 141.884765625 361 l 1
 58.884765625 361 l 1
 59.5771484375 364 l 2
 70.6591796875 412 97.3935546875 449.833007812 139.780273438 477.5 c 0
 182.16796875 505.166992188 234.694335938 519 297.361328125 519 c 0
 368.694335938 519 419.706054688 503.166992188 450.395507812 471.5 c 0xe0
299.47265625 95 m 0
 328.397460938 116.333007812 347.938476562 149.000976562 358.096679688 193.000976562 c 2
 367.33203125 233.000976562 l 1
 222.33203125 233.000976562 l 2
 178.999023438 233.000976562 145.587890625 226.16796875 122.099609375 212.500976562 c 0
 98.611328125 198.833984375 83.5576171875 177.666992188 76.939453125 149 c 0
 70.1669921875 119.666992188 75.1650390625 98 91.9326171875 84 c 0
 108.701171875 70 138.084960938 63 180.084960938 63 c 0
 230.751953125 63 270.547851562 73.6669921875 299.47265625 95 c 0
181.525390625 641.000976562 m 1
 197.783203125 653.66796875 212.9375 663.000976562 226.990234375 669.000976562 c 0
 241.041992188 675.000976562 256.068359375 678.000976562 272.068359375 678.000976562 c 0xe8
 285.401367188 678.000976562 296.848632812 676.333984375 306.413085938 673.000976562 c 0
 315.9765625 669.66796875 326.655273438 664.66796875 338.448242188 658.000976562 c 0
 349.73046875 652.000976562 359.524414062 647.500976562 367.83203125 644.500976562 c 0
 376.139648438 641.500976562 385.959960938 640.000976562 397.29296875 640.000976562 c 0xf0
 412.625976562 640.000976562 426.485351562 643.000976562 438.87109375 649.000976562 c 0
 451.255859375 655.000976562 465.98828125 664.66796875 483.06640625 678.000976562 c 1xe8
 466.443359375 606.000976562 l 1
 437.569335938 582.000976562 407.465820312 570.000976562 376.1328125 570.000976562 c 0xf0
 362.1328125 570.000976562 350.350585938 571.66796875 340.787109375 575.000976562 c 0
 331.223632812 578.333984375 320.544921875 583.333984375 308.751953125 590.000976562 c 0
 296.802734375 596.000976562 287.008789062 600.500976562 279.368164062 603.500976562 c 0
 271.7265625 606.500976562 262.240234375 608.000976562 250.907226562 608.000976562 c 0xe8
 236.240234375 608.000976562 222.71484375 605.000976562 210.329101562 599.000976562 c 0
 197.944335938 593.000976562 182.87890625 583.333984375 165.133789062 570.000976562 c 1xf0
 181.525390625 641.000976562 l 1
EndSplineSet
EndChar

StartChar: adieresis
Encoding: 228 228 166
Width: 549
GlyphClass: 2
Flags: MW
HStem: -6 69<159.085 185.155> 233.001 63.999<200.666 382.108 223.108 367.332> 448 71<266.028 326.969> 581.001 95<186.606 249.674 164.674 271.606 401.606 463.674>
LayerCount: 2
Fore
SplineSet
450.395507812 471.5 m 0
 481.084960938 439.833007812 489.501953125 394 475.650390625 334 c 2
 398.540039062 0 l 1
 315.540039062 0 l 1
 328.930664062 58 l 1
 283.747070312 15.3330078125 223.155273438 -6 147.155273438 -6 c 0
 85.1552734375 -6 41.02734375 7.1669921875 14.7744140625 33.5 c 0
 -11.4794921875 59.8330078125 -18.8349609375 98 -7.291015625 148 c 0
 3.7900390625 196 28.9609375 232.833007812 68.2197265625 258.5 c 0
 107.478515625 284.166992188 159.108398438 297 223.108398438 297 c 2
 382.108398438 297 l 1
 390.188476562 332 l 2
 408.041992188 409.333007812 371.96875 448 281.96875 448 c 0
 242.635742188 448 211.110351562 440.666992188 187.390625 426 c 0
 163.671875 411.333007812 148.733398438 390.666015625 142.577148438 364 c 2
 141.884765625 361 l 1
 58.884765625 361 l 1
 59.5771484375 364 l 2
 70.6591796875 412 97.3935546875 449.833007812 139.780273438 477.5 c 0
 182.16796875 505.166992188 234.694335938 519 297.361328125 519 c 0
 368.694335938 519 419.706054688 503.166992188 450.395507812 471.5 c 0
299.47265625 95 m 0
 328.397460938 116.333007812 347.938476562 149.000976562 358.096679688 193.000976562 c 2
 367.33203125 233.000976562 l 1
 222.33203125 233.000976562 l 2
 178.999023438 233.000976562 145.587890625 226.16796875 122.099609375 212.500976562 c 0
 98.611328125 198.833984375 83.5576171875 177.666992188 76.939453125 149 c 0
 70.1669921875 119.666992188 75.1650390625 98 91.9326171875 84 c 0
 108.701171875 70 138.084960938 63 180.084960938 63 c 0
 230.751953125 63 270.547851562 73.6669921875 299.47265625 95 c 0
186.606445312 676.000976562 m 1
 271.606445312 676.000976562 l 1
 249.673828125 581.000976562 l 1
 164.673828125 581.000976562 l 1
 186.606445312 676.000976562 l 1
401.606445312 676.000976562 m 1
 485.606445312 676.000976562 l 1
 463.673828125 581.000976562 l 1
 379.673828125 581.000976562 l 1
 401.606445312 676.000976562 l 1
EndSplineSet
EndChar

StartChar: aring
Encoding: 229 229 167
Width: 549
GlyphClass: 2
Flags: MW
HStem: -6 69<159.085 185.155> 233.001 63.999<200.666 382.108 223.108 367.332> 448 71<266.028 326.969> 562.001 42<312.65 323.954> 708.001 43<340.254 351.328>
LayerCount: 2
Fore
SplineSet
450.395507812 471.5 m 0
 481.084960938 439.833007812 489.501953125 394 475.650390625 334 c 2
 398.540039062 0 l 1
 315.540039062 0 l 1
 328.930664062 58 l 1
 283.747070312 15.3330078125 223.155273438 -6 147.155273438 -6 c 0
 85.1552734375 -6 41.02734375 7.1669921875 14.7744140625 33.5 c 0
 -11.4794921875 59.8330078125 -18.8349609375 98 -7.291015625 148 c 0
 3.7900390625 196 28.9609375 232.833007812 68.2197265625 258.5 c 0
 107.478515625 284.166992188 159.108398438 297 223.108398438 297 c 2
 382.108398438 297 l 1
 390.188476562 332 l 2
 408.041992188 409.333007812 371.96875 448 281.96875 448 c 0
 242.635742188 448 211.110351562 440.666992188 187.390625 426 c 0
 163.671875 411.333007812 148.733398438 390.666015625 142.577148438 364 c 2
 141.884765625 361 l 1
 58.884765625 361 l 1
 59.5771484375 364 l 2
 70.6591796875 412 97.3935546875 449.833007812 139.780273438 477.5 c 0
 182.16796875 505.166992188 234.694335938 519 297.361328125 519 c 0
 368.694335938 519 419.706054688 503.166992188 450.395507812 471.5 c 0
299.47265625 95 m 0
 328.397460938 116.333007812 347.938476562 149.000976562 358.096679688 193.000976562 c 2
 367.33203125 233.000976562 l 1
 222.33203125 233.000976562 l 2
 178.999023438 233.000976562 145.587890625 226.16796875 122.099609375 212.500976562 c 0
 98.611328125 198.833984375 83.5576171875 177.666992188 76.939453125 149 c 0
 70.1669921875 119.666992188 75.1650390625 98 91.9326171875 84 c 0
 108.701171875 70 138.084960938 63 180.084960938 63 c 0
 230.751953125 63 270.547851562 73.6669921875 299.47265625 95 c 0
248.905273438 588.500976562 m 0
 235.317382812 606.16796875 231.678710938 628.66796875 237.989257812 656.000976562 c 0
 244.298828125 683.333984375 258.365234375 706.000976562 280.1875 724.000976562 c 0
 302.010742188 742.000976562 326.587890625 751.000976562 353.920898438 751.000976562 c 0
 380.587890625 751.000976562 400.84375 742.000976562 414.6875 724.000976562 c 0
 428.532226562 706.000976562 432.298828125 683.333984375 425.989257812 656.000976562 c 0
 419.83203125 629.333984375 405.84375 607.000976562 384.020507812 589.000976562 c 0
 362.198242188 571.000976562 337.620117188 562.000976562 310.287109375 562.000976562 c 0
 282.954101562 562.000976562 262.493164062 570.833984375 248.905273438 588.500976562 c 0
359.446289062 619.000976562 m 0
 371.088867188 629.000976562 378.602539062 641.333984375 381.989257812 656.000976562 c 0
 385.528320312 671.333984375 383.748046875 683.833984375 376.646484375 693.500976562 c 0
 369.544921875 703.16796875 358.661132812 708.000976562 343.994140625 708.000976562 c 0
 329.327148438 708.000976562 316.2109375 703.16796875 304.646484375 693.500976562 c 0
 293.08203125 683.833984375 285.528320312 671.333984375 281.989257812 656.000976562 c 0
 278.602539062 641.333984375 280.422851562 629.000976562 287.446289062 619.000976562 c 0
 294.470703125 609.000976562 305.31640625 604.000976562 319.983398438 604.000976562 c 0
 334.650390625 604.000976562 347.8046875 609.000976562 359.446289062 619.000976562 c 0
EndSplineSet
EndChar

StartChar: ae
Encoding: 230 230 168
Width: 901
GlyphClass: 2
Flags: MW
HStem: -8.99902 74<516.881 572.796> 235 64.001<452.795 749.57 467.57 749.57 467.57 819.795> 448 71<266.028 326.969>
LayerCount: 2
Fore
SplineSet
452.794921875 235 m 1
 451.872070312 231.000976562 l 2
 426.322265625 120.333984375 465.21484375 65.0009765625 568.547851562 65.0009765625 c 0
 607.215820312 65.0009765625 639.4609375 74.0009765625 665.28125 92.0009765625 c 0
 691.103515625 110.000976562 707.990234375 133.333984375 715.942382812 162.000976562 c 2
 716.634765625 165.000976562 l 1
 800.634765625 165.000976562 l 1
 799.7109375 161.000976562 l 2
 791.810546875 129.66796875 776.525390625 101.000976562 753.85546875 75.0009765625 c 0
 731.185546875 49.0009765625 702.453125 28.5009765625 667.657226562 13.5009765625 c 0
 632.861328125 -1.4990234375 594.129882812 -8.9990234375 551.462890625 -8.9990234375 c 0
 462.795898438 -8.9990234375 404.4140625 19.66796875 376.317382812 77.0009765625 c 1
 324.055664062 21.0009765625 251.923828125 -6.9990234375 159.923828125 -6.9990234375 c 0
 95.923828125 -6.9990234375 49.24609375 6.66796875 19.8896484375 34.0009765625 c 0
 -9.466796875 61.333984375 -18.4501953125 99.6669921875 -7.060546875 149 c 0
 4.021484375 197 29.19140625 233.833007812 68.4501953125 259.5 c 0
 107.708984375 285.166992188 159.338867188 298 223.338867188 298 c 2
 382.338867188 298 l 1
 390.188476562 332 l 2
 408.041992188 409.333007812 371.96875 448 281.96875 448 c 0
 242.635742188 448 211.110351562 440.666992188 187.390625 426 c 0
 163.671875 411.333007812 148.733398438 390.666015625 142.577148438 364 c 2
 141.884765625 361 l 1
 58.884765625 361 l 1
 59.5771484375 364 l 2
 70.6591796875 412 97.3935546875 449.833007812 139.780273438 477.5 c 0
 182.16796875 505.166992188 234.694335938 519 297.361328125 519 c 0
 384.6953125 519 441.564453125 495.333007812 467.969726562 448 c 1
 492.84375 472 521.576171875 490.333007812 554.16796875 503 c 0
 586.758789062 515.666992188 622.0546875 522 660.0546875 522 c 0
 730.721679688 522 781.552734375 502.5 812.548828125 463.5 c 0
 843.544921875 424.5 850.500976562 368 833.416015625 294 c 2
 819.794921875 235 l 1
 452.794921875 235 l 1
533.8125 410.500976562 m 0
 503.862304688 386.16796875 481.780273438 349.000976562 467.5703125 299.000976562 c 1
 749.5703125 299.000976562 l 1
 751.416992188 307.000976562 l 2
 762.344726562 354.333984375 758.463867188 389.500976562 739.7734375 412.500976562 c 0
 721.083007812 435.500976562 689.071289062 447.000976562 643.73828125 447.000976562 c 0
 600.404296875 447.000976562 563.762695312 434.833984375 533.8125 410.500976562 c 0
299.819335938 96.5009765625 m 0
 328.974609375 118.833984375 348.556640625 151.668945312 358.560546875 195.001953125 c 2
 367.795898438 235.001953125 l 1
 222.795898438 235.001953125 l 2
 180.12890625 235.001953125 146.883789062 228.168945312 123.061523438 214.501953125 c 0
 99.2392578125 200.834960938 83.9423828125 179.334960938 77.1708984375 150.001953125 c 0
 70.552734375 121.334960938 76.216796875 99.66796875 94.1640625 85.0009765625 c 0
 112.111328125 70.333984375 142.41796875 63.0009765625 185.084960938 63.0009765625 c 0
 232.41796875 63.0009765625 270.663085938 74.16796875 299.819335938 96.5009765625 c 0
EndSplineSet
EndChar

StartChar: ccedilla
Encoding: 231 231 169
Width: 553
GlyphClass: 2
Flags: MW
HStem: -152 21G<70.4502 156.45 70.4502 70.4502> 446.001 75.999<286.388 327.51>
LayerCount: 2
Fore
SplineSet
410.958007812 331 m 1
 412.114257812 336.000976562 l 2
 420.1171875 370.66796875 415.017578125 397.66796875 396.814453125 417.000976562 c 0
 378.610351562 436.333984375 348.509765625 446.000976562 306.509765625 446.000976562 c 0
 206.509765625 446.000976562 143.734375 390.66796875 118.185546875 280.000976562 c 2
 107.334960938 233.000976562 l 2
 81.630859375 121.66796875 118.779296875 66.0009765625 218.779296875 66.0009765625 c 0
 260.779296875 66.0009765625 295.344726562 75.66796875 322.474609375 95.0009765625 c 0
 349.60546875 114.333984375 367.094726562 141.000976562 374.944335938 175.000976562 c 2
 375.8671875 179.000976562 l 1
 458.8671875 179.000976562 l 1
 457.944335938 175.000976562 l 2
 446.708984375 126.333984375 423.268554688 86.1669921875 387.624023438 54.5 c 0
 351.98046875 22.8330078125 307.901367188 3 255.387695312 -5 c 1
 156.450195312 -152 l 1
 70.4501953125 -152 l 1
 177.6953125 -8 l 1
 111.951171875 -4 65.2744140625 18.3330078125 37.6630859375 59 c 0
 10.0517578125 99.6669921875 4.7880859375 157 21.873046875 231 c 2
 33.646484375 282 l 2
 51.654296875 360 86.05859375 419.5 136.856445312 460.5 c 0
 187.655273438 501.5 249.721679688 522 323.0546875 522 c 0
 390.387695312 522 439.245117188 505.5 469.625976562 472.5 c 0
 500.0078125 439.5 508.502929688 394 495.112304688 336 c 2
 493.958007812 331 l 1
 410.958007812 331 l 1
EndSplineSet
EndChar

StartChar: egrave
Encoding: 232 232 170
Width: 557
GlyphClass: 2
Flags: MW
HStem: -9 74<171.88 225.796> 235 64<107.795 404.568 122.568 404.568 122.568 474.795> 447 75<280.388 321.071> 680 20G<204.146 312.146 312.146 312.146>
LayerCount: 2
Fore
SplineSet
107.794921875 235 m 1
 106.87109375 231 l 2
 81.3212890625 120.333007812 120.213867188 65 223.546875 65 c 0
 262.879882812 65 295.49609375 74.1669921875 321.395507812 92.5 c 0
 347.294921875 110.833007812 363.810546875 134 370.94140625 162 c 2
 371.634765625 165 l 1
 455.634765625 165 l 1
 454.7109375 161 l 2
 446.65625 129 431.166015625 100.166992188 408.240234375 74.5 c 0
 385.315429688 48.8330078125 356.288085938 28.5 321.158203125 13.5 c 0
 286.02734375 -1.5 247.12890625 -9 204.462890625 -9 c 0
 129.795898438 -9 76.2724609375 11.8330078125 43.892578125 53.5 c 0
 11.51171875 95.1669921875 4.556640625 156 23.0263671875 236 c 2
 32.4912109375 277 l 2
 50.6533203125 355.666992188 84.62109375 416.166992188 134.39453125 458.5 c 0
 184.166992188 500.833007812 244.721679688 522 316.0546875 522 c 0
 386.0546875 522 436.552734375 502.5 467.548828125 463.5 c 0
 498.544921875 424.5 505.577148438 368.333007812 488.647460938 295 c 2
 474.794921875 235 l 1
 107.794921875 235 l 1
188.811523438 410.5 m 0
 158.860351562 386.166992188 136.779296875 349 122.568359375 299 c 1
 404.568359375 299 l 1
 406.646484375 308 l 2
 417.419921875 354.666992188 413.294921875 389.5 394.272460938 412.5 c 0
 375.249023438 435.5 343.404296875 447 298.737304688 447 c 0
 255.404296875 447 218.76171875 434.833007812 188.811523438 410.5 c 0
204.146484375 700 m 1
 312.146484375 700 l 1
 393.595703125 572 l 1
 313.595703125 572 l 1
 204.146484375 700 l 1
EndSplineSet
EndChar

StartChar: eacute
Encoding: 233 233 171
Width: 557
GlyphClass: 2
Flags: MW
HStem: -9 74<171.88 225.796> 235 64<107.795 404.568 122.568 404.568 122.568 474.795> 447 75<280.388 321.071> 680 20G<383.146 490.146 490.146 490.146>
LayerCount: 2
Fore
SplineSet
107.794921875 235 m 1
 106.87109375 231 l 2
 81.3212890625 120.333007812 120.213867188 65 223.546875 65 c 0
 262.879882812 65 295.49609375 74.1669921875 321.395507812 92.5 c 0
 347.294921875 110.833007812 363.810546875 134 370.94140625 162 c 2
 371.634765625 165 l 1
 455.634765625 165 l 1
 454.7109375 161 l 2
 446.65625 129 431.166015625 100.166992188 408.240234375 74.5 c 0
 385.315429688 48.8330078125 356.288085938 28.5 321.158203125 13.5 c 0
 286.02734375 -1.5 247.12890625 -9 204.462890625 -9 c 0
 129.795898438 -9 76.2724609375 11.8330078125 43.892578125 53.5 c 0
 11.51171875 95.1669921875 4.556640625 156 23.0263671875 236 c 2
 32.4912109375 277 l 2
 50.6533203125 355.666992188 84.62109375 416.166992188 134.39453125 458.5 c 0
 184.166992188 500.833007812 244.721679688 522 316.0546875 522 c 0
 386.0546875 522 436.552734375 502.5 467.548828125 463.5 c 0
 498.544921875 424.5 505.577148438 368.333007812 488.647460938 295 c 2
 474.794921875 235 l 1
 107.794921875 235 l 1
188.811523438 410.5 m 0
 158.860351562 386.166992188 136.779296875 349 122.568359375 299 c 1
 404.568359375 299 l 1
 406.646484375 308 l 2
 417.419921875 354.666992188 413.294921875 389.5 394.272460938 412.5 c 0
 375.249023438 435.5 343.404296875 447 298.737304688 447 c 0
 255.404296875 447 218.76171875 434.833007812 188.811523438 410.5 c 0
383.146484375 700 m 1
 490.146484375 700 l 1
 321.595703125 572 l 1
 241.595703125 572 l 1
 383.146484375 700 l 1
EndSplineSet
EndChar

StartChar: ecircumflex
Encoding: 234 234 172
Width: 557
GlyphClass: 2
Flags: MW
HStem: -9 74<171.88 225.796> 235 64<107.795 404.568 122.568 404.568 122.568 474.795> 447 75<280.388 321.071>
LayerCount: 2
Fore
SplineSet
107.794921875 235 m 1
 106.87109375 231 l 2
 81.3212890625 120.333007812 120.213867188 65 223.546875 65 c 0
 262.879882812 65 295.49609375 74.1669921875 321.395507812 92.5 c 0
 347.294921875 110.833007812 363.810546875 134 370.94140625 162 c 2
 371.634765625 165 l 1
 455.634765625 165 l 1
 454.7109375 161 l 2
 446.65625 129 431.166015625 100.166992188 408.240234375 74.5 c 0
 385.315429688 48.8330078125 356.288085938 28.5 321.158203125 13.5 c 0
 286.02734375 -1.5 247.12890625 -9 204.462890625 -9 c 0
 129.795898438 -9 76.2724609375 11.8330078125 43.892578125 53.5 c 0
 11.51171875 95.1669921875 4.556640625 156 23.0263671875 236 c 2
 32.4912109375 277 l 2
 50.6533203125 355.666992188 84.62109375 416.166992188 134.39453125 458.5 c 0
 184.166992188 500.833007812 244.721679688 522 316.0546875 522 c 0
 386.0546875 522 436.552734375 502.5 467.548828125 463.5 c 0
 498.544921875 424.5 505.577148438 368.333007812 488.647460938 295 c 2
 474.794921875 235 l 1
 107.794921875 235 l 1
188.811523438 410.5 m 0
 158.860351562 386.166992188 136.779296875 349 122.568359375 299 c 1
 404.568359375 299 l 1
 406.646484375 308 l 2
 417.419921875 354.666992188 413.294921875 389.5 394.272460938 412.5 c 0
 375.249023438 435.5 343.404296875 447 298.737304688 447 c 0
 255.404296875 447 218.76171875 434.833007812 188.811523438 410.5 c 0
327.1484375 713 m 1
 392.1484375 713 l 1
 489.44140625 567 l 1
 409.44140625 567 l 1
 347.219726562 657 l 1
 242.44140625 567 l 1
 162.44140625 567 l 1
 327.1484375 713 l 1
EndSplineSet
EndChar

StartChar: edieresis
Encoding: 235 235 173
Width: 557
GlyphClass: 2
Flags: MW
HStem: -9 74<171.88 225.796> 235 64<107.795 404.568 122.568 404.568 122.568 474.795> 447 75<280.388 321.071> 581 95<201.606 264.674 179.674 286.606 416.606 478.674>
LayerCount: 2
Fore
SplineSet
107.794921875 235 m 1
 106.87109375 231 l 2
 81.3212890625 120.333007812 120.213867188 65 223.546875 65 c 0
 262.879882812 65 295.49609375 74.1669921875 321.395507812 92.5 c 0
 347.294921875 110.833007812 363.810546875 134 370.94140625 162 c 2
 371.634765625 165 l 1
 455.634765625 165 l 1
 454.7109375 161 l 2
 446.65625 129 431.166015625 100.166992188 408.240234375 74.5 c 0
 385.315429688 48.8330078125 356.288085938 28.5 321.158203125 13.5 c 0
 286.02734375 -1.5 247.12890625 -9 204.462890625 -9 c 0
 129.795898438 -9 76.2724609375 11.8330078125 43.892578125 53.5 c 0
 11.51171875 95.1669921875 4.556640625 156 23.0263671875 236 c 2
 32.4912109375 277 l 2
 50.6533203125 355.666992188 84.62109375 416.166992188 134.39453125 458.5 c 0
 184.166992188 500.833007812 244.721679688 522 316.0546875 522 c 0
 386.0546875 522 436.552734375 502.5 467.548828125 463.5 c 0
 498.544921875 424.5 505.577148438 368.333007812 488.647460938 295 c 2
 474.794921875 235 l 1
 107.794921875 235 l 1
188.811523438 410.5 m 0
 158.860351562 386.166992188 136.779296875 349 122.568359375 299 c 1
 404.568359375 299 l 1
 406.646484375 308 l 2
 417.419921875 354.666992188 413.294921875 389.5 394.272460938 412.5 c 0
 375.249023438 435.5 343.404296875 447 298.737304688 447 c 0
 255.404296875 447 218.76171875 434.833007812 188.811523438 410.5 c 0
201.606445312 676 m 1
 286.606445312 676 l 1
 264.673828125 581 l 1
 179.673828125 581 l 1
 201.606445312 676 l 1
416.606445312 676 m 1
 500.606445312 676 l 1
 478.673828125 581 l 1
 394.673828125 581 l 1
 416.606445312 676 l 1
EndSplineSet
EndChar

StartChar: igrave
Encoding: 236 236 174
Width: 234
GlyphClass: 2
Flags: MW
HStem: 0 21G<-9.45898 75.541 -9.45898 -9.45898> 492 20G<108.745 193.745 193.745 193.745> 680 20G<42.1484 150.148 150.148 150.148>
VStem: -9.45898 241.057
LayerCount: 2
Fore
SplineSet
108.745117188 512 m 1
 193.745117188 512 l 1
 75.541015625 0 l 1
 -9.458984375 0 l 1
 108.745117188 512 l 1
42.1484375 700 m 1
 150.1484375 700 l 1
 231.59765625 572 l 1
 151.59765625 572 l 1
 42.1484375 700 l 1
EndSplineSet
EndChar

StartChar: iacute
Encoding: 237 237 175
Width: 234
GlyphClass: 2
Flags: MW
HStem: 0 21G<-9.45898 75.541 -9.45898 -9.45898> 492 20G<108.745 193.745 193.745 193.745> 680 20G<238.148 345.148 345.148 345.148>
LayerCount: 2
Fore
SplineSet
108.745117188 512 m 1
 193.745117188 512 l 1
 75.541015625 0 l 1
 -9.458984375 0 l 1
 108.745117188 512 l 1
238.1484375 700 m 1
 345.1484375 700 l 1
 176.59765625 572 l 1
 96.59765625 572 l 1
 238.1484375 700 l 1
EndSplineSet
EndChar

StartChar: icircumflex
Encoding: 238 238 176
Width: 234
GlyphClass: 2
Flags: MW
HStem: 0 21G<-9.45898 75.541 -9.45898 -9.45898> 492 20G<108.745 193.745 193.745 193.745>
LayerCount: 2
Fore
SplineSet
108.745117188 512 m 1
 193.745117188 512 l 1
 75.541015625 0 l 1
 -9.458984375 0 l 1
 108.745117188 512 l 1
165.150390625 713 m 1
 230.150390625 713 l 1
 327.443359375 567 l 1
 247.443359375 567 l 1
 185.221679688 657 l 1
 80.443359375 567 l 1
 0.443359375 567 l 1
 165.150390625 713 l 1
EndSplineSet
EndChar

